<svg xmlns="http://www.w3.org/2000/svg" width="663" height="386"><g fill="none" stroke="#646464" stroke-linecap="round" stroke-linejoin="round"><path d="M235.398 269.063l40.197 23.358M282.806 292.512L517.914 155.78M275.595 292.398v40.366M275.596 332.762c0 1.158 1.614 2.096 3.605 2.096 1.992 0 3.606-.938 3.606-2.095M282.806 292.398v40.366M275.595 252.147v40.365M282.806 252.147v40.365M228.186 305.327c0 1.157 1.615 2.095 3.607 2.095 1.991 0 3.606-.938 3.606-2.095M228.186 264.963v40.364M235.398 269.04v36.287M228.186 224.598v40.365M235.398 224.598v44.442M517.916 191.951c0 1.158 1.614 2.096 3.605 2.096 1.992 0 3.606-.938 3.606-2.096M525.126 151.588v40.363M517.914 111.335V151.7M525.126 111.335V151.7M235.398 260.75l12.978-7.583M517.914 155.78v36.171M228.186 184.12v40.364M235.398 184.12v40.364M275.595 211.782v40.365M282.806 211.782v40.365M470.506 43.308v2.095M477.718 43.308v1.944M517.914 68.876v40.363M525.126 68.876v40.363M235.398 186.223l40.197 23.455M282.806 209.656L517.914 71.002M517.914 66.93L498.57 56.497M235.398 143.753c0-1.157-1.614-2.095-3.605-2.095-1.992 0-3.606.938-3.606 2.095 0 1.158 1.614 2.096 3.606 2.096 1.991 0 3.606-.938 3.606-2.096M471.562 44.79l-41.78 24.277M235.398 143.754v40.366M282.808 171.416c0-1.157-1.615-2.096-3.607-2.096-1.991 0-3.606.939-3.606 2.096s1.615 2.095 3.606 2.095c1.992 0 3.606-.938 3.606-2.095M228.186 143.754v40.366M282.806 171.416v40.366M477.718 2.942c0-1.157-1.614-2.095-3.605-2.095-1.992 0-3.606.938-3.606 2.095 0 1.157 1.614 2.096 3.606 2.096 1.991 0 3.606-.939 3.606-2.096M275.595 171.416v40.366M477.718 2.942v40.366M525.128 28.509c0-1.157-1.615-2.095-3.607-2.095-1.991 0-3.606.938-3.606 2.095 0 1.158 1.615 2.096 3.606 2.096 1.992 0 3.606-.938 3.606-2.096M470.506 2.942v40.366M525.126 28.51v40.366M470.506 43.308c0 1.156 1.615 2.095 3.607 2.095 1.991 0 3.606-.939 3.606-2.096M517.914 28.51v40.366M525.126 111.335v-2.096M517.914 109.24v2.095M517.914 155.78v-4.08M517.914 111.335L282.806 247.956M517.914 66.93L282.806 203.55M517.914 107.125l-235.108 136.62M504.944 99.554l12.97 7.57M517.914 151.625l-235.108 136.62M517.914 151.625l-13.051-7.584M235.398 264.818l40.197 23.359M235.398 224.62l40.197 23.359M235.398 220.41l40.197 23.358M235.398 220.41l29.355-17.059M235.398 180.119l40.197 23.454M504.863 144.04l-8.279-4.81M471.648 150.846v16.74l16.69-9.699M471.648 150.846V138.22M488.338 157.887l8.246-4.791M496.584 136.356v16.74M496.584 136.356V123.73M471.648 167.586l-17.979-10.447" stroke-width=".9999974999999999"/><path d="M474.92 140.074v22.094l19.269-11.195M494.189 128.876v22.097M474.92 140.074l19.269-11.198M469.097 140.352v22.095l-15.437-8.971M469.097 140.352l-.558-.325M459.247 145.427l9.85 17.02M474.92 140.074l19.269 10.899M474.92 162.168l19.269-33.292M319.453 226.661v32.309l-32.614 18.951-4.033-2.343M286.84 245.613v32.308M248.376 232.162v23.41M309.134 232.656v2.833M303.147 236.136v2.831M309.134 235.49l-5.987 3.477M299.122 240.7v11.12l-9.499 5.52M289.623 246.22v11.12M299.122 240.7l-9.499 5.52M339.806 245.838l-20.353-11.748M386.824 218.33l-47.018 27.508-.077-30.96M386.824 218.33l-.078-30.774M368.044 198.425l.014 7.888M363.236 201.219l.013 7.907M368.057 206.313l-4.808 2.813" stroke-width=".9999974999999999"/><path d="M356.833 214.098l.032 10.575-12.997 7.605M343.837 221.702l.03 10.576M356.833 214.098l-12.996 7.604M406.717 207.103l-19.958-11.519M453.735 179.596l-47.018 27.507-.066-22.518M453.735 179.596l-.066-22.457M434.952 168.028l.014 5.326M430.144 170.842l.016 5.325M430.144 170.842l-23.51 13.753M453.653 157.089l-18.701 10.94M434.966 173.354l-4.806 2.813M434.952 168.028l-4.808 2.814" stroke-width=".9999974999999999"/><path d="M423.744 181.14l.03 10.575-12.995 7.603M410.748 188.744l.03 10.574M423.744 181.14l-12.996 7.604M275.595 271.387l-27.219-15.815M313.184 216.797L289.34 230.65l-6.534-3.797M289.34 230.651v-24.85M264.745 216.359l.008-13.008M313.184 216.797V191.74M303.149 197.659v3.86M299.982 199.526v3.835M303.149 201.52l-3.167 1.84M310.611 198.991v7.101l-5.502 3.198M305.109 202.19v7.1M310.611 198.991l-5.502 3.198M332.225 204.67l-19.04-10.99M379.244 177.164l-47.02 27.505-.068-24.117M379.244 177.164l-.07-24.34M360.473 163.852l.002 1.294M355.664 166.688l.006 1.271M360.476 165.146l-4.807 2.813" stroke-width=".9999974999999999"/><path d="M349.254 172.93l.03 10.577-12.996 7.603M336.256 180.534l.032 10.576M349.254 172.93l-12.998 7.604M422.471 150.992l-23.844 13.854-19.451-11.301M398.627 164.846v-23.495M422.471 150.992V127.29M412.435 133.208v2.507M409.269 135.075v2.481M412.435 135.715l-3.166 1.841M419.897 133.188v7.1l-5.503 3.198M414.394 136.385v7.1M419.897 133.188l-5.503 3.197M460.907 127.78l-23.844 13.856-14.592-8.48M437.063 141.636v-22.952M460.907 127.78v-23.158M450.873 110.54v1.963M447.705 112.407v1.938M450.873 112.503l-3.168 1.842M458.334 109.977v7.099l-5.503 3.198M452.831 113.175v7.099M458.334 109.977l-5.503 3.198M504.944 78.652v27.043l-32.613 18.952-11.424-6.638M472.33 97.885v26.762" stroke-width=".9999974999999999"/><path d="M484.612 90.642v7.904l-9.499 5.519M475.113 96.243v7.822M275.595 222.663l-10.85-6.304M292.203 189.71l-9.397-5.423M325.117 170.455l-32.914 19.254-.056-19.798M269.723 176.734l-.058-19.798M325.117 170.455l-.058-19.798-22.481-12.975M292.147 169.911l-22.482-12.975M308.603 160.285l-22.482-12.975M289.487 145.34l22.48 12.975.011 3.728M308.603 160.285l.01 3.728M308.603 160.285l-16.456 9.626M325.06 150.657l-13.092 7.658M311.979 162.043l-3.366 1.97M302.578 137.682l-32.913 19.254M311.968 158.315l-3.365 1.97" stroke-width=".9999974999999999"/><path d="M304.122 167.492l.023 7.404-9.097 5.322M295.025 172.815l.023 7.403M304.122 167.492l-9.097 5.323M354.144 147.873l-16.692 9.699-17.217-10.005M337.452 157.572v-17.209M320.235 147.567v-17.21M354.144 147.873v-17.208M336.926 120.659l-16.691 9.698M354.144 130.665l-16.692 9.698M354.144 130.665l-17.218-10.006M337.452 140.363l-17.217-10.006M347.119 134.746L329.9 124.74M344.902 136.034l-17.219-10.005M347.119 134.746v2.434M344.902 136.034v2.433M347.119 137.18l-2.217 1.287M352.341 135.41v4.97l-3.85 2.238M348.49 137.648v4.97M352.341 135.41l-3.85 2.238M445.536 95.432l-16.69 9.698-17.217-10.004M428.847 105.13V87.922M411.63 95.126v-17.21M445.536 95.432V78.223M428.319 68.217l-16.69 9.699M445.536 78.223l-16.69 9.699M445.536 78.223L428.32 68.217M428.847 87.922l-17.218-10.006M438.512 82.305l-17.218-10.004M436.295 83.593l-17.217-10.005M438.512 82.305v2.434M436.295 83.593v2.433M438.512 84.739l-2.217 1.287M443.736 82.97v4.968l-3.852 2.239M439.884 85.207v4.97M443.736 82.97l-3.852 2.237M411.63 79.617l-25.564 14.854M320.235 132.725l-13.078 7.6M269.68 162.102l-34.282 19.922" stroke-width=".9999974999999999"/><path d="M443.625 311.823l58.753-34.833M404.304 289.432l39.32 22.391M463.057 254.599l39.321 22.39M443.625 311.823l.595 68.639M404.304 289.432l.365 42.245M522.554 334.02l-.205-23.5-19.97-33.53M396.634 362.971l39.321 22.391M396.437 340.428l8.41-8.94M396.437 340.428l39.321 22.391M396.634 362.971l-.197-22.543M435.758 362.82l.197 22.542M444.22 380.462l-8.265 4.9M503.275 357.698c3.803 2.167 9.908-1.452 13.635-8.083 3.728-6.631 3.666-13.762-.138-15.928-3.803-2.166-9.908 1.453-13.636 8.084-3.727 6.63-3.665 13.762.138 15.928" stroke-width="1.2573301899999998"/><path d="M508.673 348.095c.761.432 1.982-.292 2.728-1.618.745-1.326.733-2.752-.028-3.185-.76-.434-1.982.29-2.727 1.616-.746 1.327-.733 2.753.027 3.186M497.82 354.594c-3.803-2.166-3.865-9.297-.137-15.928 3.727-6.631 9.832-10.25 13.636-8.085M435.758 362.82l8.233-8.752-39.322-22.391M511.318 330.582l5.452 3.106M458.648 384.156c3.803 2.167 9.908-1.453 13.636-8.084 3.727-6.63 3.665-13.762-.138-15.928-3.804-2.166-9.91 1.454-13.637 8.085-3.727 6.63-3.665 13.762.139 15.928" stroke-width="1.2573301899999998"/><path d="M464.046 374.551c.762.434 1.983-.29 2.728-1.616.745-1.326.733-2.753-.028-3.186-.76-.433-1.981.29-2.727 1.617-.745 1.326-.733 2.752.028 3.186M453.194 381.05c-3.803-2.165-3.865-9.296-.138-15.927 3.728-6.63 9.833-10.25 13.636-8.084M497.82 354.594l5.453 3.106M466.692 357.04l5.452 3.105M453.194 381.053l5.452 3.106M518.926 336.173l3.628-2.153M474.3 362.63l20.81-12.34M444.22 380.462l6.264-3.713M528.376 328.741l.077 8.638M531.884 326.663l.075 8.636M528.376 328.741l3.508-2.078M528.453 337.379l3.506-2.08M557.358 313.517l18.514-8.078-3.937-2.242M575.872 305.44l.01 1.04M531.935 332.533l43.947-26.054M531.903 328.61l25.455-15.093M476.545 217.147l3.508-2.08M476.545 217.147l7.332 4.174 3.508-2.078-7.332-4.176M520.329 242.08l3.508-2.08M528.376 328.741l-.713-82.485M531.884 326.663l-.715-82.487M520.329 242.08l7.334 4.176 3.506-2.08-7.332-4.176M484.27 266.678l-.393-45.357M487.813 268.698l-.428-49.455M476.937 262.504l-.392-45.357M522.48 325.382l5.896 3.359M522.554 334.02l5.899 3.359M520.902 308.088l-.573-66.008M514.11 315.405l-16.724-28.075M514.11 315.405l.053 4.186M448.673 259.263l-3.239 1.92M471.559 285.57c-2.26 1.338-5.96-.77-8.264-4.708-2.305-3.939-2.343-8.217-.083-9.557 2.26-1.34 5.96.768 8.264 4.706 2.305 3.939 2.343 8.218.083 9.557" stroke-width="1.2573301899999998"/><path d="M474.798 283.647c2.26-1.339 2.223-5.617-.083-9.556-2.305-3.939-6.005-6.046-8.264-4.706" stroke-width="1.2573301899999998"/><path d="M474.798 283.647c3.785-2.539 4.808-7.685 2.285-11.495-2.327-3.512-6.905-4.704-10.632-2.767M458.06 264.028l-3.24 1.922" stroke-width="1.2573301899999998"/><path d="M468.968 268.647c-1.883-4.333-6.899-6.31-11.204-4.416a8.61 8.61 0 0 0-.202.092" stroke-width="1.2573301899999998"/><path d="M460.08 263.585c-1.884-4.333-6.9-6.31-11.205-4.415a8.29 8.29 0 0 0-.201.092" stroke-width="1.2573301899999998"/><path d="M457.241 264.513a13.41 13.41 0 0 0-.303-.545c-2.305-3.939-6.005-6.046-8.264-4.706M454.014 266.456c-.1-.191-.205-.38-.315-.568-2.305-3.938-6.005-6.045-8.264-4.706-2.26 1.34-2.223 5.618.082 9.557 2.306 3.939 6.006 6.046 8.265 4.706.114-.067.222-.143.326-.227M466.119 269.552c-.094-.176-.191-.35-.292-.523-2.305-3.938-6.005-6.045-8.265-4.706" stroke-width="1.2573301899999998"/><path d="M462.902 271.518c-.1-.192-.205-.381-.314-.568-2.305-3.939-6.006-6.046-8.265-4.706-2.26 1.34-2.222 5.618.083 9.556 2.305 3.94 6.005 6.046 8.265 4.707.106-.063.208-.134.306-.211M466.45 269.386l-2.93 1.708M474.798 283.649l-3.24 1.92-4.016 2.382M477.729 281.91l-6.17 3.66" stroke-width="1.2573301899999998"/><path d="M445.516 270.74l-4.016 2.381 26.042 14.83.017 1.964 10.189-6.04M477.729 281.91l.018 1.966M477.729 281.91l-.74-.422M441.518 275.086l26.04 14.83M441.5 273.121l.018 1.965M455.488 259.085l7.569-4.486M404.304 289.432l39.53-23.435M489.562 347.755l5.89-17.1M474.603 356.658l14.959-8.903M474.603 356.658v-55.82l22.783-13.508" stroke-width="1.2573301899999998"/><path d="M478.883 330.918c-.592-.343-.592-1.457 0-2.488.591-1.03 1.55-1.588 2.14-1.244.592.343.592 1.458 0 2.488-.59 1.031-1.549 1.588-2.14 1.245M495.452 330.655l18.71-11.064M449.967 328.682l17.728-10.301M449.967 326.034l17.728-10.302M449.967 323.387l17.728-10.301M449.967 320.738l17.728-10.301M449.967 318.09l17.728-10.302M449.967 315.443l17.728-10.301M449.967 315.443v13.24M467.695 305.142v13.239M449.967 346.887l17.728-10.301M449.967 344.238l17.728-10.3M449.967 341.592l17.728-10.304M449.967 338.943l17.728-10.301M449.967 336.294l17.728-10.3M449.967 333.648l17.728-10.304M449.967 333.648v13.239M467.695 323.344v13.242M448.848 353.326l7.778-4.519v6.085M448.848 359.41l7.778-4.518M450.094 356.067c-.21-.122-.21-.52 0-.888.211-.368.553-.567.765-.444.21.123.21.52 0 .888-.212.368-.554.567-.765.445M448.848 353.326v6.084M410.202 299.41l27.524 15.673M410.202 327.519l27.524 15.673M410.202 299.41v28.109M437.726 315.083v28.11M406.278 356.047l18.773 10.692.054 6.238M404.438 357.14l18.773 10.69M404.493 363.378l18.773 10.69M423.211 367.83l.054 6.238M404.438 357.14l.055 6.238M423.211 367.83l1.84-1.091M423.266 374.068l1.839-1.09M404.438 357.14l1.84-1.093M531.903 328.61v-71.808M487.487 230.993L520.4 250.12M559.429 312.612l12.506-7.266V233.54M531.903 256.802l40.032-23.263M525.276 206.427l46.66 27.112M487.465 228.4l37.811-21.973M503.886 240.522l40.033-23.262M512.408 245.475l40.033-23.263M503.886 240.522v11.228M512.408 245.475v11.228M503.886 251.75l8.522 4.953M531.275 256.438l.628.364" stroke-width="1.2573301899999998"/><path d="M453.653 157.089l-7.237-4.206M453.66 153.476l-4.132-2.4M451.706 150.189l-1.93 1.05M406.634 184.595l-7.396-4.298M571.346 126.635c0-5.226-7.289-9.462-16.28-9.462-8.992 0-16.282 4.236-16.282 9.461 0 5.225 7.29 9.46 16.281 9.46 8.992 0 16.281-4.235 16.281-9.46M571.345 126.635v44.928M571.346 171.563c0 5.224-7.289 9.46-16.28 9.46-8.992 0-16.282-4.236-16.282-9.46" stroke-width=".9999974999999999"/><path d="M571.346 135.49c0 5.225-7.289 9.461-16.28 9.461-8.992 0-16.282-4.236-16.282-9.46M571.346 165.637c0 5.225-7.289 9.46-16.28 9.46-8.992 0-16.282-4.235-16.282-9.46M542.26 127.434c0-.604.844-1.094 1.885-1.094 1.04 0 1.884.49 1.884 1.095 0 .604-.844 1.094-1.884 1.094s-1.884-.49-1.884-1.094" stroke-width=".9999974999999999"/><path d="M571.346 137.859c0 5.224-7.289 9.46-16.28 9.46-8.992 0-16.282-4.236-16.282-9.46M571.346 163.025c0 5.225-7.289 9.46-16.28 9.46-8.992 0-16.282-4.235-16.282-9.46" stroke-width=".9999974999999999"/><path d="M571.346 140.226c0 5.225-7.289 9.46-16.28 9.46-8.992 0-16.282-4.235-16.282-9.46M571.346 160.412c0 5.226-7.289 9.462-16.28 9.462-8.992 0-16.282-4.236-16.282-9.461M538.784 126.635v44.928M629.907 243.12l32.062-18.632M582.809 215.75l47.098 27.37v-28.284M661.969 224.488v-28.283M582.809 215.75v-28.283l32.062-18.63M629.907 214.836l32.062-18.63M606.357 201.153l32.062-18.631M633.602 179.723l-32.062 18.63v5.325M606.357 201.153v5.324M606.357 201.153l23.55 13.683M582.809 187.467l18.731 10.887M601.54 203.678l4.817 2.799M614.87 168.836l47.099 27.37M601.54 198.354l4.817 2.799" stroke-width=".9999974999999999"/><path d="M612.787 211.43v10.577l13.018 7.566M625.805 218.997v10.576M612.787 211.43l13.018 7.567M362.34 283.734c0-5.224-7.288-9.46-16.28-9.46s-16.281 4.236-16.281 9.461c0 5.225 7.29 9.461 16.28 9.461 8.993 0 16.282-4.236 16.282-9.46M362.34 283.736v44.928M362.34 328.663c0 5.225-7.288 9.46-16.28 9.46s-16.281-4.235-16.281-9.46" stroke-width=".9999974999999999"/><path d="M362.34 292.591c0 5.226-7.288 9.461-16.28 9.461s-16.281-4.235-16.281-9.46M362.34 322.738c0 5.225-7.288 9.46-16.28 9.46s-16.281-4.235-16.281-9.46M333.255 284.536c0-.605.844-1.095 1.884-1.095s1.884.49 1.884 1.095c0 .604-.843 1.094-1.884 1.094-1.04 0-1.884-.49-1.884-1.094" stroke-width=".9999974999999999"/><path d="M362.34 294.959c0 5.225-7.288 9.461-16.28 9.461s-16.281-4.236-16.281-9.46M362.34 320.126c0 5.225-7.288 9.46-16.28 9.46s-16.281-4.235-16.281-9.46" stroke-width=".9999974999999999"/><path d="M362.34 297.326c0 5.226-7.288 9.462-16.28 9.462s-16.281-4.236-16.281-9.461M362.34 317.514c0 5.225-7.288 9.46-16.28 9.46s-16.281-4.235-16.281-9.46M329.778 283.736v44.928M376.492 117.042c0 2-2.79 3.622-6.234 3.622-3.443 0-6.234-1.622-6.234-3.622M368.956 91.384l-4.933 6.279v19.38M376.49 97.663v19.38M371.56 90.417c0-.417-.583-.756-1.302-.756-.718 0-1.301.339-1.301.757 0 .417.583.756 1.301.756.719 0 1.302-.339 1.302-.756M371.56 91.384c0 .417-.583.756-1.302.756-.718 0-1.301-.339-1.301-.756M371.56 91.384l4.93 6.279M371.56 90.418v.966M386.068 111.478c0 2-2.791 3.622-6.234 3.622-1.184 0-2.343-.196-3.342-.564M368.956 90.418v.966M373.598 92.097v1.883M386.066 92.097v19.381M378.531 85.82l-4.933 6.277M381.135 84.853c0-.417-.583-.756-1.301-.756-.719 0-1.302.339-1.302.756 0 .418.583.756 1.302.756.718 0 1.3-.338 1.3-.756M381.135 85.82c0 .417-.583.756-1.301.756-.719 0-1.302-.339-1.302-.757M381.135 85.82l4.931 6.277M381.135 84.854v.966M378.531 84.854v.966M364.023 107.28l-25.061 14.563M498.569 53.36v17.275M490.776 58.198c0 1.251 1.745 2.265 3.897 2.265 2.152 0 3.897-1.014 3.897-2.264M490.776 53.359c0-1.25 1.745-2.264 3.897-2.264 2.152 0 3.897 1.014 3.897 2.264 0 1.25-1.745 2.265-3.897 2.265-2.152 0-3.896-1.014-3.896-2.265M490.776 70.635c0 1.25 1.745 2.263 3.897 2.263 2.152 0 3.897-1.014 3.897-2.264M490.776 53.36v17.275M491.093 52.466l-14.338-7.732" stroke-width=".9999974999999999"/><path d="M563.106 264.151v20.912l-8.026 4.662v-20.912M563.106 264.151l-8.026 4.662" stroke-width="1.2573301899999998"/><path d="M275.595 180.123l-5.872-3.39M103.885 340.19l49.378-28.508M103.885 340.19L68.16 319.563M106.221 303.542l54.317-31.36M106.221 303.542L.506 242.507M153.263 276.382v35.3M103.885 302.194v37.996M7.781 246.707v37.997M15.557 251.197v37.998l-7.776-4.491M15.557 289.195l32.906-19M106.221 299.363L.506 238.33M106.221 299.363l50.863-29.365M106.221 299.363v4.18M160.538 268.005v4.177M.506 238.33v4.177M.506 238.33l16.035-9.258M160.538 268.005l-13.865-8.007M68.159 281.566v37.997M7.015 181.286l3.051-1.761M7.015 181.286l-1.384 11.807M14.453 187.587l-4.987 4.296-1.509-.87M12.945 186.717l-4.988 4.296M14.453 187.587l-1.508-.87M17.199 189.173l-4.987 4.296-1.509-.87M15.69 188.302l-4.987 4.296M17.199 189.173l-1.509-.87M19.945 190.758l-4.988 4.296-1.507-.872M18.436 189.888l-4.986 4.294M19.945 190.758l-1.51-.87M22.692 192.344l-4.987 4.296-1.51-.872M21.183 191.472l-4.987 4.296M22.692 192.344l-1.509-.872M25.437 193.93l-4.987 4.296-1.509-.872M23.929 193.058l-4.988 4.296M25.437 193.93l-1.508-.872M61.372 212.669L7.015 181.286M64.423 210.907l-54.357-31.382M52.612 249.896L5.63 222.773M32.605 227.526c1.924-1.11 1.924-4.711 0-8.044-1.924-3.332-5.043-5.133-6.967-4.022-1.924 1.11-1.924 4.712 0 8.045 1.924 3.332 5.043 5.133 6.967 4.022M52.612 220.216L5.63 193.093M61.372 212.669v40.688M64.423 210.907v40.688M61.372 212.669l3.051-1.762M61.372 253.357l3.051-1.762M61.372 212.669l-8.76 7.547v29.68l8.76 3.46M56.991 212.147l-4.987 4.296M56.991 212.147l-1.509-.872M52.004 216.443l-1.509-.872M55.482 211.275l-4.987 4.296M54.245 210.562l-4.987 4.296-1.509-.87M52.737 209.691l-4.988 4.296M54.245 210.562l-1.508-.87M51.5 208.976l-4.987 4.296-1.51-.87M49.991 208.106l-4.987 4.296M51.5 208.976l-1.509-.87M48.754 207.39l-4.987 4.296-1.509-.87M47.245 206.52l-4.987 4.296M48.754 207.39l-1.509-.87M46.007 205.805l-4.986 4.296-1.508-.87M44.498 204.934l-4.985 4.296M46.007 205.805l-1.509-.87M32.34 238.192v10.557M25.903 234.477v10.555M32.34 248.749l-6.437-3.717" stroke-width=".9999974999999999"/><path d="M33.301 228.734c2.31-1.333 2.31-5.655 0-9.654-2.308-3.999-6.051-6.16-8.36-4.827-2.309 1.333-2.309 5.655 0 9.654 2.309 3.999 6.052 6.16 8.36 4.827M32.34 248.749l2.601-1.503v-7.552M31.938 250.72l-9.45-5.456M31.938 252.429l-9.45-5.456M22.49 246.973c-1.884-1.088-2.943-2.563-2.943-4.101M19.546 242.872v-1.709M22.49 245.264c-1.884-1.088-2.943-2.564-2.943-4.102 0-2.38 2.52-4.52 6.356-5.394M48.895 247.749c-.936 2.714-5.06 4.668-9.853 4.668-2.665 0-5.22-.61-7.104-1.699" stroke-width=".9999974999999999"/><path d="M49.052 247.84c.024.162.036.324.036.487 0 3.203-4.498 5.8-10.046 5.8-2.665 0-5.22-.612-7.104-1.7M29.12 236.334v10.556M5.631 193.093v29.68M69.332 242.595l10.667-6.158-15.576-8.992M69.332 243.973l10.667-6.159M79.999 236.437v1.377M69.332 242.595l-4.909-2.835M69.332 243.973l-4.909-2.834M69.332 242.595v1.378" stroke-width=".9999974999999999"/><path d="M77.99 236.5l-1.111.642-1.115-.643" stroke-width=".9999974999999999"/><path d="M77.99 236.5l-1.116-.642-1.11.641M76.261 237.5l-1.11.64-1.115-.644" stroke-width=".9999974999999999"/><path d="M76.261 237.5l-1.115-.644-1.11.64M74.533 238.496l-1.11.642-1.115-.644" stroke-width=".9999974999999999"/><path d="M74.533 238.496l-1.115-.643-1.11.641M72.805 239.494l-1.11.642-1.115-.645" stroke-width=".9999974999999999"/><path d="M72.805 239.494l-1.115-.643-1.11.64M71.077 240.493l-1.11.64-1.115-.643" stroke-width=".9999974999999999"/><path d="M71.077 240.493l-1.115-.645-1.11.642M69.386 238.803l-1.115-.645M69.381 237.518l-1.11.64M68.769 239.16l-1.11.64-1.116-.643" stroke-width=".9999974999999999"/><path d="M68.769 239.16l-1.116-.645-1.11.642M71.114 237.805L70 237.162M71.11 236.52l-1.111.642M70.497 238.162l-1.11.641M70.497 238.162l-1.116-.644M72.842 236.808l-1.115-.645M72.225 237.163l-1.11.642M72.225 237.163l-1.116-.643M74.57 235.81l-1.115-.644M73.953 236.166l-1.11.642M73.953 236.166l-1.116-.643-1.11.64M74.565 234.525l-1.11.641M75.68 235.168l-1.11.642M75.68 235.168l-1.115-.643M67.077 237.47l-1.115-.644M67.074 236.186l-1.112.64M66.46 237.827l-1.11.64-.927-.534M66.46 237.827l-1.115-.645-.922.533M68.188 236.829l-1.11.641M68.188 236.829l-1.114-.643M68.805 236.472l-1.115-.643M68.802 235.187l-1.112.642M69.916 235.83l-1.11.642M69.916 235.83l-1.114-.643M70.533 235.475l-1.113-.645M71.644 234.834l-1.11.641M71.644 234.834l-1.114-.644-1.11.64M72.261 234.477l-1.113-.643M72.258 233.192l-1.11.642M73.372 233.835l-1.11.642M73.372 233.835l-1.114-.643M64.769 236.138l-.346-.2M64.765 234.853l-.342.197M65.879 235.496l-1.11.642M65.879 235.496l-1.114-.643M66.497 235.14l-1.114-.644M66.493 233.854l-1.11.642M67.607 234.498l-1.11.641M67.607 234.498l-1.114-.644M68.225 234.142l-1.114-.644M69.337 233.5l-1.112.642M69.337 233.5l-1.116-.642-1.11.64M69.953 233.144l-1.114-.643M69.95 231.86l-1.111.64M71.065 232.502l-1.112.642M71.065 232.502l-1.116-.643M65.3 233.165l-.877.505M65.3 233.165l-.877-.506M65.917 232.81l-1.115-.645M67.028 232.168l-1.11.642M67.028 232.168l-1.115-.643-1.11.64M67.645 231.811l-1.115-.643M67.64 230.526l-1.11.642M68.756 231.17l-1.11.641M68.756 231.17l-1.115-.644M64.719 230.835l-.296.17M64.719 230.835l-.296-.171M65.337 230.478l-.914-.526M65.332 229.194l-.909.524M66.447 229.837l-1.11.641M66.447 229.837l-1.115-.643M104.548 276.411l-15.373-8.875M104.548 270.7l-15.373-8.874M128.617 259.947l-2.714-1.576M128.617 259.947v2.568M89.175 261.826v5.71M104.548 270.7v5.711M104.548 285.934l-15.373-8.875M104.548 280.224l-15.373-8.875M128.617 269.47l-2.714-1.576M89.175 271.349v5.71M128.617 269.47v2.568M104.548 280.224v5.71M104.548 296.29l24.069-13.896M104.548 296.29l-15.373-8.876M104.548 290.58l-15.373-8.876M128.617 279.826l-2.714-1.576M89.175 281.704v5.71M128.617 279.826v2.568M104.548 290.58v5.71M116.581 289.34v-30.657M89.175 281.704l4.022-2.322M125.903 278.25l-4.022-2.324M89.175 271.349l3.302-1.906M125.903 267.894l-3.302-1.907M112.66 291.606v-30.659M116.581 269.462l12.036-6.947M104.548 276.411l8.112-4.683M116.581 273.275l9.322-5.38M116.581 278.986l12.036-6.948M104.548 280.224l8.112-4.683M104.548 285.934l8.112-4.683M116.581 283.63l9.322-5.38M104.548 290.58l8.112-4.684M116.581 263.754l9.322-5.383M104.548 270.7l8.112-4.682M112.66 260.947l-13.634-7.87M112.66 260.947l3.921-2.264-13.633-7.872M99.026 253.077l3.922-2.266M105.6 252.342l4.932-2.846M89.175 261.826l12.502-7.218M99.026 253.077v3.062M113.244 251.072l-2.712-1.576M125.903 258.371l-15.371-8.875M157.084 269.998l3.454-1.993M148.213 267.107c0 2.447-3.435 4.43-7.671 4.43-4.236 0-7.67-1.983-7.67-4.43M148.212 264.41v2.699M132.871 264.41v2.699M146.553 265.68c0 .734-1.031 1.329-2.302 1.329-1.271 0-2.302-.595-2.302-1.329M146.551 263.784v1.898M136.948 262.57c0-.367-.515-.664-1.15-.664-.636 0-1.151.297-1.151.664 0 .367.515.664 1.15.664.636 0 1.151-.297 1.151-.664M141.95 263.784v1.898" stroke-width=".9999974999999999"/><path d="M136.948 262.974c0 .368-.515.665-1.15.665-.636 0-1.151-.297-1.151-.664M136.948 262.571v.405M122.956 227.578c-3.73.399-6.193 5.959-5.503 12.418.691 6.46 4.274 11.372 8.004 10.974.56-.06 1.106-.24 1.624-.538M134.647 262.571v.405M138.068 233.192c-1.24-2.715-3.16-4.263-5.036-4.063-2.9.31-4.816 4.635-4.279 9.659.537 5.024 3.324 8.845 6.225 8.535 1.876-.2 3.425-2.12 4.062-5.035" stroke-width=".9999974999999999"/><path d="M133.519 233.678c-1.45.155-2.409 2.317-2.14 4.829.269 2.512 1.662 4.423 3.112 4.267M134.977 247.323l-7.896 3.109M139.529 233.035c-1.451.155-2.41 2.317-2.14 4.83.268 2.511 1.661 4.422 3.112 4.267M140.5 242.133l-6.01.643M143.092 234.494c.87-.093 1.705 1.054 1.867 2.56.16 1.508-.414 2.805-1.284 2.898-.87.093-1.707-1.053-1.868-2.56-.16-1.507.414-2.805 1.284-2.898M139.527 233.035l-6.01.643M139.527 233.035l4.018 1.522M143.674 239.954l-3.174 2.179M142.645 263.782c1.553-6.976 3.107-13.953 0-19.305M142.645 244.477c-.514-.885-1.155-1.726-1.85-2.547" stroke-width=".9999974999999999"/><path d="M146.354 261.52c1.2.803 1.859 1.829 1.859 2.89 0 2.445-3.435 4.428-7.671 4.428-4.236 0-7.67-1.983-7.67-4.429s3.434-4.428 7.67-4.428c.98 0 1.95.108 2.859.319M145.857 263.782c1.553-6.976 3.106-13.953 0-19.305M145.857 244.477c-.803-1.383-1.917-2.657-3.063-3.92" stroke-width=".9999974999999999"/><path d="M145.857 263.782c0 .513-.72.928-1.606.928-.887 0-1.606-.415-1.606-.927" stroke-width=".9999974999999999"/><path d="M146.042 262.949c.33.236.51.53.51.834 0 .734-1.03 1.328-2.301 1.328-1.271 0-2.302-.594-2.302-1.328 0-.421.347-.818.933-1.068M133.031 229.13l-10.077-1.55M143.781 258.33l-14.904-8.605M75.538 252.222c0-1.69 2.375-3.061 5.303-3.061s5.302 1.37 5.302 3.061c0 1.69-2.374 3.061-5.302 3.061-2.928 0-5.302-1.37-5.302-3.061M118.157 243.536l-53.734-31.024M86.141 252.222v7.18M75.538 259.4c0 1.691 2.375 3.062 5.303 3.062s5.302-1.37 5.302-3.061" stroke-width=".9999974999999999"/><path d="M75.538 254.334c0 1.69 2.375 3.061 5.303 3.061s5.302-1.37 5.302-3.06M75.538 252.222v7.18" stroke-width=".9999974999999999"/></g></svg>