<svg xmlns="http://www.w3.org/2000/svg" width="1140" height="528"><g fill="none" stroke="#646464" stroke-linecap="round" stroke-linejoin="round"><path d="M712.648 380.527l40.196 23.358M760.056 403.977l235.108-136.732M752.844 403.863v40.365M752.846 444.227c0 1.158 1.614 2.096 3.605 2.096 1.992 0 3.606-.938 3.606-2.096M760.056 403.863v40.365M752.844 363.612v40.365M760.056 363.612v40.365M705.436 416.792c0 1.157 1.615 2.095 3.606 2.095 1.992 0 3.606-.938 3.606-2.095M705.436 376.428v40.364M712.648 380.505v36.287M705.436 336.063v40.365M712.648 336.063v44.442M995.166 303.416c0 1.157 1.614 2.096 3.605 2.096 1.992 0 3.606-.939 3.606-2.096M1002.376 263.052v40.364M995.164 222.8v40.365M1002.376 222.8v40.365M712.648 372.214l12.978-7.582M995.164 267.245v36.171M705.436 295.585v40.363M712.648 295.585v40.363M752.844 323.246v40.366M760.056 323.246v40.366M947.756 154.772v2.096M954.968 154.772v1.945M995.164 180.34v40.364M1002.376 180.34v40.364M712.648 297.688l40.196 23.455M760.056 321.12l235.108-138.653M995.164 178.395l-19.346-10.433M712.648 255.218c0-1.157-1.614-2.095-3.606-2.095-1.991 0-3.606.938-3.606 2.095 0 1.157 1.615 2.096 3.606 2.096 1.992 0 3.606-.939 3.606-2.096M948.811 156.255l-41.779 24.277M712.648 255.22v40.365M760.058 282.881c0-1.158-1.615-2.096-3.607-2.096-1.991 0-3.606.938-3.606 2.096 0 1.157 1.615 2.095 3.606 2.095 1.992 0 3.606-.938 3.606-2.095M705.436 255.22v40.365M760.056 282.881v40.365M954.968 114.407c0-1.157-1.614-2.096-3.606-2.096-1.991 0-3.605.939-3.605 2.096s1.614 2.095 3.605 2.095c1.992 0 3.606-.938 3.606-2.095M752.844 282.881v40.365M954.968 114.407v40.365M1002.378 139.973c0-1.156-1.615-2.094-3.607-2.094-1.991 0-3.606.938-3.606 2.095 0 1.157 1.615 2.095 3.606 2.095 1.992 0 3.606-.938 3.606-2.095M947.756 114.407v40.365M1002.376 139.975v40.365M947.756 154.772c0 1.157 1.615 2.095 3.606 2.095 1.992 0 3.606-.938 3.606-2.095M995.164 139.975v40.365M1002.376 222.8v-2.096M995.164 220.704v2.096M995.164 267.245v-4.08M995.164 222.8L760.056 359.42M995.164 178.395l-235.108 136.62M995.164 218.59L760.056 355.21M982.194 211.018l12.97 7.571M995.164 263.09L760.056 399.71M995.164 263.09l-13.052-7.584M712.648 376.283l40.196 23.358M712.648 336.085l40.196 23.358M712.648 331.875l40.196 23.358M712.648 331.875l29.355-17.059M712.648 291.583l40.196 23.455M982.112 255.506l-8.278-4.811M948.898 262.31v16.74l16.69-9.698M948.898 262.31v-12.624M965.587 269.352l8.247-4.791M973.834 247.82v16.74M973.834 247.82v-12.624M948.898 279.05l-17.979-10.447" stroke-width=".9999974999999999"/><path d="M952.17 251.538v22.095l19.269-11.195M971.439 240.341v22.097M952.17 251.538l19.269-11.197M946.347 251.817v22.095l-15.437-8.972M946.347 251.817l-.558-.325M936.497 256.891l9.85 17.02M952.17 251.538l19.269 10.9M952.17 273.633l19.269-33.292M796.703 338.126v32.308l-32.614 18.952-4.033-2.344M764.09 357.077v32.309M725.626 343.627v23.41M786.384 344.121v2.833M780.397 347.6v2.832M786.384 346.954l-5.987 3.478M776.372 352.165v11.12l-9.499 5.52M766.873 357.684v11.122M776.372 352.165l-9.499 5.52M817.056 357.303l-20.353-11.748M864.074 329.795l-47.018 27.508-.077-30.96M864.074 329.795l-.078-30.774M845.294 309.89l.014 7.887M840.486 312.684l.013 7.907M845.307 317.777l-4.808 2.814" stroke-width=".9999974999999999"/><path d="M834.083 325.562l.032 10.576-12.997 7.605M821.087 333.167l.03 10.576M834.083 325.562l-12.996 7.605M883.967 318.568l-19.959-11.52M930.985 291.06l-47.018 27.508-.066-22.518M930.985 291.06l-.066-22.457M912.202 279.493l.014 5.326M907.393 282.306l.016 5.326M907.393 282.306l-23.51 13.753M930.903 268.554l-18.701 10.94M912.216 284.819l-4.807 2.813M912.202 279.493l-4.809 2.813" stroke-width=".9999974999999999"/><path d="M900.994 292.604l.03 10.576-12.996 7.603M887.998 300.209l.03 10.574M900.994 292.604l-12.996 7.605M752.844 382.851l-27.218-15.814M790.434 328.262l-23.844 13.854-6.534-3.797M766.59 342.116v-24.85M741.995 327.824l.008-13.008M790.434 328.262v-25.057M780.398 309.123v3.861M777.232 310.99v3.836M780.398 312.984l-3.166 1.842M787.861 310.456v7.101l-5.502 3.198M782.359 313.654v7.101M787.861 310.456l-5.502 3.198M809.475 316.134l-19.04-10.99M856.494 288.628l-47.02 27.506-.068-24.118M856.494 288.628l-.07-24.34M837.723 275.317l.002 1.294M832.914 278.152l.005 1.272M837.726 276.61l-4.807 2.814" stroke-width=".9999974999999999"/><path d="M826.503 284.396l.03 10.575-12.995 7.603M813.506 291.999l.032 10.575M826.503 284.396l-12.997 7.603M899.72 262.457l-23.843 13.854-19.451-11.301M875.877 276.311v-23.495M899.72 262.457v-23.703M889.685 244.672v2.508M886.519 246.54v2.481M889.685 247.18l-3.166 1.841M897.146 244.653v7.1l-5.502 3.197M891.644 247.85v7.1M897.146 244.653l-5.502 3.196M938.157 239.245l-23.844 13.856-14.592-8.48M914.313 253.101V230.15M938.157 239.245v-23.158M928.122 222.005v1.963M924.955 223.872v1.937M928.122 223.968l-3.167 1.841M935.584 221.441v7.1l-5.503 3.198M930.081 224.64v7.099M935.584 221.441l-5.503 3.198M982.194 190.116v27.044l-32.613 18.952-11.424-6.638M949.58 209.35v26.762" stroke-width=".9999974999999999"/><path d="M961.862 202.107v7.904l-9.499 5.519M952.363 207.708v7.822M752.844 334.128l-10.85-6.304M769.453 301.174l-9.397-5.422M802.367 281.92l-32.914 19.254-.056-19.798M746.973 288.199l-.058-19.798M802.367 281.92l-.058-19.798-22.482-12.975M769.397 281.376l-22.482-12.975M785.853 271.75l-22.482-12.976M766.737 256.804l22.48 12.976.011 3.728M785.853 271.75l.01 3.728M785.853 271.75l-16.456 9.626M802.31 262.122l-13.093 7.658M789.229 273.508l-3.367 1.97M779.827 249.147L746.915 268.4M789.217 269.78l-3.364 1.97" stroke-width=".9999974999999999"/><path d="M781.372 278.957l.023 7.404-9.098 5.322M772.275 284.28l.022 7.403M781.372 278.957l-9.097 5.323M831.393 259.338l-16.691 9.698-17.217-10.004M814.702 269.036v-17.208M797.485 259.032v-17.21M831.393 259.338v-17.209M814.176 232.123l-16.691 9.699M831.393 242.13l-16.691 9.698M831.393 242.13l-17.217-10.007M814.702 251.828l-17.217-10.006M824.369 246.211l-17.218-10.006M822.152 247.499l-17.219-10.005M824.369 246.211v2.434M822.152 247.499v2.433M824.369 248.645l-2.217 1.287M829.591 246.874v4.97l-3.85 2.239M825.74 249.113v4.97M829.591 246.874l-3.85 2.239M922.786 206.897l-16.69 9.698-17.217-10.004M906.096 216.595v-17.208M888.88 206.59v-17.21M922.786 206.897v-17.209M905.569 179.682l-16.69 9.699M922.786 189.688l-16.69 9.699M922.786 189.688l-17.217-10.006M906.096 199.387L888.88 189.38M915.761 193.77l-17.217-10.005M913.545 195.057l-17.217-10.004M915.761 193.77v2.433M913.545 195.057v2.434M915.761 196.203l-2.216 1.288M920.986 194.434v4.969l-3.853 2.239M917.133 196.672v4.97M920.986 194.434l-3.853 2.238M888.88 191.082l-25.564 14.854M797.485 244.19l-13.078 7.6M746.93 273.567l-34.282 19.922" stroke-width=".9999974999999999"/><path d="M920.874 423.288l58.754-34.833M881.553 400.897l39.321 22.39M940.307 366.063l39.32 22.392M920.874 423.288l.596 68.638M881.553 400.897l.366 42.245M999.804 445.485l-.205-23.5-19.971-33.53M873.884 474.436l39.32 22.391M873.687 451.893l8.41-8.94M873.687 451.893l39.32 22.391M873.884 474.436l-.197-22.543M913.008 474.284l.197 22.543M921.47 491.926l-8.265 4.901M980.525 469.163c3.803 2.167 9.908-1.453 13.635-8.084 3.727-6.63 3.666-13.762-.138-15.928-3.804-2.166-9.909 1.454-13.636 8.085-3.727 6.63-3.666 13.762.138 15.928" stroke-width="1.2573301899999998"/><path d="M985.922 459.56c.762.432 1.983-.292 2.728-1.618.746-1.326.733-2.752-.027-3.186-.76-.433-1.982.291-2.727 1.617-.746 1.326-.734 2.753.027 3.186M975.07 466.059c-3.803-2.166-3.865-9.298-.137-15.929 3.727-6.63 9.832-10.25 13.636-8.084M913.008 474.284l8.232-8.751-39.32-22.391M988.568 442.047l5.452 3.106M935.898 495.621c3.803 2.166 9.908-1.453 13.636-8.084 3.727-6.63 3.665-13.762-.139-15.928-3.803-2.166-9.908 1.454-13.636 8.084-3.727 6.631-3.665 13.762.138 15.928" stroke-width="1.2573301899999998"/><path d="M941.296 486.016c.761.434 1.982-.29 2.728-1.616.745-1.327.733-2.753-.028-3.186-.76-.433-1.982.29-2.727 1.617-.745 1.326-.733 2.752.028 3.185M930.444 492.515c-3.803-2.165-3.865-9.296-.138-15.927 3.727-6.63 9.833-10.25 13.636-8.084M975.07 466.059l5.453 3.106M943.942 468.505l5.452 3.104M930.444 492.517l5.452 3.106M996.175 447.638l3.63-2.153M951.549 474.094l20.811-12.339M921.47 491.926l6.264-3.713M1005.626 440.206l.077 8.638M1009.134 438.128l.075 8.636M1005.626 440.206l3.508-2.078M1005.703 448.844l3.506-2.08M1034.608 424.981l18.513-8.077-3.936-2.242M1053.121 416.904l.011 1.04M1009.185 443.998l43.946-26.054M1009.152 440.074l25.456-15.093M953.794 328.612l3.509-2.08M953.794 328.612l7.332 4.174 3.508-2.078-7.331-4.176M997.579 353.544l3.508-2.08M1005.626 440.206l-.714-82.485M1009.134 438.128l-.715-82.487M997.579 353.544l7.333 4.177 3.507-2.08-7.332-4.177M961.52 378.143l-.394-45.357M965.063 380.163l-.429-49.455M954.187 373.969l-.393-45.357M999.73 436.847l5.896 3.359M999.804 445.485l5.899 3.359M998.152 419.553l-.573-66.009M991.36 426.87l-16.724-28.076M991.36 426.87l.053 4.186M925.923 370.727l-3.24 1.92M948.809 397.034c-2.26 1.338-5.96-.769-8.265-4.707-2.305-3.939-2.342-8.218-.082-9.557 2.259-1.34 5.96.768 8.264 4.706 2.305 3.939 2.342 8.218.083 9.557" stroke-width="1.2573301899999998"/><path d="M952.047 395.112c2.26-1.339 2.223-5.618-.082-9.556-2.305-3.939-6.005-6.046-8.264-4.706" stroke-width="1.2573301899999998"/><path d="M952.047 395.112c3.786-2.539 4.809-7.686 2.285-11.495-2.326-3.513-6.904-4.704-10.631-2.767M935.309 375.493l-3.239 1.922" stroke-width="1.2573301899999998"/><path d="M946.217 380.112c-1.882-4.334-6.898-6.31-11.203-4.416a8.61 8.61 0 0 0-.202.092" stroke-width="1.2573301899999998"/><path d="M937.33 375.05c-1.884-4.333-6.9-6.31-11.205-4.415a8.29 8.29 0 0 0-.202.091" stroke-width="1.2573301899999998"/><path d="M934.49 375.978a13.41 13.41 0 0 0-.302-.545c-2.305-3.939-6.005-6.046-8.265-4.707M931.264 377.92c-.1-.19-.206-.38-.315-.567-2.305-3.939-6.005-6.046-8.265-4.706-2.259 1.34-2.222 5.618.083 9.557 2.305 3.938 6.006 6.045 8.265 4.706.114-.067.222-.143.326-.227M943.369 381.016c-.094-.175-.191-.35-.292-.522-2.305-3.938-6.006-6.045-8.265-4.706" stroke-width="1.2573301899999998"/><path d="M940.152 382.983c-.1-.192-.205-.381-.314-.568-2.306-3.939-6.006-6.046-8.265-4.707-2.26 1.34-2.222 5.619.083 9.557 2.305 3.939 6.005 6.046 8.264 4.706.107-.063.209-.133.306-.21M943.7 380.85l-2.93 1.708M952.047 395.114l-3.238 1.92-4.017 2.381M954.979 393.376l-6.17 3.658" stroke-width="1.2573301899999998"/><path d="M922.766 382.204l-4.016 2.382 26.042 14.83.017 1.964 10.188-6.04M954.979 393.376l.018 1.964M954.979 393.376l-.74-.423M918.768 386.55l26.04 14.83M918.75 384.586l.018 1.965M932.738 370.55l7.569-4.487M881.553 400.897l39.53-23.436M966.812 459.22l5.89-17.1M951.852 468.123l14.96-8.903M951.852 468.123v-55.82l22.784-13.509" stroke-width="1.2573301899999998"/><path d="M956.133 442.383c-.593-.343-.593-1.457 0-2.488.59-1.03 1.55-1.588 2.14-1.244.592.343.592 1.457 0 2.488-.59 1.03-1.55 1.588-2.14 1.244M972.702 442.12l18.71-11.064M927.217 440.147l17.728-10.301M927.217 437.498l17.728-10.3M927.217 434.852l17.728-10.302M927.217 432.203l17.728-10.301M927.217 429.554l17.728-10.3M927.217 426.908l17.728-10.301M927.217 426.908v13.239M944.945 416.607v13.239M927.217 458.352l17.728-10.301M927.217 455.703l17.728-10.301M927.217 453.056l17.728-10.303M927.217 450.408l17.728-10.301M927.217 447.76l17.728-10.302M927.217 445.113l17.728-10.304M927.217 445.113v13.239M944.945 434.81v13.24M926.097 464.79l7.779-4.518v6.084M926.097 470.875l7.779-4.519M927.344 467.532c-.211-.122-.211-.52 0-.888s.553-.567.764-.444c.212.122.212.52 0 .888-.21.368-.553.567-.764.444M926.097 464.79v6.085M887.452 410.874l27.524 15.674M887.452 438.984l27.524 15.673M887.452 410.874v28.11M914.976 426.548v28.109M883.528 467.512l18.773 10.692.054 6.238M881.688 468.604l18.773 10.69M881.742 474.843l18.773 10.69M900.461 479.294l.054 6.238M881.688 468.604l.054 6.239M900.461 479.294l1.84-1.09M900.515 485.532l1.84-1.09M881.688 468.604l1.84-1.092M1009.152 440.074v-71.807M964.737 342.458l32.912 19.126M1036.679 424.077l12.506-7.266v-71.807M1009.152 368.267l40.033-23.263M1002.526 317.892l46.66 27.112M964.715 339.864l37.811-21.972M981.136 351.986l40.032-23.26M989.658 356.94l40.032-23.264M981.136 351.986v11.228M989.658 356.94v11.228M981.136 363.214l8.522 4.954M1008.525 367.903l.627.364" stroke-width="1.2573301899999998"/><path d="M930.903 268.554l-7.237-4.206M930.91 264.94l-4.132-2.4M928.955 261.654l-1.93 1.05M883.884 296.06l-7.396-4.298M1048.596 238.1c0-5.226-7.29-9.462-16.28-9.462-8.993 0-16.282 4.236-16.282 9.46 0 5.226 7.29 9.462 16.281 9.462 8.992 0 16.281-4.236 16.281-9.461M1048.595 238.1v44.928M1048.596 283.028c0 5.224-7.29 9.46-16.28 9.46-8.993 0-16.282-4.236-16.282-9.461" stroke-width=".9999974999999999"/><path d="M1048.596 246.955c0 5.225-7.29 9.461-16.28 9.461-8.993 0-16.282-4.236-16.282-9.46M1048.596 277.101c0 5.225-7.29 9.461-16.28 9.461-8.993 0-16.282-4.236-16.282-9.46M1019.51 238.9c0-.605.844-1.095 1.885-1.095 1.04 0 1.884.49 1.884 1.094 0 .605-.844 1.095-1.884 1.095s-1.884-.49-1.884-1.095" stroke-width=".9999974999999999"/><path d="M1048.596 249.324c0 5.224-7.29 9.46-16.28 9.46-8.993 0-16.282-4.236-16.282-9.461M1048.596 274.49c0 5.225-7.29 9.46-16.28 9.46-8.993 0-16.282-4.235-16.282-9.46" stroke-width=".9999974999999999"/><path d="M1048.596 251.691c0 5.225-7.29 9.46-16.28 9.46-8.993 0-16.282-4.235-16.282-9.46M1048.596 271.877c0 5.226-7.29 9.462-16.28 9.462-8.993 0-16.282-4.236-16.282-9.461M1016.034 238.1v44.928M1107.157 354.584l32.061-18.63M1060.059 327.215l47.098 27.37V326.3M1139.218 335.953V307.67M1060.059 327.215v-28.283l32.061-18.63M1107.157 326.301l32.061-18.631M1083.607 312.618l32.062-18.632M1110.852 291.188l-32.062 18.63v5.325M1083.607 312.618v5.324M1083.607 312.618l23.55 13.683M1060.059 298.932l18.731 10.887M1078.79 315.143l4.817 2.799M1092.12 280.301l47.098 27.369M1078.79 309.819l4.817 2.799" stroke-width=".9999974999999999"/><path d="M1090.037 322.896v10.575l13.018 7.566M1103.055 330.462v10.575M1090.037 322.896l13.018 7.566M839.59 395.2c0-5.225-7.289-9.46-16.28-9.46-8.992 0-16.281 4.235-16.281 9.46 0 5.225 7.289 9.46 16.28 9.46 8.992 0 16.282-4.235 16.282-9.46M839.59 395.2v44.929M839.59 440.127c0 5.226-7.289 9.462-16.28 9.462-8.992 0-16.281-4.236-16.281-9.461" stroke-width=".9999974999999999"/><path d="M839.59 404.056c0 5.225-7.289 9.461-16.28 9.461-8.992 0-16.281-4.236-16.281-9.46M839.59 434.203c0 5.224-7.289 9.46-16.28 9.46-8.992 0-16.281-4.236-16.281-9.46M810.504 396c0-.604.845-1.094 1.885-1.094s1.884.49 1.884 1.094c0 .605-.843 1.095-1.884 1.095-1.04 0-1.884-.49-1.884-1.095" stroke-width=".9999974999999999"/><path d="M839.59 406.424c0 5.225-7.289 9.46-16.28 9.46-8.992 0-16.281-4.235-16.281-9.46M839.59 431.59c0 5.226-7.289 9.461-16.28 9.461-8.992 0-16.281-4.235-16.281-9.46" stroke-width=".9999974999999999"/><path d="M839.59 408.791c0 5.226-7.289 9.462-16.28 9.462-8.992 0-16.281-4.236-16.281-9.461M839.59 428.979c0 5.225-7.289 9.46-16.28 9.46-8.992 0-16.281-4.235-16.281-9.46M807.028 395.2v44.929M853.742 228.507c0 2-2.79 3.622-6.234 3.622-3.443 0-6.234-1.622-6.234-3.623M846.206 202.849l-4.933 6.278v19.38M853.74 209.127v19.38M848.81 201.881c0-.416-.583-.755-1.302-.755-.719 0-1.301.339-1.301.756 0 .418.582.756 1.301.756s1.301-.338 1.301-.756M848.81 202.849c0 .417-.583.756-1.302.756-.719 0-1.301-.339-1.301-.757M848.81 202.849l4.93 6.278M848.81 201.883v.966M863.318 222.943c0 2-2.792 3.622-6.235 3.622-1.183 0-2.342-.196-3.34-.564M846.206 201.883v.966M850.848 203.562v1.883M863.316 203.562v19.38M855.781 197.285l-4.933 6.277M858.384 196.318c0-.418-.582-.756-1.3-.756-.72 0-1.302.338-1.302.756s.583.756 1.301.756c.72 0 1.302-.338 1.302-.756M858.384 197.285c0 .417-.582.755-1.3.755-.72 0-1.302-.338-1.302-.756M858.384 197.285l4.932 6.277M858.384 196.32v.965M855.781 196.32v.965M841.273 218.745l-25.061 14.563M975.818 164.825V182.1M968.026 169.663c0 1.25 1.745 2.264 3.897 2.264 2.152 0 3.896-1.013 3.896-2.264M968.026 164.824c0-1.25 1.745-2.264 3.897-2.264 2.152 0 3.896 1.014 3.896 2.264 0 1.25-1.744 2.264-3.896 2.264s-3.896-1.013-3.896-2.264M968.026 182.1c0 1.25 1.745 2.263 3.897 2.263 2.152 0 3.896-1.014 3.896-2.264M968.026 164.825V182.1M968.343 163.93l-14.338-7.732" stroke-width=".9999974999999999"/><path d="M1040.355 375.616v20.912l-8.025 4.662v-20.912M1040.355 375.616l-8.025 4.662" stroke-width="1.2573301899999998"/><path d="M752.844 291.588l-5.871-3.39M555.622 267.703l40.22 23.221M603.057 291.015L838.3 155.087M595.841 290.902v40.128M595.841 331.028c0 1.151 1.616 2.084 3.609 2.084 1.993 0 3.608-.933 3.608-2.083M603.057 290.902v40.128M595.841 250.887v40.128M603.057 250.887v40.128M548.406 303.755c0 1.15 1.616 2.083 3.608 2.083 1.993 0 3.608-.933 3.608-2.083M548.406 263.628v40.128M555.622 267.681v36.075M548.406 223.5v40.128M555.622 223.5v44.181M838.3 191.046c0 1.15 1.615 2.083 3.608 2.083 1.992 0 3.608-.933 3.608-2.083M845.515 150.92v40.126M838.299 110.903v40.128M845.515 110.903v40.128M555.622 259.44l15.296-8.879M838.299 155.087v35.959M548.406 183.26v40.127M555.622 183.26v40.127M595.841 210.76v40.127M603.057 210.76v40.127M790.864 43.276v2.083M798.08 43.276v1.935M838.299 68.694v40.126M845.515 68.694v40.126M555.622 185.351l40.22 23.317M603.057 208.646L838.3 70.807M838.299 66.76l-41.183-22.066M555.622 143.13c0-1.15-1.615-2.082-3.608-2.082-1.992 0-3.608.933-3.608 2.083 0 1.15 1.616 2.083 3.608 2.083 1.993 0 3.608-.932 3.608-2.083M791.92 44.75l-2.037 1.176M555.622 143.132v40.128M603.057 170.631c0-1.15-1.614-2.083-3.607-2.083s-3.608.933-3.608 2.083c0 1.15 1.615 2.083 3.608 2.083s3.608-.932 3.608-2.083M548.406 143.132v40.128M603.057 170.631v40.128M798.08 3.148c0-1.15-1.615-2.083-3.608-2.083s-3.608.933-3.608 2.083c0 1.15 1.615 2.083 3.608 2.083s3.608-.932 3.608-2.083M595.841 170.631v40.128M798.08 3.148v40.128M845.516 28.564c0-1.15-1.616-2.082-3.608-2.082-1.993 0-3.608.932-3.608 2.083 0 1.15 1.615 2.083 3.608 2.083 1.992 0 3.608-.933 3.608-2.083M790.864 3.148v40.128M845.515 28.566v40.128M790.864 43.276c0 1.15 1.615 2.083 3.608 2.083s3.608-.933 3.608-2.083M838.299 28.566v40.128M845.515 110.903v-2.083M838.299 108.82v2.083M838.299 155.087v-4.056M838.299 110.903L603.057 246.721M838.299 66.76L603.057 202.576M838.299 106.718L603.057 242.535M827.894 100.684l10.405 6.034M838.299 150.956L603.057 286.774M838.299 150.956l-11.408-6.585M555.622 263.484l40.22 23.221M555.622 223.523l40.22 23.22M555.622 219.337l40.22 23.22M555.622 219.337l28.598-16.512M555.622 179.283l40.22 23.316M603.057 270.951l-32.134-18.428M650.102 243.606l-47.045 27.345M570.923 252.523l-.059-20.2M650.102 243.606l-.07-24.007M631.321 230.403v1.256M626.51 233.18v1.275M631.324 231.659l-4.81 2.796M620.096 239.4l.03 10.513-13.004 7.558M607.09 246.958l.032 10.513M620.096 239.4l-13.005 7.558M694.366 220.69l-23.856 13.773-20.469-11.817M670.51 234.463v-17.76M694.366 220.69v-17.76l-23.856 13.773M684.326 208.726v3.456M681.156 210.556v3.456" stroke-width=".9999974999999999"/><path d="M691.792 209.67v7.057l-5.506 3.18M686.286 212.85v7.057M691.792 209.67l-5.506 3.18M750.872 161.38v30.757l-32.634 18.84-23.872-13.782M718.238 180.22v30.757M740.545 167.342v1.451M734.555 170.801v1.451M740.545 168.793l-5.99 3.46" stroke-width=".9999974999999999"/><path d="M730.528 173.974v11.056l-9.504 5.488M721.024 179.462v11.056M730.528 173.974l-9.504 5.488M797.876 134.243v29.69l-32.633 18.842-14.371-8.299M765.243 153.083v29.692M787.55 140.204v.387M781.56 143.662v.387M787.55 140.591l-5.99 3.458" stroke-width=".9999974999999999"/><path d="M777.532 145.988v10.839l-9.504 5.488M768.028 151.475v10.84M826.89 146.63l-23.857 13.774-5.157-2.979M803.033 160.404v-24.44M826.89 146.63v-24.44l-23.857 13.774M826.89 122.19l-4.07-2.349zM803.033 135.964l-4.07-2.35zM816.85 127.987l-4.07-2.35M813.681 129.817l-4.07-2.35M816.85 127.987v3.456M813.681 129.817v3.456M816.85 131.443l-3.169 1.83" stroke-width=".9999974999999999"/><path d="M824.316 128.93v7.058l-5.505 3.18M818.81 132.108v7.06M824.316 128.93l-5.505 3.178M632.69 216.563l-23.858 13.774-5.775-3.334M608.832 230.337v-25.075M584.22 216.127v-14.196M632.69 216.563v-25.28M632.69 192.123l-.724-.416M622.648 197.166v4.211M619.48 199.023v4.183M622.648 201.377l-3.168 1.829M630.115 198.863v7.058l-5.506 3.18M624.61 202.043v7.057M630.115 198.863l-5.506 3.18M646.55 192.846v16.643l16.7-9.642M646.55 192.846v-9.685M663.25 199.847l8.25-4.763M671.5 178.441v16.643M671.5 178.441v-9.9M646.55 209.49l-13.86-8.004" stroke-width=".9999974999999999"/><path d="M649.824 182.139v21.964l19.28-11.13M669.104 171.007v21.965M643.998 184.657v19.723l-11.309-6.53M649.824 182.139l19.28 10.833M649.824 204.103l19.28-33.096M682.854 187.782l-11.354-6.51M729.899 160.436l-47.045 27.346-.075-25.848M729.899 160.436l-.075-26.069M711.112 145.332l.013 3.157M706.3 148.151l.014 3.135M711.121 148.49l-4.81 2.796" stroke-width=".9999974999999999"/><path d="M699.892 156.23l.031 10.513-13.005 7.559M686.888 163.788l.03 10.514M699.892 156.23l-13.004 7.558M774.888 107.963v28.587l-32.632 18.84-12.392-7.155M742.256 127.084v28.306" stroke-width=".9999974999999999"/><path d="M754.544 119.883v9.56l-9.504 5.486M745.04 125.452v9.477M780.854 129.852l-5.966-3.42M827.899 102.508l-47.045 27.344-.073-25.342M827.899 102.508l-.073-25.563M809.113 87.915l.014 2.646M804.302 90.71l.013 2.648M809.121 90.561l-4.81 2.797" stroke-width=".9999974999999999"/><path d="M797.89 98.3l.033 10.514-13.005 7.558M784.888 105.859l.03 10.513M797.89 98.3l-13.002 7.559M635.432 189.676l8.566 14.704M633.824 169.796l-16.7 9.642-14.217-8.21M617.125 179.438v-17.109M599.897 168.564v-16.18M633.824 169.796v-17.109M616.597 142.742l-16.7 9.641M633.824 152.687l-16.7 9.642M633.824 152.687l-17.227-9.945M617.125 162.33l-17.228-9.947M626.796 156.747l-17.228-9.948M624.577 158.027l-17.227-9.948M626.796 156.747v2.419M624.577 158.027v2.419M626.796 159.166l-2.219 1.28M632.022 157.406v4.94l-3.854 2.226M628.168 159.631v4.941M632.022 157.406l-3.854 2.225M686.17 142.02l-16.7 9.642-17.227-9.947M669.47 151.662v-17.107M652.243 141.715v-17.108M686.17 142.02v-17.107M668.944 114.966l-16.701 9.641M686.17 124.913l-16.7 9.642M686.17 124.913l-17.226-9.947M669.47 134.555l-17.227-9.948M679.142 128.97l-17.227-9.947M676.924 130.25l-17.228-9.945M679.142 128.97v2.42M676.924 130.25v2.42M679.142 131.39l-2.218 1.28M684.368 129.63v4.94l-3.853 2.226M680.515 131.855v4.941M684.368 129.63l-3.853 2.225M739.318 87.939v25.964l-22.843 13.188-26.94-15.554M716.475 101.126v25.965M689.536 85.572v25.965M716.475 101.126l-26.94-15.554M739.318 87.939l-26.94-15.554M739.318 87.939l-22.843 13.187M712.379 72.385l-22.843 13.187M705.152 76.558L732.09 92.11M727.897 94.532L700.958 78.98M732.09 92.111v5.452M727.897 94.532v5.451M732.09 97.563l-4.193 2.42" stroke-width=".9999974999999999"/><path d="M725.078 101.188v7.74l-6.654 3.841M718.424 105.03v7.74M725.078 101.188l-6.654 3.842M773.094 93.974l-22.493-12.9M806.027 74.833l-32.933 19.14-.056-19.68M750.601 81.075l-.057-19.682M806.027 74.833l-.057-19.682-22.495-12.9M773.038 74.292l-22.494-12.899M789.504 64.721l-22.495-12.9M770.377 49.865l22.495 12.9.013 3.705M789.504 64.721l.013 3.706M789.504 64.721l-16.466 9.571M805.97 55.151l-13.098 7.613M792.881 66.47l-3.368 1.957M783.475 42.25l-32.931 19.143M792.872 62.764l-3.368 1.957" stroke-width=".9999974999999999"/><path d="M785.02 71.887l.023 7.36-9.102 5.292M775.918 77.179l.023 7.36M785.02 71.887l-9.102 5.292M599.897 155.614l-44.275 25.563M652.243 125.391l-32.848 18.967M689.536 103.86l-19.914 11.498M750.564 68.627l-22.347 12.902M694.366 197.195l-2.763-1.596M681.156 214.012l3.17-1.83M670.51 216.703l-7.731-4.462M694.366 202.93l-7.73-4.463M595.841 222.836l-11.62-6.709M535.988 527.493l49.378-28.509M535.988 527.493l-35.726-20.627M538.324 490.845l54.317-31.36M538.324 490.845L432.61 429.81M585.366 463.685v35.3M535.988 489.496v37.997M439.884 434.01v37.996M447.66 438.5v37.998l-7.776-4.492M447.66 476.498l32.906-19M538.324 486.666L432.61 425.632M538.324 486.666l50.863-29.365M538.324 486.666v4.179M592.641 455.307v4.178M432.61 425.632v4.178M432.61 425.632l16.034-9.258M592.641 455.307l-13.865-8.006M500.262 468.869v37.997M439.118 368.589l3.051-1.762M439.118 368.589l-1.384 11.806M446.556 374.89l-4.987 4.296-1.509-.87M445.048 374.02l-4.988 4.295M446.556 374.89l-1.508-.87M449.302 376.475l-4.987 4.296-1.51-.87M447.793 375.605l-4.987 4.296M449.302 376.475l-1.509-.87M452.048 378.06l-4.988 4.297-1.507-.872M450.539 377.19l-4.986 4.295M452.048 378.06l-1.51-.87M454.795 379.646l-4.987 4.296-1.51-.872M453.286 378.774l-4.987 4.296M454.795 379.646l-1.51-.872M457.54 381.232l-4.987 4.296-1.509-.872M456.032 380.36l-4.988 4.296M457.54 381.232l-1.508-.872M493.475 399.971l-54.357-31.382M496.526 398.21l-54.357-31.383M484.715 437.198l-46.981-27.123M464.708 414.829c1.924-1.11 1.924-4.712 0-8.044-1.924-3.333-5.043-5.133-6.967-4.023-1.924 1.111-1.924 4.713 0 8.045 1.924 3.333 5.043 5.133 6.967 4.023M484.715 407.518l-46.981-27.123M493.475 399.971v40.688M496.526 398.21v40.688M493.475 399.971l3.05-1.761M493.475 440.66l3.05-1.762M493.475 399.971l-8.76 7.547v29.68l8.76 3.461M489.094 399.45l-4.987 4.296M489.094 399.45l-1.509-.872M484.107 403.746l-1.51-.872M487.585 398.578l-4.987 4.296M486.348 397.864l-4.987 4.296-1.509-.87M484.84 396.994l-4.988 4.296M486.348 397.864l-1.508-.87M483.603 396.278l-4.987 4.296-1.51-.87M482.094 395.408l-4.987 4.296M483.603 396.278l-1.51-.87M480.857 394.693l-4.987 4.296-1.509-.87M479.348 393.822l-4.987 4.296M480.857 394.693l-1.509-.87M478.11 393.107l-4.986 4.296-1.508-.87M476.601 392.237l-4.985 4.296M478.11 393.107l-1.509-.87M464.443 425.494v10.557M458.006 421.78v10.554M464.443 436.051l-6.437-3.717" stroke-width=".9999974999999999"/><path d="M465.404 416.037c2.31-1.334 2.31-5.656 0-9.654-2.308-4-6.051-6.16-8.36-4.827-2.309 1.332-2.309 5.655 0 9.653 2.309 4 6.052 6.16 8.36 4.827M464.443 436.051l2.601-1.502v-7.552M464.041 438.022l-9.45-5.456M464.041 439.731l-9.45-5.456M454.593 434.275c-1.884-1.087-2.943-2.563-2.943-4.1M451.65 430.174v-1.708M454.593 432.566c-1.884-1.088-2.943-2.563-2.943-4.101 0-2.381 2.52-4.52 6.356-5.395M480.998 435.051c-.936 2.714-5.061 4.669-9.853 4.669-2.665 0-5.22-.611-7.104-1.699" stroke-width=".9999974999999999"/><path d="M481.155 435.142c.024.163.035.325.035.487 0 3.203-4.497 5.8-10.045 5.8-2.665 0-5.22-.611-7.104-1.699M461.224 423.637v10.555M437.734 380.395v29.68M501.435 429.898l10.667-6.159-15.576-8.992M501.435 431.275l10.667-6.158M512.102 423.74v1.377M501.435 429.898l-4.91-2.836M501.435 431.275l-4.91-2.833M501.435 429.898v1.377" stroke-width=".9999974999999999"/><path d="M510.092 423.803l-1.11.642-1.115-.643" stroke-width=".9999974999999999"/><path d="M510.092 423.803l-1.115-.643-1.11.642M508.364 424.802l-1.11.641-1.115-.645M508.364 424.802l-1.115-.644-1.11.64M506.636 425.798l-1.11.642-1.115-.643" stroke-width=".9999974999999999"/><path d="M506.636 425.798l-1.115-.643-1.11.642M504.908 426.797l-1.11.641-1.115-.644" stroke-width=".9999974999999999"/><path d="M504.908 426.797l-1.115-.643-1.11.64M503.18 427.795l-1.11.64-1.115-.643" stroke-width=".9999974999999999"/><path d="M503.18 427.795l-1.115-.645-1.11.642M501.49 426.106l-1.116-.645M501.484 424.82l-1.11.64M500.872 426.462l-1.11.64-1.116-.643" stroke-width=".9999974999999999"/><path d="M500.872 426.462l-1.116-.644-1.11.641M503.217 425.107l-1.115-.643M503.212 423.822l-1.11.642M502.6 425.464l-1.11.642M502.6 425.464l-1.116-.643M504.945 424.11l-1.115-.644M504.328 424.466l-1.11.641M504.328 424.466l-1.116-.644M506.673 423.112l-1.115-.643M506.056 423.469l-1.11.641M506.056 423.469l-1.116-.643-1.11.64M506.668 421.827l-1.11.642M507.784 422.47l-1.11.642M507.784 422.47l-1.116-.643M499.18 424.773l-1.115-.645M499.177 423.488l-1.112.64M498.563 425.13l-1.11.64-.927-.535M498.563 425.13l-1.115-.645-.922.533M500.29 424.131l-1.11.642M500.29 424.131l-1.113-.643M500.908 423.774l-1.115-.643M500.905 422.49l-1.112.641M502.019 423.133l-1.11.641M502.019 423.133l-1.114-.643M502.636 422.778l-1.113-.645M503.747 422.136l-1.11.642M503.747 422.136l-1.114-.643-1.11.64M504.364 421.78l-1.113-.644M504.361 420.494l-1.11.642M505.475 421.138l-1.11.641M505.475 421.138l-1.114-.644M496.872 423.44l-.346-.2M496.868 422.155l-.342.197M497.982 422.798l-1.11.642M497.982 422.798l-1.114-.643M498.6 422.442l-1.114-.644M498.596 421.157l-1.11.641M499.71 421.8l-1.11.642M499.71 421.8l-1.114-.643M500.328 421.445l-1.114-.645M501.44 420.803l-1.112.642M501.44 420.803l-1.116-.643-1.11.64M502.056 420.446l-1.114-.643M502.052 419.162l-1.11.641M503.168 419.805l-1.112.641M503.168 419.805l-1.116-.643M497.403 420.467l-.877.506M497.403 420.467l-.877-.505M498.02 420.112l-1.115-.645M499.13 419.47l-1.11.642M499.13 419.47l-1.114-.643-1.11.64M499.748 419.114l-1.115-.644M499.744 417.829l-1.11.641M500.859 418.472l-1.11.642M500.859 418.472l-1.115-.643M496.822 418.138l-.296.17M496.822 418.138l-.296-.172M497.44 417.78l-.914-.526M497.435 416.496l-.91.525M498.55 417.14l-1.11.64M498.55 417.14l-1.115-.644M536.65 463.714l-15.372-8.876M536.65 458.003l-15.372-8.875M560.72 447.25l-2.714-1.576M560.72 447.25v2.568M521.278 449.128v5.71M536.65 458.003v5.71M536.65 473.237l-15.372-8.875M536.65 467.526l-15.372-8.875M560.72 456.773l-2.714-1.576M521.278 458.651v5.71M560.72 456.773v2.568M536.65 467.526v5.71M536.65 483.592l24.07-13.896M536.65 483.592l-15.372-8.875M536.65 477.882l-15.372-8.876M560.72 467.128l-2.714-1.576M521.278 469.006v5.71M560.72 467.128v2.568M536.65 477.882v5.71M548.684 476.643v-30.657M521.278 469.006l4.022-2.321M558.006 465.552l-4.022-2.323M521.278 458.651l3.302-1.905M558.006 455.197l-3.302-1.907M544.763 478.909v-30.66M548.684 456.765l12.036-6.947M536.65 463.714l8.113-4.684M548.684 460.578l9.322-5.381M548.684 466.288l12.036-6.947M536.65 467.526l8.113-4.683M536.65 473.237l8.113-4.683M548.684 470.933l9.322-5.38M536.65 477.882l8.113-4.684M548.684 451.056l9.322-5.382M536.65 458.003l8.113-4.683M544.763 448.25l-13.634-7.87M544.763 448.25l3.921-2.264-13.633-7.872M531.13 440.38l3.92-2.266M537.704 439.645l4.93-2.847M521.278 449.128l12.502-7.218M531.13 440.38v3.062M545.347 438.374l-2.712-1.576M558.006 445.674l-15.371-8.876M589.187 457.3l3.454-1.993M580.316 454.41c0 2.446-3.435 4.429-7.671 4.429-4.237 0-7.67-1.983-7.67-4.429M580.315 451.712v2.7M564.974 451.712v2.7M578.656 452.982c0 .734-1.031 1.33-2.302 1.33-1.271 0-2.302-.596-2.302-1.33M578.654 451.086v1.898M569.05 449.872c0-.366-.514-.664-1.15-.664-.635 0-1.15.298-1.15.665 0 .366.515.664 1.15.664.636 0 1.151-.298 1.151-.664M574.052 451.086v1.898" stroke-width=".9999974999999999"/><path d="M569.05 450.277c0 .367-.514.665-1.15.665-.635 0-1.15-.298-1.15-.665M569.05 449.874v.404M555.059 414.88c-3.73.4-6.193 5.96-5.503 12.418.691 6.46 4.274 11.373 8.004 10.974.56-.06 1.106-.24 1.624-.538M566.75 449.874v.404M570.17 420.494c-1.24-2.714-3.158-4.263-5.035-4.062-2.9.31-4.816 4.634-4.279 9.658.537 5.024 3.324 8.846 6.225 8.535 1.876-.2 3.425-2.12 4.062-5.034" stroke-width=".9999974999999999"/><path d="M565.622 420.98c-1.45.155-2.409 2.317-2.14 4.83.269 2.511 1.662 4.422 3.112 4.267M567.08 434.626l-7.896 3.108M571.632 420.338c-1.451.155-2.41 2.317-2.14 4.829.268 2.512 1.661 4.422 3.112 4.267M572.603 429.435l-6.01.643M575.195 421.797c.87-.093 1.705 1.053 1.866 2.56.162 1.508-.413 2.805-1.283 2.898-.87.093-1.707-1.054-1.868-2.56-.16-1.508.414-2.805 1.284-2.898M571.63 420.338l-6.01.643M571.63 420.338l4.018 1.521M575.777 427.256l-3.174 2.18M574.748 451.085c1.553-6.977 3.107-13.954 0-19.306M574.748 431.78c-.514-.886-1.155-1.726-1.85-2.548" stroke-width=".9999974999999999"/><path d="M578.457 448.822c1.2.804 1.859 1.83 1.859 2.89 0 2.446-3.435 4.428-7.671 4.428-4.237 0-7.67-1.982-7.67-4.428 0-2.446 3.433-4.429 7.67-4.429.98 0 1.95.108 2.859.32M577.96 451.085c1.552-6.977 3.106-13.954 0-19.306M577.96 431.78c-.803-1.383-1.917-2.658-3.063-3.92" stroke-width=".9999974999999999"/><path d="M577.96 451.085c0 .512-.72.927-1.606.927-.887 0-1.606-.415-1.606-.927" stroke-width=".9999974999999999"/><path d="M578.145 450.251c.33.236.51.53.51.834 0 .734-1.03 1.329-2.301 1.329-1.271 0-2.302-.595-2.302-1.329 0-.42.347-.817.933-1.068M565.134 416.432l-10.077-1.55M575.884 445.632l-14.904-8.605M507.641 439.525c0-1.691 2.375-3.062 5.303-3.062s5.302 1.37 5.302 3.062c0 1.69-2.374 3.06-5.302 3.06-2.928 0-5.302-1.37-5.302-3.06M550.26 430.838l-53.734-31.024M518.244 439.525v7.18M507.641 446.702c0 1.692 2.375 3.062 5.303 3.062s5.302-1.37 5.302-3.06" stroke-width=".9999974999999999"/><path d="M507.641 441.637c0 1.69 2.375 3.06 5.303 3.06s5.302-1.37 5.302-3.06M507.641 439.525v7.18" stroke-width=".9999974999999999"/><path d="M276.338 430.245l-36.006 20.802M233.872 451.128l-81.966-47.392M240.332 451.027v35.947M240.334 486.974c0 1.03-1.447 1.865-3.231 1.865-1.784 0-3.23-.835-3.23-1.866M233.872 451.027v35.947M240.332 415.181v35.947M233.872 415.181v35.947M282.798 426.595v5.042M276.338 430.225v4.986M282.798 390.647v35.948M276.338 390.647v39.578M23.273 361.574c0 1.031-1.445 1.867-3.229 1.867s-3.23-.836-3.23-1.866M16.813 325.629v35.947M23.273 289.783v35.946M16.813 289.783v35.946M276.338 422.842l-11.304-6.566M23.273 329.362v32.214M282.798 354.6v35.947M276.338 354.6v35.947M240.332 379.234v35.947M233.872 379.234v35.947M23.273 251.97v35.947M16.813 251.97v35.947M276.338 356.473l-36.006 20.888M233.872 377.34L23.273 253.864M23.273 250.238l23.831-12.777M276.34 318.653c0-1.031 1.445-1.867 3.23-1.867 1.783 0 3.23.836 3.23 1.866 0 1.03-1.447 1.866-3.23 1.866-1.785 0-3.23-.835-3.23-1.866M91.672 246.048l6.169 3.564M276.338 318.653V354.6M233.872 343.287c0-1.03 1.447-1.866 3.23-1.866 1.785 0 3.23.835 3.23 1.866 0 1.03-1.445 1.866-3.23 1.866-1.783 0-3.23-.836-3.23-1.866M282.798 318.653V354.6M233.872 343.287v35.947M59.28 193.253c0-1.03 1.447-1.866 3.23-1.866 1.784 0 3.23.836 3.23 1.867 0 1.03-1.446 1.866-3.23 1.866-1.783 0-3.23-.836-3.23-1.866M240.332 343.287v35.947M59.28 193.255v30.361M16.813 216.023c0-1.031 1.447-1.867 3.231-1.867 1.784 0 3.23.836 3.23 1.866 0 1.03-1.446 1.866-3.23 1.866s-3.23-.835-3.23-1.866M65.74 193.255v26.63M16.813 216.023v35.947M23.273 216.023v35.947M16.813 289.783v-1.866M23.273 287.917v1.866M23.273 329.362v-3.633M23.273 250.238l210.6 121.666M23.273 286.034l210.6 121.665M36.16 278.555l-12.887 7.479M23.273 325.662l102.634 59.294M23.273 325.662l11.692-6.754M276.338 426.467l-36.006 20.801M276.338 390.667l-36.006 20.802M276.338 386.918l-36.006 20.801M276.338 386.918l-10.854-6.272M276.338 351.037l-36.006 20.887M56.402 323.335v14.908M56.402 323.335v-11.978l2.108-1.218M56.402 338.243L34.947 325.85M34.947 310.942v14.907M34.947 310.942v-11.978l21.455 12.393M37.056 297.745l-2.109 1.219M59.297 311.247v33.228M54.116 313.99v19.677l-17.26-9.97M36.857 304.02v19.677" stroke-width="1.09999725"/><path d="M54.116 313.99l-17.26-9.97 17.26 29.647M36.857 323.697l17.259-9.707M59.297 344.475l29.215 16.879 15.848-9.156M88.512 327.472v33.882M68.541 316.587v6.978M73.904 319.686v6.976M68.541 323.565l5.363 3.097M77.51 328.206v9.902l8.508 4.917M86.018 333.12v9.905M77.51 328.206l8.508 4.915M104.36 366.253l21.357 12.339 16.022-9.256M125.717 378.592v-21.894M125.717 378.592l16.022-9.256" stroke-width="1.09999725"/><path d="M104.36 366.253V344.36l21.357 12.338-21.357-12.338 6.692-3.867-6.692 3.867 6.692-3.867M125.717 356.698l6.692-3.865-6.692 3.865 6.692-3.865" stroke-width="1.09999725"/><path d="M115.555 356.731v7.018l8.437 4.873M123.992 361.606v7.016M115.555 356.731l8.437 4.875M113.348 349.553l6.692-3.867M116.185 351.192l6.693-3.866M113.348 349.553v3.096M116.185 351.192v3.095M113.348 352.65l2.837 1.637M183.928 408.43l10.198-5.892M151.9 389.926l32.028 18.504v-25.187M141.74 382.168V358.87M158.52 367.91v4.74M162.834 370.402v4.741M158.52 372.65l4.314 2.493M158.52 367.91l4.314 2.492" stroke-width="1.09999725"/><path d="M168.592 380.21v9.418l11.661 6.737M180.253 386.947v9.418M168.592 380.21l11.661 6.737M240.332 436.342l24.702-14.27M194.126 414.29l39.746 22.963M265.034 422.071V397.2M194.126 414.29v-25.188M210.907 398.18v5.358M215.22 401.29v4.741M215.754 400.981l18.118 10.468M210.907 403.538l4.314 2.493M23.273 289.783l192.48 111.198M220.98 410.443v9.418l11.66 6.738M232.64 417.18v9.419M220.98 410.443l11.66 6.738M56.402 338.243l2.895-1.673M36.16 287.511l21.356 12.34 10.842-6.265M57.516 299.85v-21.893M36.16 287.511v-21.893l21.356 12.34M36.16 265.618l3.606-2.084zM57.516 277.957l3.45-1.994M45.148 270.81l3.542-2.045M47.985 272.45l3.52-2.034M45.148 270.81v3.097M47.985 272.45v3.096M45.148 273.907l2.837 1.64" stroke-width="1.09999725"/><path d="M38.464 271.656v6.323l4.929 2.848M43.393 274.504v6.323M38.464 271.656l4.929 2.848M110.548 330.068l13.069-7.552M68.358 305.694l42.19 24.374v-25.034M68.358 305.694v-25.187l.18-.105M89.453 292.693l.022-.013M85.194 290.169l-.056.031v4.743M89.453 292.693v4.743M85.138 294.943l4.315 2.493" stroke-width="1.09999725"/><path d="M95.211 301.847v9.419l11.663 6.736M106.874 308.584v9.418M95.211 301.847l11.663 6.737M123.617 312.697v25.725l29.215 16.877 12.146-7.017M152.832 329.825V355.3" stroke-width="1.09999725"/><path d="M141.83 323.375v8.68l8.508 4.917M150.338 328.363v8.609M164.978 360.713l21.359 12.34 8.237-4.76M186.337 373.052v-17.321M186.337 373.052l8.237-4.76M164.978 360.713v-17.32l21.359 12.338-21.359-12.338M173.968 348.586v3.096M176.804 350.224v3.096M173.968 351.682l2.836 1.638" stroke-width="1.09999725"/><path d="M167.283 349.43v6.324l4.93 2.846M172.213 352.278v6.322M167.283 349.43l4.93 2.848M240.332 398.879l25.152-14.53M194.574 376.568l39.298 22.702M265.484 384.35V362.77M194.574 376.568V354.3M211.355 364.139v1.678M215.67 366.668v1.641M211.355 365.817l4.314 2.492M221.427 372.721v9.418l11.663 6.737M233.09 379.458v9.418M221.427 372.721l11.663 6.737M112.105 293.157l20.069-11.673M82.523 276.183l29.582 16.974-.052-17.63M132.174 281.484l-.052-17.63M82.523 276.183l-.051-17.631 20.07-11.673M112.053 275.526l20.07-11.673M97.262 267.038l20.07-11.673M114.308 253.63l-20.071 11.672.012 3.32M97.262 267.038l.012 3.32M97.262 267.038l14.791 8.488M82.471 258.552l11.766 6.75M94.247 268.622l3.025 1.736M102.542 246.879l29.58 16.974M94.237 265.302l3.025 1.736" stroke-width="1.09999725"/><path d="M101.312 273.435l.02 6.592 8.176 4.692M109.49 278.126l.018 6.593M101.312 273.435l8.177 4.691M183.433 325.796l14.95 8.637 15.424-8.91M198.383 334.433V319.11M213.807 325.523v-15.325M183.433 325.796V310.47M198.856 301.56l14.951 8.638M183.433 310.47l14.95 8.639M183.433 310.47l15.423-8.91M198.383 319.109l15.424-8.911M189.726 314.106l15.422-8.91M191.711 315.253l15.423-8.91M189.726 314.106v2.167M191.711 315.253v2.167M189.726 316.273l1.985 1.147M185.046 314.697v4.426l3.45 1.994M188.497 316.69v4.427M185.046 314.697l3.45 1.994M47.104 230.651v23.26l20.45 11.813 24.118-13.933M67.554 242.464v23.26M91.672 228.531v23.26M67.554 242.464l24.118-13.933M47.104 230.651l24.117-13.933M47.104 230.651l20.45 11.813M71.221 216.718l20.45 11.813M77.691 220.456l-24.117 13.933M57.329 236.558l24.117-13.933M53.574 234.39v4.882M57.329 236.558v4.883M53.574 239.272l3.755 2.169" stroke-width="1.09999725"/><path d="M59.852 242.52v6.933l5.956 3.441M65.808 245.962v6.932M59.852 242.52l5.956 3.442M132.14 269.428l11.428 6.603M213.807 316.607l62.531 36.127M164.978 343.393l5.538-3.2M173.968 348.586l5.47-3.16M176.804 350.224l5.45-3.147M186.337 355.73l5.378-3.107M141.74 358.87v-.655M183.928 383.243v-.655M215.22 401.29v-.64M194.126 389.102v-.607M59.297 311.247v-.644M68.541 316.587v-.652M73.904 319.686v-.653M151.906 390.197c0-4.653-6.528-8.425-14.583-8.425-8.054 0-14.583 3.772-14.583 8.425 0 4.653 6.53 8.425 14.583 8.425 8.055 0 14.584-3.772 14.584-8.425M151.906 390.197v40.01M151.906 430.208c0 4.653-6.528 8.425-14.583 8.425-8.054 0-14.583-3.772-14.583-8.425" stroke-width="1.09999725"/><path d="M151.906 398.085c0 4.652-6.528 8.424-14.583 8.424-8.054 0-14.583-3.772-14.583-8.425M151.906 424.93c0 4.654-6.528 8.426-14.583 8.426-8.054 0-14.583-3.772-14.583-8.425M125.854 390.91c0-.538.755-.975 1.687-.975s1.688.437 1.688.975c0 .539-.756.975-1.688.975-.932 0-1.687-.436-1.687-.975" stroke-width="1.09999725"/><path d="M151.906 400.193c0 4.653-6.528 8.425-14.583 8.425-8.054 0-14.583-3.772-14.583-8.425M151.906 422.604c0 4.654-6.528 8.426-14.583 8.426-8.054 0-14.583-3.772-14.583-8.425" stroke-width="1.09999725"/><path d="M151.906 402.302c0 4.652-6.528 8.425-14.583 8.425-8.054 0-14.583-3.773-14.583-8.426M151.906 420.28c0 4.652-6.528 8.424-14.583 8.424-8.054 0-14.583-3.772-14.583-8.425M122.739 390.197v40.01M123.59 387.364L23.273 329.362M151.906 399.975l81.966 47.354M166.62 311.546c0 1.782 2.5 3.227 5.584 3.227 3.084 0 5.584-1.445 5.584-3.226" stroke-width="1.09999725"/><path d="M173.37 288.698l4.417 5.59v17.26M166.619 294.288v17.26M171.039 287.837c0-.372.521-.674 1.165-.674s1.166.302 1.166.674c0 .371-.522.673-1.166.673-.644 0-1.166-.302-1.166-.673M171.039 288.697c0 .372.521.673 1.165.673s1.166-.301 1.166-.673M171.037 288.698l-4.418 5.59M171.037 287.837v.861M158.043 306.592c0 1.781 2.5 3.225 5.584 3.225 1.06 0 2.098-.174 2.993-.502M173.37 287.837v.861M169.21 289.333v1.677M158.041 289.333v17.259M164.792 283.742l4.418 5.591M162.462 282.882c0-.373.521-.674 1.165-.674s1.165.301 1.165.673c0 .372-.521.674-1.165.674s-1.166-.302-1.166-.674M162.462 283.742c0 .372.521.673 1.165.673s1.165-.301 1.165-.673M162.46 283.742l-4.419 5.591M162.46 282.882v.86M149.466 301.637c0 1.78 2.5 3.225 5.584 3.225 1.06 0 2.098-.174 2.993-.502M164.792 282.882v.86M160.633 284.378v1.677M140.888 296.682c0 1.78 2.5 3.225 5.585 3.225 1.06 0 2.098-.174 2.993-.502M149.464 284.378v17.259M152.055 279.422v1.677M140.887 279.422v17.26M147.638 273.832l4.417 5.59M145.307 272.97c0-.37.522-.672 1.166-.672.643 0 1.165.301 1.165.673 0 .372-.522.673-1.165.673-.644 0-1.166-.301-1.166-.673M145.307 273.832c0 .371.522.673 1.166.673.643 0 1.165-.302 1.165-.674M145.306 273.832l-4.419 5.59M145.306 272.972v.86M147.638 272.972v.86M177.787 295.799l15.521 8.967M156.215 278.787l4.418 5.591M153.885 277.926c0-.372.521-.673 1.165-.673.643 0 1.165.301 1.165.673 0 .372-.522.674-1.165.674-.644 0-1.166-.302-1.166-.674M153.885 278.787c0 .372.521.673 1.165.673.643 0 1.165-.301 1.165-.673M153.883 278.787l-4.419 5.591M153.883 277.927v.86M156.215 277.927v.86M490.555 232.168c0-4.654-6.53-8.426-14.584-8.426-8.054 0-14.584 3.772-14.584 8.425 0 4.653 6.53 8.426 14.584 8.426 8.054 0 14.584-3.773 14.584-8.426M490.555 232.168v40.01M490.555 272.177c0 4.654-6.53 8.426-14.584 8.426-8.054 0-14.584-3.772-14.584-8.425" stroke-width="1.09999725"/><path d="M490.555 240.054c0 4.653-6.53 8.425-14.584 8.425-8.054 0-14.584-3.772-14.584-8.425M490.555 266.9c0 4.654-6.53 8.426-14.584 8.426-8.054 0-14.584-3.772-14.584-8.425M464.5 232.88c0-.538.757-.975 1.689-.975s1.688.437 1.688.975c0 .539-.756.975-1.688.975-.932 0-1.688-.436-1.688-.975" stroke-width="1.09999725"/><path d="M490.555 242.162c0 4.654-6.53 8.426-14.584 8.426-8.054 0-14.584-3.772-14.584-8.425M490.555 264.575c0 4.653-6.53 8.425-14.584 8.425-8.054 0-14.584-3.772-14.584-8.425" stroke-width="1.09999725"/><path d="M490.555 244.272c0 4.652-6.53 8.425-14.584 8.425-8.054 0-14.584-3.773-14.584-8.426M490.555 262.248c0 4.654-6.53 8.426-14.584 8.426-8.054 0-14.584-3.772-14.584-8.425M461.387 232.168v40.01M278.181 443.252l12.786-7.387M273.291 451.727v23.283M273.291 451.727l4.89-8.475M269.276 448.525c.504.873 2.138.873 3.649 0 1.512-.873 2.328-2.289 1.825-3.162M266.66 445.572c-.63-1.092.391-2.861 2.28-3.953 1.89-1.091 3.932-1.091 4.562 0 .63 1.092-.391 2.861-2.28 3.953-1.89 1.092-3.932 1.092-4.562 0M266.62 447.874v23.281M266.66 445.572l.925 1.603M273.502 441.62l.924 1.603M268.952 447.966l.323.559" stroke-width="1.09999725"/><path d="M267.585 447.175c.63 1.091 2.672 1.091 4.561 0 1.89-1.092 2.91-2.861 2.28-3.953M274.426 444.804l.323.56M274.526 444.52l-.925-1.602M273.897 445.69l-.925-1.602M268.66 447.912l-.924-1.603M272.148 447.173l-.925-1.602M269.987 447.95l-.924-1.602M271.123 447.656l-.926-1.602M273.076 446.528l-.925-1.603M270.623 440.937l.888-1.54M266.62 447.874l6.671 3.853M266.62 447.874l.684-1.184M271.51 439.398l6.671 3.854M295.858 438.691v23.281M290.967 435.865l4.891 2.826M273.291 475.01l4.89 2.825M290.967 470.449l4.891-8.477M290.967 470.449l-12.786 7.386M273.291 475.01l-6.67-3.855M277.587 434.45l5.46-3.155M280.402 436.075l5.46-3.154M274.616 439.598l.012.736M280.916 436.372l4.603-2.654M277.945 441.668l-.503.291-2.814-1.625M280.402 436.075c-.788.455-1.544 1.254-2.1 2.22-.558.965-.871 2.019-.871 2.93M277.587 434.449c-.788.455-1.543 1.253-2.1 2.219-.558.966-.87 2.02-.87 2.93M288.834 434.636c0-.91-.313-1.602-.87-1.924-.557-.322-1.313-.247-2.101.208" stroke-width="1.09999725"/><path d="M288.297 435.528c.165-1.122-.067-1.96-.634-2.288-.532-.307-1.309-.135-2.142.477M288.297 435.688l-2.778-1.529M277.945 441.522v.146M280.916 436.372c-.788.455-1.543 1.254-2.1 2.22-.558.965-.87 2.02-.87 2.93M288.833 434.638v.74M285.52 433.718v.441M277.43 441.225v.727M288.297 435.688l.536-.31M290.967 435.865l-2.134-1.233M271.51 439.398l3.659-2.113M284.574 451.886l-3.634 2.098M288.208 459.715l-7.268 4.2M280.94 453.984v9.93M288.208 449.786v9.929l3.634 2.866M277.306 451.12l3.634 2.864M278.396 468.86l2.544-4.946M288.208 449.786l-3.634 2.1M288.208 449.786l2.544-4.945M280.402 436.075l-2.815-1.625M278.3 438.296l-2.814-1.627M285.862 432.92l-2.815-1.625M285.149 431.086c-.557-.322-1.313-.247-2.101.208M285.149 431.086l2.814 1.627M288.297 435.528v.16M112.65 458.85c0-4.653-6.528-8.425-14.582-8.425-8.055 0-14.584 3.772-14.584 8.425 0 4.654 6.53 8.426 14.584 8.426 8.054 0 14.583-3.772 14.583-8.426M112.65 458.85v40.011M112.65 498.861c0 4.653-6.528 8.425-14.582 8.425-8.055 0-14.584-3.772-14.584-8.425" stroke-width="1.09999725"/><path d="M112.65 466.738c0 4.653-6.528 8.425-14.582 8.425-8.055 0-14.584-3.772-14.584-8.426M112.65 493.584c0 4.653-6.528 8.425-14.582 8.425-8.055 0-14.584-3.772-14.584-8.425M86.599 459.563c0-.538.755-.975 1.687-.975s1.687.437 1.687.975c0 .539-.755.975-1.687.975s-1.688-.436-1.688-.975" stroke-width="1.09999725"/><path d="M112.65 468.846c0 4.653-6.528 8.425-14.582 8.425-8.055 0-14.584-3.772-14.584-8.425M112.65 491.258c0 4.653-6.528 8.425-14.582 8.425-8.055 0-14.584-3.772-14.584-8.425" stroke-width="1.09999725"/><path d="M112.65 470.955c0 4.653-6.528 8.425-14.582 8.425-8.055 0-14.584-3.772-14.584-8.425M112.65 488.933c0 4.652-6.528 8.424-14.582 8.424-8.055 0-14.584-3.772-14.584-8.425M83.483 458.85v40.011M91.338 446.537c0-4.653-6.529-8.425-14.583-8.425-8.055 0-14.584 3.772-14.584 8.426 0 4.653 6.53 8.425 14.584 8.425 8.054 0 14.583-3.772 14.583-8.425" stroke-width="1.09999725"/><path d="M65.285 447.25c0-.538.756-.975 1.688-.975.932 0 1.687.437 1.687.975 0 .539-.755.975-1.687.975s-1.688-.436-1.688-.975M62.17 446.539v40.01M91.338 446.539v4.837M83.485 484.094c-2.08.624-4.388.95-6.73.95-8.055 0-14.584-3.772-14.584-8.425" stroke-width="1.09999725"/><path d="M83.485 486.42c-2.08.624-4.388.95-6.73.95-8.055 0-14.584-3.772-14.584-8.425" stroke-width="1.09999725"/><path d="M83.485 488.745c-2.08.625-4.388.951-6.73.951-8.055 0-14.584-3.772-14.584-8.425M83.485 466.116c-2.08.625-4.388.95-6.73.95-8.055 0-14.584-3.771-14.584-8.424" stroke-width="1.09999725"/><path d="M83.485 464.008c-2.08.624-4.388.95-6.73.95-8.055 0-14.584-3.772-14.584-8.425" stroke-width="1.09999725"/><path d="M83.485 461.9c-2.08.624-4.388.95-6.73.95-8.055 0-14.584-3.772-14.584-8.426M83.485 494.022c-2.08.625-4.388.951-6.73.951-8.055 0-14.584-3.772-14.584-8.425M623.452 322.615v33.228l29.214 16.877 34.453-19.904M652.666 339.492v33.228M652.666 339.492l34.453-19.904M623.452 322.615l34.453-19.904M623.452 322.615l29.214 16.877M657.905 302.71l29.214 16.878M667.148 308.051l-34.453 19.905M638.058 331.054l34.453-19.904M632.695 327.956v6.975M638.058 331.054v6.976M632.695 334.931l5.363 3.1" stroke-width="1.09999725"/><path d="M641.663 339.572v9.905l8.51 4.916M650.173 344.489v9.904M641.663 339.572l8.51 4.917M687.119 319.588v33.228M372.37 417.42v17.891l17.94-10.364M372.37 417.42V403.05M390.31 424.947l8.864-5.12v-32.263M372.37 403.049l17.94-10.364 8.864-5.121M372.37 435.311l-25.744-14.873M346.626 388.176v32.262M346.626 388.176l25.744 14.873M386.472 380.225l12.702 7.339" stroke-width="1.09999725"/><path d="M375.888 405.91v23.612l20.711-11.965M396.599 393.945v23.612M375.888 405.91l20.711-11.965M369.629 406.208v23.612l-20.711-11.965M348.918 394.243v23.612" stroke-width="1.09999725"/><path d="M369.629 406.208l-20.711-11.965 20.71 35.577M348.918 417.855l20.71-11.647M375.888 405.91l20.711 11.647M375.888 429.522l20.711-35.577M399.174 419.827l17.941-10.365 8.862-5.12M425.977 386.451v17.89M425.977 386.451V372.08M399.174 387.564l17.941-10.365 8.862-5.12M400.233 357.206l25.744 14.874M402.691 390.426v23.61l20.71-11.963M423.402 378.46v23.613M402.691 390.426l20.71-11.965M402.691 390.426l20.71 11.647M402.691 414.037l20.71-35.576M346.626 388.176l12.873-7.241M346.626 420.438l-25.745-14.872M320.881 387.675v17.89M320.881 387.675v-14.373l25.745 14.874M343.884 391.335v23.612l-20.71-11.965M323.173 379.37v23.612" stroke-width="1.09999725"/><path d="M343.884 391.335l-20.71-11.966 20.71 35.578M323.173 402.982l20.711-11.647M399.174 356.594l1.059.612M372.37 370.481v17.89l17.94-10.363M372.37 370.481v-14.373M390.31 378.008l8.864-5.121M372.37 356.108l17.94-10.364 8.864-5.12M372.37 388.372l-25.744-14.873M346.626 341.236l25.744 14.872M373.43 325.751l25.744 14.873M373.43 325.751l-26.804 15.485" stroke-width="1.09999725"/><path d="M375.888 358.97v23.613l20.711-11.965M396.599 347.005v23.613M375.888 358.97l20.711-11.965M369.629 359.267v23.613l-20.711-11.966M348.918 347.302v23.612" stroke-width="1.09999725"/><path d="M369.629 359.267l-20.711-11.965 20.71 35.578M348.918 370.914l20.71-11.647M375.888 358.97l20.711 11.648M375.888 382.583l20.711-35.578M399.174 354.996v17.89M399.174 354.996v-14.372M346.626 373.499v-32.263M320.881 373.302l25.745-14.872M393.131 237.835l-57.604-33.955M431.685 216.008l-38.554 21.827M374.08 182.054l-38.553 21.826M393.131 237.835l-.583 66.91M431.685 216.008l-.359 41.18M315.742 259.474l.201-22.91 19.584-32.684M439.207 287.693l-38.554 21.827M439.398 265.719l-8.245-8.714M439.398 265.719l-38.553 21.826M439.207 287.693l.191-21.974M400.845 287.545l-.192 21.975M392.548 304.744l8.105 4.776M334.65 282.555c-3.73 2.11-9.717-1.417-13.371-7.88-3.655-6.465-3.594-13.416.135-15.527 3.73-2.112 9.715 1.417 13.37 7.88 3.655 6.464 3.594 13.415-.135 15.527" stroke-width="1.09999725"/><path d="M329.355 273.192c-.746.422-1.943-.283-2.674-1.576-.731-1.293-.719-2.683.027-3.105.746-.423 1.943.283 2.674 1.576.731 1.292.719 2.683-.027 3.105M339.995 279.527c3.73-2.11 3.79-9.062.136-15.526-3.655-6.463-9.64-9.992-13.37-7.88M400.845 287.545l-8.072-8.53 38.553-21.827M326.76 256.12l-5.347 3.029M378.405 308.344c-3.73 2.112-9.716-1.416-13.37-7.88-3.655-6.463-3.595-13.415.135-15.526 3.729-2.111 9.715 1.417 13.37 7.88 3.654 6.464 3.594 13.416-.136 15.527" stroke-width="1.09999725"/><path d="M373.11 298.983c-.745.421-1.943-.284-2.674-1.577-.73-1.293-.718-2.683.027-3.105.746-.422 1.944.283 2.674 1.576.731 1.293.72 2.683-.027 3.105M383.75 305.318c3.73-2.111 3.791-9.063.136-15.526-3.654-6.464-9.64-9.992-13.37-7.88M339.995 279.53l-5.347 3.025M370.515 281.912l-5.346 3.028M383.75 305.318l-5.347 3.028M319.302 261.57l-3.56-2.096M363.058 287.362l-20.408-12.03M392.548 304.744l-6.142-3.62M310.034 254.328l-.073 8.42M306.594 252.3l-.073 8.42M310.034 254.328l-3.44-2.028M309.961 262.748l-3.44-2.027M281.618 239.486l-18.152-7.874M292.524 233.31l-18.15-7.874M263.466 231.612l10.908-6.176M263.466 231.612l-.008 1.016M297.986 212.068l-.008 1.015M306.545 258.024l-43.087-25.396M306.579 254.198l-24.961-14.712M292.524 233.31l-10.906 6.176M327.047 213.768l-9.077-3.937M303.89 211.515c.004-.288-.4-.526-.901-.53-.501-.006-.91.226-.912.515-.004.29.402.527.903.532.5.005.908-.227.91-.516M322.959 214.334c0-.29-.402-.528-.903-.532-.5-.006-.909.226-.911.516-.004.289.401.527.902.531.5.006.909-.226.911-.515M274.823 227.97c.002-.287-.401-.525-.902-.53-.5-.005-.909.227-.911.516-.004.29.401.527.902.532.5.005.909-.227.911-.516M269.37 231.06c.003-.29-.402-.528-.903-.532-.5-.006-.908.226-.91.516-.005.289.4.527.901.531.501.006.909-.226.911-.516M273.907 233.028c.004-.29-.401-.527-.902-.532-.5-.005-.908.227-.911.516-.004.29.401.527.902.532.5.005.909-.227.911-.516M279.361 229.94c.004-.289-.401-.527-.902-.531-.5-.006-.909.226-.911.515-.004.29.401.528.902.532.5.006.909-.226.911-.516M278.444 234.997c.004-.29-.4-.528-.9-.532-.502-.006-.91.226-.912.515-.004.29.401.528.902.532.5.006.909-.226.911-.516M283.899 231.908c.004-.289-.401-.527-.902-.531-.5-.005-.909.227-.911.516-.004.29.401.527.902.532.5.005.909-.227.911-.516M282.984 236.965c.001-.29-.402-.528-.903-.532-.5-.005-.909.227-.911.516-.004.29.401.527.902.532.5.005.909-.227.911-.516M288.436 233.876c.004-.288-.4-.526-.901-.53-.5-.006-.909.226-.911.515-.004.29.401.528.902.532.5.005.908-.227.911-.516M307.063 216.004l-9.077-3.936M360.854 145.547l-3.438-2.028M360.854 145.547l-7.189 4.07-3.44-2.027 7.191-4.071M317.924 169.85l-3.44-2.025M310.034 254.328l.702-80.407M306.594 252.3l.702-80.406M317.924 169.85l-7.188 4.071-3.44-2.027 7.189-4.07M306.687 241.657l-14.163-8.347M317.97 209.83l-.392-.17M317.56 211.835c.484.016.863.25.86.53 0 .28-.385.507-.87.516M306.931 213.87c-.202-.101-.317-.248-.316-.402.001-.153.12-.298.323-.396M297.986 212.068l9.005-5.097M327.047 213.768l-9.552 5.406M306.89 218.336l-8.912-5.253M353.279 193.83l.386-44.212M349.806 195.797l.42-48.207M360.47 189.76l.384-44.213M315.817 251.054l-5.783 3.274M315.742 259.474l-5.781 3.274M321.652 227.038l-4.205-2.48M323.355 224.196l-5.874-3.464M328.935 214.88l-1.888-1.112M317.365 234.194l.56-64.344M324.021 241.326l16.398-27.367M324.021 241.326l-.051 4.08M388.182 186.6l3.175 1.872M365.744 212.243c2.216 1.306 5.844-.748 8.104-4.588 2.26-3.839 2.296-8.01.081-9.315-2.215-1.306-5.843.748-8.103 4.587-2.26 3.84-2.296 8.01-.082 9.316" stroke-width="1.09999725"/><path d="M362.569 210.371c-2.215-1.306-2.18-5.477.081-9.316 2.26-3.84 5.888-5.893 8.103-4.587" stroke-width="1.09999725"/><path d="M370.753 196.468a8.073 8.073 0 0 0-10.88 3.472 8.084 8.084 0 0 0 2.696 10.43M378.979 191.247l3.175 1.872M379.467 191.533a8.34 8.34 0 0 0-11.181 4.215M388.184 186.6A8.34 8.34 0 0 0 377 190.814" stroke-width="1.09999725"/><path d="M379.783 191.718c.095-.178.194-.356.297-.53 2.26-3.84 5.888-5.894 8.103-4.588M382.947 193.614c.099-.188.202-.372.31-.555 2.26-3.839 5.887-5.893 8.102-4.587 2.216 1.305 2.18 5.476-.081 9.316-2.26 3.839-5.888 5.893-8.103 4.587a2.703 2.703 0 0 1-.32-.221M371.08 196.632c.09-.173.186-.343.285-.51 2.26-3.84 5.888-5.894 8.103-4.588" stroke-width="1.09999725"/><path d="M374.232 198.547c.099-.187.202-.371.309-.554 2.26-3.84 5.888-5.893 8.103-4.587 2.215 1.305 2.18 5.476-.081 9.315-2.26 3.84-5.888 5.894-8.103 4.588a2.715 2.715 0 0 1-.3-.205M370.753 196.468l2.872 1.665M362.567 210.371l3.177 1.872 3.937 2.322M359.693 208.677l6.051 3.566" stroke-width="1.09999725"/><path d="M391.277 197.79l3.938 2.319-25.534 14.456-.017 1.915-9.99-5.888M359.693 208.677l-.018 1.915M359.693 208.677l.727-.412M395.2 202.024l-25.535 14.456M395.215 200.109l-.016 1.915M431.685 216.008l-38.757-22.844M348.09 272.863l-5.775-16.67M362.758 281.54l-14.667-8.677M362.758 281.54v-54.413l-22.339-13.168" stroke-width="1.09999725"/><path d="M358.565 256.45c.58-.335.58-1.421 0-2.426-.58-1.005-1.52-1.548-2.099-1.213-.58.335-.58 1.42 0 2.426.58 1.004 1.52 1.547 2.1 1.213M342.315 256.194l-18.345-10.787M386.914 254.27l-17.383-10.043M386.914 251.689l-17.383-10.041M386.914 249.107l-17.383-10.041M386.914 246.525l-17.383-10.041M386.914 243.945l-17.383-10.041M386.914 241.363l-17.383-10.041M386.914 241.363v12.908M369.53 231.322v12.905M386.914 272.015l-17.383-10.042M386.914 269.435l-17.383-10.042M386.914 266.853l-17.383-10.042M386.914 264.27l-17.383-10.04M386.914 261.691l-17.383-10.043M386.914 259.11l-17.383-10.042M386.914 259.11v12.905M369.53 249.068v12.905M388.01 278.293l-7.626-4.407v5.931M388.01 284.224l-7.626-4.407M386.79 280.965c.208-.12.208-.508 0-.867-.207-.358-.542-.552-.75-.433-.206.12-.206.508 0 .866.208.359.543.553.75.433M388.01 278.293v5.93M425.902 225.734l-26.987 15.278M425.902 253.135l-26.987 15.278M425.902 225.734v27.4M398.915 241.012v27.4M429.75 280.946l-18.407 10.42-.053 6.08M431.553 282.009l-18.407 10.42M431.5 288.09l-18.405 10.42M413.146 292.429l-.05 6.08M431.553 282.009l-.053 6.08M413.146 292.429l-1.803-1.063M413.095 298.51l-1.805-1.063M431.553 282.009l-1.804-1.063M374.08 182.054l7.508 4.339" stroke-width="1.09999725"/></g></svg>