<?xml version="1.0" encoding="UTF-8" standalone="no"?>
<!-- Created with Inkscape (http://www.inkscape.org/) -->

<svg
   xmlns:dc="http://purl.org/dc/elements/1.1/"
   xmlns:cc="http://creativecommons.org/ns#"
   xmlns:rdf="http://www.w3.org/1999/02/22-rdf-syntax-ns#"
   xmlns:svg="http://www.w3.org/2000/svg"
   xmlns="http://www.w3.org/2000/svg"
   xmlns:sodipodi="http://sodipodi.sourceforge.net/DTD/sodipodi-0.dtd"
   xmlns:inkscape="http://www.inkscape.org/namespaces/inkscape"
   width="512"
   height="512"
   viewBox="0 0 480 480"
   id="svg2"
   version="1.1"
   inkscape:version="0.92.3 (2405546, 2018-03-11)"
   sodipodi:docname="icon-512.svg"
   inkscape:export-filename="/home/idbolshakov/projects/computerization/projects/computerization/landing/code/static-assets/icon-512.svg.png"
   inkscape:export-xdpi="96"
   inkscape:export-ydpi="96">
  <defs
     id="defs4" />
  <sodipodi:namedview
     id="base"
     pagecolor="#483737"
     bordercolor="#666666"
     borderopacity="1.0"
     inkscape:pageopacity="1"
     inkscape:pageshadow="2"
     inkscape:zoom="0.45254834"
     inkscape:cx="120.57903"
     inkscape:cy="363.52385"
     inkscape:document-units="px"
     inkscape:current-layer="g829"
     showgrid="false"
     inkscape:window-width="1920"
     inkscape:window-height="1041"
     inkscape:window-x="0"
     inkscape:window-y="0"
     inkscape:window-maximized="1"
     showguides="false"
     units="px">
    <inkscape:grid
       type="xygrid"
       id="grid4742" />
  </sodipodi:namedview>
  <metadata
     id="metadata7">
    <rdf:RDF>
      <cc:Work
         rdf:about="">
        <dc:format>image/svg+xml</dc:format>
        <dc:type
           rdf:resource="http://purl.org/dc/dcmitype/StillImage" />
        <dc:title></dc:title>
      </cc:Work>
    </rdf:RDF>
  </metadata>
  <g
     inkscape:label="Layer 1"
     inkscape:groupmode="layer"
     id="layer1"
     transform="translate(0,-572.36223)">
    <g
       id="g873"
       transform="translate(24.375,30)">
      <g
         aria-label="&gt; com."
         style="font-style:normal;font-weight:normal;font-size:164.53453064px;line-height:1.25;font-family:sans-serif;letter-spacing:0px;word-spacing:0px;fill:#000000;fill-opacity:1;stroke:none;stroke-width:4.11336327"
         id="text833">
        <g
           id="g837"
           transform="translate(-94.131593,321.87846)">
          <g
             transform="matrix(1.0030049,0,0,1.0003993,-0.20961188,-0.27971736)"
             id="g829">
            <g
               id="g830"
               transform="matrix(2.66,0,0,2.66,-115.19774,-1163.4032)">
              <path
                 inkscape:connector-curvature="0"
                 id="path853"
                 style="font-style:normal;font-variant:normal;font-weight:normal;font-stretch:normal;font-family:Rubik;-inkscape-font-specification:Rubik;fill:#ff6600;fill-opacity:1;stroke-width:1.18945408"
                 d="m 110.12919,610.56737 q 0,0.76125 -0.38063,1.18945 -0.33305,0.38063 -0.99914,0.80883 l -17.841808,12.08486 q -0.19031,0.0952 -0.33305,0.14273 -0.0952,0 -0.19031,0 -0.4282,0 -0.71367,-0.28547 -0.28547,-0.28547 -0.28547,-0.71367 v -6.51821 q 0,-0.80883 0.52336,-1.28461 0.52336,-0.47578 0.99914,-0.80883 l 8.37376,-5.61422 -8.37376,-5.61422 q -0.47578,-0.33305 -0.99914,-0.80883 -0.52336,-0.47578 -0.52336,-1.28461 v -6.51821 q 0,-0.4282 0.28547,-0.71367 0.28547,-0.28547 0.71367,-0.28547 0.0952,0 0.19031,0.0476 0.14274,0 0.33305,0.0951 l 17.841808,12.08486 q 0.66609,0.4282 0.99914,0.8564 0.38063,0.38063 0.38063,1.14188 z" />
              <path
                 inkscape:connector-curvature="0"
                 id="path855"
                 style="font-style:normal;font-variant:normal;font-weight:normal;font-stretch:normal;font-family:Rubik;-inkscape-font-specification:Rubik;fill:#f2f2f2;fill-opacity:1;stroke-width:1.18945408"
                 d="m 126.46612,612.18503 q -0.0952,0.71367 -0.0952,1.66524 0,0.95156 0.0952,1.66523 0.14273,1.71281 1.28461,2.75953 1.14187,1.04672 3.045,1.04672 1.57008,0 2.37891,-0.4282 0.85641,-0.47578 1.37977,-1.28461 0.23789,-0.38063 0.52335,-0.66609 0.33305,-0.28547 0.85641,-0.28547 h 6.23274 q 0.52336,0 0.90399,0.38062 0.4282,0.38063 0.38062,0.90399 -0.0476,0.76125 -0.61851,2.23617 -0.57094,1.47492 -1.99829,2.94985 -1.42734,1.42734 -3.85383,2.52164 -2.42648,1.04672 -6.18516,1.04672 -2.66438,0 -4.99571,-0.76125 -2.28375,-0.76125 -4.04414,-2.1886 -1.71282,-1.42734 -2.75954,-3.42562 -0.99914,-2.04587 -1.09429,-4.56751 -0.0476,-0.71367 -0.0476,-1.90312 0,-1.18946 0.0476,-1.90313 0.0952,-2.52164 1.09429,-4.51993 1.04672,-2.04586 2.75954,-3.4732 1.76039,-1.42735 4.04414,-2.1886 2.33133,-0.76125 4.99571,-0.76125 3.75868,0 6.18516,1.0943 2.42649,1.04672 3.85383,2.52164 1.42735,1.42735 1.99829,2.90227 0.57094,1.47492 0.61851,2.23617 0.0476,0.52336 -0.38062,0.90399 -0.38063,0.38062 -0.90399,0.38062 h -6.23274 q -0.52336,0 -0.85641,-0.28547 -0.28546,-0.28546 -0.52335,-0.66609 -0.52336,-0.80883 -1.37977,-1.23703 -0.80883,-0.47579 -2.37891,-0.47579 -1.90313,0 -3.045,1.04673 -1.14188,1.04672 -1.28461,2.75953 z" />
              <path
                 inkscape:connector-curvature="0"
                 id="path857"
                 style="font-style:normal;font-variant:normal;font-weight:normal;font-stretch:normal;font-family:Rubik;-inkscape-font-specification:Rubik;fill:#f2f2f2;fill-opacity:1;stroke-width:1.18945408"
                 d="m 172.35823,612.04229 q 0.0476,0.71368 0.0476,1.85555 0,1.0943 -0.0476,1.80797 -0.0952,2.28376 -1.04672,4.28204 -0.95156,1.99828 -2.6168,3.52078 -1.66523,1.47492 -4.04414,2.33133 -2.33133,0.85641 -5.2336,0.85641 -2.90227,0 -5.28117,-0.85641 -2.33134,-0.85641 -3.99657,-2.33133 -1.66523,-1.5225 -2.6168,-3.52078 -0.95156,-1.99828 -1.04672,-4.28204 -0.0476,-0.71367 -0.0476,-1.80797 0,-1.14187 0.0476,-1.85555 0.0476,-2.28375 0.99914,-4.28203 0.95157,-1.99828 2.6168,-3.47321 1.71281,-1.5225 4.04415,-2.37891 2.3789,-0.90398 5.28117,-0.90398 2.90227,0 5.2336,0.90398 2.37891,0.85641 4.04414,2.37891 1.71282,1.47493 2.6168,3.47321 0.95157,1.99828 1.04672,4.28203 z m -17.31845,3.42563 q 0.14274,1.80797 1.28461,2.85469 1.18946,0.99914 3.09258,0.99914 1.90313,0 3.045,-0.99914 1.18946,-1.04672 1.33219,-2.85469 0.0952,-0.71367 0.0952,-1.61765 0,-0.90399 -0.0952,-1.61766 -0.14273,-1.80797 -1.33219,-2.80711 -1.14187,-1.04673 -3.045,-1.04673 -1.90312,0 -3.09258,1.04673 -1.14187,0.99914 -1.28461,2.80711 -0.0952,0.71367 -0.0952,1.61766 0,0.90398 0.0952,1.61765 z" />
              <path
                 inkscape:connector-curvature="0"
                 id="path859"
                 style="font-style:normal;font-variant:normal;font-weight:normal;font-stretch:normal;font-family:Rubik;-inkscape-font-specification:Rubik;fill:#f2f2f2;fill-opacity:1;stroke-width:1.18945408"
                 d="m 215.80825,624.93598 q 0,0.52336 -0.38063,0.90398 -0.38063,0.38063 -0.90399,0.38063 h -5.75695 q -0.52336,0 -0.90399,-0.38063 -0.38063,-0.38062 -0.38063,-0.90398 v -12.18001 q 0,-2.37891 -0.90398,-3.37805 -0.8564,-0.99915 -2.56922,-0.99915 -1.66524,0 -2.56922,0.99915 -0.85641,0.99914 -0.85641,3.37805 v 12.18001 q 0,0.52336 -0.38062,0.90398 -0.38063,0.38063 -0.90399,0.38063 h -5.75695 q -0.52336,0 -0.90399,-0.38063 -0.38063,-0.38062 -0.38063,-0.90398 v -12.18001 q 0,-2.37891 -0.90398,-3.37805 -0.85641,-0.99915 -2.56922,-0.99915 -1.66524,0 -2.56922,0.99915 -0.85641,0.95156 -0.85641,3.23531 v 12.32275 q 0,0.52336 -0.38062,0.90398 -0.38063,0.38063 -0.90399,0.38063 h -5.99485 q -0.52336,0 -0.90398,-0.38063 -0.38063,-0.38062 -0.38063,-0.90398 v -22.17143 q 0,-0.52336 0.38063,-0.90398 0.38062,-0.38063 0.90398,-0.38063 h 5.75696 q 0.52336,0 0.90399,0.38063 0.38062,0.38062 0.38062,0.90398 v 1.0943 q 1.04672,-1.33219 2.52164,-2.09344 1.5225,-0.76125 3.52079,-0.76125 2.42648,0 4.37719,0.90398 1.99828,0.90399 3.23531,2.80712 1.37977,-1.80797 3.33047,-2.75954 1.99829,-0.95156 4.28204,-0.95156 2.04586,0 3.75868,0.66609 1.76038,0.61852 2.99742,1.95071 1.28461,1.33219 1.9507,3.37805 0.71368,2.04586 0.71368,4.85297 z" />
              <path
                 inkscape:connector-curvature="0"
                 id="path861"
                 style="font-style:normal;font-variant:normal;font-weight:normal;font-stretch:normal;font-family:Rubik;-inkscape-font-specification:Rubik;fill:#5599ff;fill-opacity:1;stroke-width:1.18945408"
                 d="m 229.58881,624.93598 q 0,0.52336 -0.38062,0.90398 -0.38063,0.38063 -0.90399,0.38063 h -6.23274 q -0.52336,0 -0.90398,-0.38063 -0.38063,-0.38062 -0.38063,-0.90398 v -6.23274 q 0,-0.52336 0.38063,-0.90399 0.38062,-0.38062 0.90398,-0.38062 h 6.23274 q 0.52336,0 0.90399,0.38062 0.38062,0.38063 0.38062,0.90399 z" />
            </g>
          </g>
        </g>
        <text
           xml:space="preserve"
           style="font-style:normal;font-weight:normal;font-size:37.5px;line-height:1.25;font-family:sans-serif;letter-spacing:0px;word-spacing:0px;fill:#000000;fill-opacity:1;stroke:none;stroke-width:3.85627794"
           x="445.83984"
           y="304.58878"
           id="text870"><tspan
             sodipodi:role="line"
             id="tspan868"
             x="445.83984"
             y="337.76749"
             style="stroke-width:3.85627794" /></text>
      </g>
    </g>
  </g>
</svg>
