<svg xmlns="http://www.w3.org/2000/svg" width="616.559" height="500"><g fill="none" stroke="#646464" stroke-width="1.5" stroke-linecap="round" stroke-linejoin="round" stroke-miterlimit="10"><path d="M123.937 71.422l120.837 69.765v-43.8l47.427-27.381M292.2 92.466v-22.46M244.774 141.187l19.451-11.23M123.937 27.622l120.837 69.765M171.363.24l120.838 69.766M123.937 27.622L171.363.24" stroke-width="1.9999949999999997"/><path d="M280.102 85.48c-6.414-3.703-16.814 2.3-23.228 13.41-6.414 11.11-6.414 23.12 0 26.823M286.538 142.84c-6.414-3.704-6.414-15.712 0-26.822 6.415-11.11 16.814-17.114 23.229-13.411 6.414 3.703 6.414 15.712 0 26.822-6.415 11.11-16.814 17.114-23.229 13.41M123.937 71.422v-43.8M256.874 125.713l29.664 17.127M280.102 85.48l29.665 17.127M231.782 35.123l41.187-23.78v47.56M272.97 11.344l-8.864-5.117M222.92 30.006l41.186-23.779M141.585 10.43l-7.888 4.553M149.473 5.875l-7.888 4.554M133.697 14.983l6.065 3.502M149.473 5.875l6.066 3.502M133.697 14.983v5.776l1.064.614M231.425 103.358v-8.221M231.425 111.58v-8.222M137.286 40.785l-8.181 4.724M231.425 95.137l-8.182 4.724M231.425 111.58l-8.182 4.724M224.586 91.188l-8.182 4.723M224.586 91.188l6.84 3.949M137.286 40.785l6.84 3.95M144.126 52.15v-7.416M144.126 44.734l-8.182 4.724M129.105 45.51l6.84 3.948M129.105 61.953l6.84 3.949M216.404 95.911l6.84 3.95M216.404 112.355l6.84 3.949M135.944 49.458l80.46 46.453M135.944 65.902l80.46 46.453M135.944 49.458v16.444M129.105 45.51v16.443M137.704 48.443l80.46 46.453M216.404 95.911v16.444M134.842 28.401c0 1.727 2.425 3.127 5.416 3.127 2.99 0 5.415-1.4 5.415-3.127M134.842 24.213c0-1.727 2.425-3.127 5.416-3.127 2.99 0 5.415 1.4 5.415 3.127 0 1.727-2.425 3.126-5.415 3.126-2.991 0-5.416-1.4-5.416-3.126M223.243 99.861v16.443M134.841 24.213v4.19M145.673 24.213v4.19M170.118 8.29l-14.394 8.31 6.964 4.02M177.082 12.31l-14.394 8.31M152.444 13.682c0-.739 1.037-1.338 2.317-1.338 1.28 0 2.316.6 2.316 1.338 0 .739-1.037 1.338-2.316 1.338-1.28 0-2.317-.6-2.317-1.338M163.054 7.556c0-.738 1.037-1.337 2.316-1.337 1.28 0 2.317.599 2.317 1.337 0 .74-1.037 1.338-2.317 1.338-1.28 0-2.317-.599-2.317-1.338" stroke-width="1.9999949999999997"/><path d="M290.206 136.487c-4.388-2.534-4.388-10.75 0-18.352 4.389-7.601 11.504-11.71 15.893-9.175 4.389 2.533 4.389 10.75 0 18.351-4.389 7.602-11.504 11.71-15.893 9.176M161.433 93.07a10.733 10.733 0 0 0-.305 2.53c0 10.087 14.164 18.265 31.636 18.265 1.466 0 2.93-.059 4.383-.176M161.128 116.972c0 10.087 14.164 18.265 31.636 18.265 10.91 0 21.05-3.246 26.831-8.588M170.118 8.29l6.964 4.02M161.128 116.972V95.6M181.932 428.415c0 3.796 5.331 6.874 11.907 6.874 6.577 0 11.908-3.078 11.908-6.874M204.75 139.88l104.336 199.4M180.915 133.908l1.016 294.507M309.087 339.28c0 3.796 5.331 6.874 11.908 6.874 6.576 0 11.907-3.078 11.907-6.875M204.73 133.88l1.017 294.535M12.904 286.248c-1.271 1.043-1.953 2.287-1.953 3.562 0 3.419 4.8 6.19 10.722 6.19 3.848 0 7.402-1.19 9.31-3.12M222.529 128.344l110.373 210.935M168.718 128.842L12.903 286.248" stroke-width="1.9999949999999997"/><path d="M181.913 422.757c-2.27 1.594-3.51 3.594-3.51 5.658 0 4.922 6.911 8.912 15.436 8.912 8.526 0 15.437-3.99 15.437-8.912 0-2.076-1.255-4.087-3.549-5.686M180.94 141.395L30.984 292.88M178.402 428.415v9.825M17.695 281.407c-6.56 1.035-11.11 4.476-11.11 8.403 0 4.811 6.755 8.711 15.088 8.711 8.333 0 15.088-3.9 15.088-8.71 0-.76-.172-1.517-.512-2.25" stroke-width="1.9999949999999997"/><path d="M17.695 281.407c-6.56 1.035-11.11 4.476-11.11 8.403 0 4.811 6.755 8.711 15.088 8.711 8.333 0 15.088-3.9 15.088-8.71 0-.76-.172-1.517-.512-2.25" stroke-width="1.9999949999999997"/><path d="M17.695 281.407c-6.56 1.035-11.11 4.476-11.11 8.403 0 4.811 6.755 8.711 15.088 8.711 8.333 0 15.088-3.9 15.088-8.71 0-.76-.172-1.517-.512-2.25" stroke-width="1.9999949999999997"/><path d="M17.695 281.407c-6.56 1.035-11.11 4.476-11.11 8.403 0 4.811 6.755 8.711 15.088 8.711 8.333 0 15.088-3.9 15.088-8.71 0-.76-.172-1.517-.512-2.25" stroke-width="1.9999949999999997"/><path d="M17.695 281.407c-6.56 1.035-11.11 4.476-11.11 8.403 0 4.811 6.755 8.711 15.088 8.711 8.333 0 15.088-3.9 15.088-8.71 0-.76-.172-1.517-.512-2.25" stroke-width="1.9999949999999997"/><path d="M17.695 281.407c-6.56 1.035-11.11 4.476-11.11 8.403 0 4.811 6.755 8.711 15.088 8.711 8.333 0 15.088-3.9 15.088-8.71 0-.76-.172-1.517-.512-2.25" stroke-width="1.9999949999999997"/><path d="M17.695 281.407c-6.56 1.035-11.11 4.476-11.11 8.403 0 4.811 6.755 8.711 15.088 8.711 8.333 0 15.088-3.9 15.088-8.71 0-.76-.172-1.517-.512-2.25M209.276 428.415v9.825M28.818 300.987l6.339-7.269M307.288 335.841c-.816 1.085-1.238 2.255-1.238 3.438 0 4.765 6.691 8.628 14.945 8.628 8.253 0 14.944-3.863 14.944-8.628 0-2.927-2.57-5.654-6.828-7.244M1.406 293.727l6.671-7.695M306.64 341.68l5.263 10.162M311.866 351.77c1.851 3.69 7.703 6.228 14.355 6.228 8.253 0 14.944-3.863 14.944-8.628 0-.858-.222-1.712-.658-2.532M178.403 438.24c0 4.922 6.911 8.912 15.436 8.912 8.526 0 15.437-3.99 15.437-8.912" stroke-width="1.9999949999999997"/><path d="M2.325 292.667c-1.366 1.34-2.086 2.866-2.086 4.42 0 4.81 6.755 8.711 15.087 8.711 6.001 0 11.431-2.053 13.83-5.228M340.58 346.974l-5.233-10.097M531.967 381.865v89.872l-20.23-11.68M420.328 317.41v89.872M531.967 381.865l-111.64-64.455M593.755 346.192l-61.788 35.673M482.116 281.736l-61.788 35.674M594.396 326.514l-8.815-5.09M573.901 338.109l-46.127 26.632M494.393 292.204l-46.128 26.632M512.644 402.743v48.154M439.65 360.6v48.154M512.644 402.743l-72.994-42.144M512.644 450.897l-72.994-42.143M476.147 387.804l4.736 2.735M471.41 385.07l4.737 2.734M480.883 390.539v5.47M471.41 385.07v5.47M525.101 404.127c1.125-.65 1.125-2.755 0-4.704-1.125-1.948-2.948-3-4.073-2.351-1.125.65-1.125 2.755 0 4.703 1.125 1.948 2.948 3.001 4.073 2.352M480.883 396.009l-9.472-5.47M527.774 364.74l-79.509-45.904M611.334 260.92l-37.433 77.189M531.825 215.015l-37.432 77.19M573.901 338.109l-79.508-45.905M569.026 340.924l-79.508-45.905M611.334 260.92l4.984-2.877-37.434 77.189M536.808 212.138l-4.983 2.877M582.995 257.737c-2.585 1.493-5.97 1.422-9.603-.202M578.884 335.232l-4.983 2.877M549.691 238.563c.017 2.985 1.787 5.871 5.022 8.188M583.812 255.93c-1.702.006-3.543-.425-5.437-1.272M573.392 257.535l-18.68-10.784M578.375 254.659l-18.68-10.785M570.435 336.108l-4.874 2.814M497.859 294.205l-4.875 2.815M512.644 450.897l-69.668 40.223v8.638M512.644 459.534l-69.668 40.224M431.264 413.596l-10.936-6.314M512.644 450.897v8.637M594.397 326.513c4.214 2.624 6.555 6.07 6.555 9.647 0 3.762-2.589 7.37-7.197 10.031M497.859 294.205v5.63M593.755 346.192l-17.362 10.024M593.755 436.064l-61.788 35.673M600.952 426.032c0 3.762-2.589 7.37-7.197 10.031M593.755 436.064l-17.362 10.024M482.116 281.736c4.608-2.66 10.858-4.155 17.375-4.155.658 0 1.315.016 1.97.046M600.952 426.032V336.16M482.116 281.736l-17.362 10.025M549.69 238.563V225.33M554.674 222.452l-17.866-10.314M554.674 235.686c.017 2.985 1.787 5.871 5.022 8.188M549.69 225.33l4.984-2.878M554.674 235.686v-13.234M587.723 247.288l4.983-2.877 23.612 13.632M587.723 247.288l5.746 3.317M549.69 225.33l-17.865-10.315M593.469 250.605l17.865 10.315M587.723 247.288l-4.728 10.45M369.981 457.615v-8.638M442.976 499.758l-72.995-42.143M439.65 408.754l-69.669 40.223M442.976 491.12l-72.995-42.143" stroke-width="1.9999949999999997"/></g></svg>