<svg xmlns="http://www.w3.org/2000/svg" width="570.371" height="500"><g fill="none" stroke="#646464" stroke-width="1.5" stroke-linecap="round" stroke-linejoin="round" stroke-miterlimit="10"><path d="M.242 406.421V218.617l98.222 56.71M98.464 463.13V275.328M.242 406.421l98.222 56.71 116.269-67.127V249.602M98.464 275.327l116.269-67.128M98.464 275.327l24.78 14.305 116.267-67.127M214.733 208.2l24.778 14.305M123.244 289.632v12.792" stroke-width="1.9999949999999997"/><path d="M98.464 288.117l24.78 14.307 116.267-67.128M239.511 222.505v12.791M98.464 275.327v-70.459l116.269-67.127M214.733 208.2v-70.46M122.487 215.88v18.722M198.392 172.056v18.722M122.487 215.88l75.905-43.824M122.487 227.8v6.802M122.487 227.8v-6.805M122.487 234.602l75.905-43.824M122.487 234.602v1.232M.242 218.617V148.16" stroke-width="1.9999949999999997"/><path d="M102.724 221.732v29.812l13.9-8.025M116.624 213.708v29.811M102.724 221.732l13.9-8.024M106.278 225.732l7.575-4.374" stroke-width="1.9999949999999997"/><path d="M106.278 225.732v5.527l7.575-4.374M105.617 235.266c-.435-.251-.435-1.065 0-1.817.434-.753 1.139-1.16 1.573-.909.435.251.435 1.065 0 1.817-.434.753-1.139 1.16-1.573.909M109.264 233.16c-.434-.251-.434-1.065 0-1.817.435-.753 1.14-1.16 1.574-.909.434.251.434 1.065 0 1.817-.435.753-1.14 1.16-1.574.908M112.912 231.053c-.434-.25-.434-1.064 0-1.816.435-.753 1.14-1.16 1.574-.909.434.251.434 1.064 0 1.817-.435.753-1.14 1.16-1.574.908" stroke-width="1.9999949999999997"/><path d="M112.912 231.053c-.434-.25-.434-1.064 0-1.816.435-.753 1.14-1.16 1.574-.909.434.251.434 1.064 0 1.817-.435.753-1.14 1.16-1.574.908M109.264 233.16c-.434-.251-.434-1.065 0-1.817.435-.753 1.14-1.16 1.574-.909.434.251.434 1.065 0 1.817-.435.753-1.14 1.16-1.574.908M105.617 239.477c-.435-.25-.435-1.064 0-1.816.434-.753 1.139-1.16 1.573-.908.435.25.435 1.064 0 1.816-.434.753-1.139 1.16-1.573.909M109.264 237.372c-.434-.251-.434-1.065 0-1.817.435-.753 1.14-1.16 1.574-.909.434.251.434 1.065 0 1.817-.435.753-1.14 1.16-1.574.909M112.912 235.266c-.434-.251-.434-1.065 0-1.817.435-.753 1.14-1.16 1.574-.909.434.251.434 1.065 0 1.817-.435.753-1.14 1.16-1.574.909M105.617 243.69c-.435-.251-.435-1.064 0-1.817.434-.752 1.139-1.16 1.573-.908.435.25.435 1.064 0 1.816-.434.753-1.139 1.16-1.573.909M105.617 247.902c-.435-.25-.435-1.064 0-1.817.434-.752 1.139-1.159 1.573-.908.435.25.435 1.064 0 1.817-.434.752-1.139 1.159-1.573.908M109.264 241.584c-.434-.251-.434-1.064 0-1.817.435-.753 1.14-1.16 1.574-.908.434.25.434 1.064 0 1.816-.435.753-1.14 1.16-1.574.909M112.912 239.477c-.434-.25-.434-1.064 0-1.816.435-.753 1.14-1.16 1.574-.908.434.25.434 1.064 0 1.816-.435.753-1.14 1.16-1.574.909M109.264 245.796c-.434-.25-.434-1.064 0-1.817.435-.752 1.14-1.16 1.574-.908.434.25.434 1.064 0 1.817-.435.752-1.14 1.159-1.574.908M112.912 243.69c-.434-.251-.434-1.064 0-1.817.435-.752 1.14-1.16 1.574-.908.434.25.434 1.064 0 1.816-.435.753-1.14 1.16-1.574.909M113.853 221.358v5.527M98.464 369.229L214.733 302.1M156.599 335.665v-52.5M156.599 335.665v93.902M140.74 377.527v25.69l9.875-5.703M150.615 371.824v25.69M140.74 377.527l9.875-5.703M162.582 364.915v25.69l9.876-5.702M172.458 359.213v25.69M162.582 364.915l9.876-5.702M140.74 292.322V314.2l9.875-5.702M150.615 286.62v21.878M162.582 279.712v21.877l9.876-5.702M172.458 274.01v21.877M172.458 384.903l-4.342-2.507M168.116 361.72v20.676M162.582 385.591l5.534-3.195M150.615 397.514l-4.342-2.507M150.615 308.498l-4.342-2.507M172.458 295.887l-4.342-2.507M140.74 398.202l5.533-3.195M140.74 309.186l5.533-3.195M162.582 296.575l5.534-3.195M146.273 374.331v20.676M146.273 289.127v16.864M168.116 276.517v16.863M106.728 276.224l9.246 5.339 18.495-10.678M125.223 265.546l9.246 5.339M106.728 276.224l18.495-10.678M129.056 263.286l4.53-2.614M129.056 263.286l3.288 1.898 4.529-2.614M133.586 260.672l3.287 1.898M134.651 266.517l4.53-2.615M134.651 266.517l3.288 1.898 4.529-2.615M139.18 263.902l3.288 1.898M215.839 212.842l-3.649 2.107 3.649 2.106 3.647-2.106zM223.134 217.055l-3.648 2.106 3.648 2.106 3.648-2.106zM230.43 221.267l-3.648 2.106 3.647 2.106 3.649-2.106zM208.542 217.055l-3.647 2.106 3.647 2.106 3.648-2.106zM201.247 221.267l-3.648 2.106 3.648 2.106 3.648-2.106zM215.385 221.005l-3.648 2.106 3.648 2.106 3.648-2.106zM222.68 225.217l-3.647 2.106 3.648 2.106 3.647-2.106zM208.542 225.479l-3.647 2.106 3.647 2.106 3.648-2.106zM215.839 229.691l-3.649 2.106 3.649 2.107 3.647-2.107zM10.765 165.198v48.532M87.94 209.755v48.532M10.765 213.73l77.176 44.557M188.46 3.216v91.77L36.79 182.554M36.79 90.782v91.771M188.46 3.216L36.79 90.782M36.79 182.553l-5.157-2.977M31.633 87.806v91.77M36.79 90.782l-5.157-2.976M188.46 3.216L183.303.239 31.633 87.806" stroke-width="1.9999949999999997"/><path d="M180.351 18.897v67.395L44.9 164.495" stroke-width="1.9999949999999997"/><path d="M180.351 18.897L44.9 97.1v67.395M147.601 111.501v3.383l-8.994 5.194M147.601 114.884l-8.994 5.194M147.601 111.501v3.383M138.607 116.694v3.384M147.601 111.501l-8.994 5.193M133.754 122.88l-8.996 5.193M133.754 122.88l-8.996 5.193M133.754 119.497v3.383M124.758 124.69v3.383M133.754 119.497l-8.996 5.193M119.905 130.875l-8.995 5.193M119.905 130.875l-8.995 5.193M119.905 127.492v3.383M110.91 132.685v3.383M119.905 127.492l-8.995 5.193M106.057 138.87l-8.995 5.194M106.057 138.87l-8.995 5.194M106.057 135.487v3.383M97.062 140.68v3.384M106.057 135.487l-8.995 5.193M112.625 144.308l-6.014 3.472M118.639 140.836l-6.014 3.472M118.639 135.298v5.538M106.611 142.242v5.538l-4.796-2.77M135.451 157.487l-6.013 3.472M129.439 160.959c-7.138 4.12-16.817 6.435-26.91 6.435-9.598 0-18.84-2.094-25.878-5.862M141.465 154.015l-6.014 3.472M142.46 123.538c6.526 4.063 10.152 9.4 10.152 14.94 0 5.827-4.01 11.416-11.147 15.536M102.528 145.423l4.083 2.357M142.459 123.538l-1.726-.996M76.65 161.533l-1.725-.997M135.451 160.05l-6.013 3.471" stroke-width="1.9999949999999997"/><path d="M129.439 163.52c-7.138 4.121-16.817 6.436-26.91 6.436-9.598 0-18.84-2.093-25.878-5.861M152.547 139.76c.043.426.065.853.065 1.28 0 5.828-4.01 11.416-11.147 15.537M141.465 156.577l-6.014 3.473M76.65 164.095l-3.944-2.278M164.57 108.78l50.163 28.96M.242 148.159l31.391-18.124M308.03 135.11v297.888l115.63 66.76M423.66 201.87v297.888M308.03 135.11l115.63 66.76 146.47-84.564M423.66 499.758l146.47-84.564M570.13 117.306v297.888M308.03 135.11l146.469-84.564 115.63 66.76M314.358 411.932l103.1 59.525M314.358 388.087l103.1 59.525M314.358 364.241l103.1 59.525M314.358 340.396l103.1 59.525M314.358 316.55l103.1 59.526M314.358 293.143l103.1 59.238M314.358 149.633l103.1 59.24M314.358 149.633v262.3M417.459 208.872v262.585M451.763 59.205l-8.96 5.172M451.763 59.205l103.37 59.68" stroke-width="1.9999949999999997"/><path d="M442.804 64.377l103.369 59.681 8.96-5.173M435.225 68.754l-8.96 5.172M435.225 68.754l103.369 59.68M426.265 73.926l103.37 59.68 8.959-5.172M418.686 78.302l-8.96 5.173M418.686 78.302l103.37 59.68M409.726 83.475l103.37 59.68 8.96-5.172M342.577 171.05l46.662 26.94M342.577 184.497l46.662 26.94M314.358 161.48l103.1 59.526M398.846 210.26l-9.607-12.27M398.846 210.26l-9.607 1.177M332.97 172.227l9.607-1.178M332.97 172.227l9.607 12.27M342.577 194.97l46.662 26.94M342.577 208.417l46.662 26.94M314.358 185.4l103.1 59.527M398.846 234.18l-9.607-12.27M398.846 234.18l-9.607 1.178M332.97 196.147l9.607-1.177M332.97 196.147l9.607 12.27M342.577 218.815l46.662 26.94M342.577 232.263l46.662 26.94M314.358 209.246l103.1 59.526M398.846 258.026l-9.607-12.27M398.846 258.026l-9.607 1.177M332.97 219.992l9.607-1.177M403.673 221.908c-.588.34-1.543-.211-2.132-1.232-.59-1.02-.59-2.123 0-2.463.589-.34 1.544.211 2.133 1.232.589 1.02.589 2.123 0 2.463M407.625 224.19c-.589.34-1.544-.212-2.133-1.232s-.589-2.124 0-2.464c.59-.34 1.544.212 2.133 1.232.59 1.02.59 2.123 0 2.463M411.577 226.47c-.59.34-1.544-.21-2.133-1.231-.59-1.02-.59-2.123 0-2.463.589-.34 1.544.211 2.133 1.231s.589 2.124 0 2.464M415.529 228.752c-.59.34-1.545-.211-2.134-1.232-.589-1.02-.589-2.123 0-2.463.59-.34 1.544.211 2.133 1.232.59 1.02.59 2.123 0 2.463M403.673 245.753c-.588.34-1.543-.211-2.132-1.231-.59-1.02-.59-2.124 0-2.464.589-.34 1.544.212 2.133 1.232s.589 2.123 0 2.463M407.625 248.035c-.589.34-1.544-.212-2.133-1.232s-.589-2.123 0-2.463c.59-.34 1.544.211 2.133 1.231.59 1.02.59 2.123 0 2.464M411.577 250.316c-.59.34-1.544-.211-2.133-1.232-.59-1.02-.59-2.123 0-2.463.589-.34 1.544.211 2.133 1.232.589 1.02.589 2.123 0 2.463M415.529 252.598c-.59.34-1.545-.212-2.134-1.232s-.589-2.123 0-2.464c.59-.34 1.544.212 2.133 1.232.59 1.02.59 2.123 0 2.463M403.673 269.599c-.588.34-1.543-.212-2.132-1.232-.59-1.02-.59-2.123 0-2.463.589-.34 1.544.211 2.133 1.231s.589 2.123 0 2.464M407.625 271.88c-.589.34-1.544-.211-2.133-1.232-.589-1.02-.589-2.123 0-2.463.59-.34 1.544.211 2.133 1.232.59 1.02.59 2.123 0 2.463M411.577 274.162c-.59.34-1.544-.212-2.133-1.232-.59-1.02-.59-2.123 0-2.464.589-.34 1.544.212 2.133 1.232s.589 2.123 0 2.463M415.529 276.443c-.59.34-1.545-.212-2.134-1.232s-.589-2.123 0-2.463c.59-.34 1.544.211 2.133 1.231.59 1.02.59 2.124 0 2.464M332.97 219.992l9.607 12.27M342.577 242.66l46.662 26.94M342.577 256.108l46.662 26.94M314.358 233.092l103.1 59.525M398.846 281.871l-9.607-12.27M398.846 281.871l-9.607 1.178M332.97 243.838l9.607-1.178M403.673 293.444c-.588.34-1.543-.211-2.132-1.232-.59-1.02-.59-2.123 0-2.463.589-.34 1.544.211 2.133 1.232.589 1.02.589 2.123 0 2.463M407.625 295.725c-.589.34-1.544-.211-2.133-1.231s-.589-2.123 0-2.464c.59-.34 1.544.212 2.133 1.232.59 1.02.59 2.123 0 2.463M411.577 298.007c-.59.34-1.544-.212-2.133-1.232-.59-1.02-.59-2.123 0-2.463.589-.34 1.544.211 2.133 1.231s.589 2.124 0 2.464M415.529 300.288c-.59.34-1.545-.211-2.134-1.232-.589-1.02-.589-2.123 0-2.463.59-.34 1.544.212 2.133 1.232.59 1.02.59 2.123 0 2.463M332.97 243.838l9.607 12.27M342.577 266.506l46.662 26.94M342.577 279.953l46.662 26.94M314.358 256.937l103.1 59.526M398.846 305.717l-9.607-12.27M398.846 305.717l-9.607 1.177M332.97 267.683l9.607-1.177M403.673 317.29c-.588.34-1.543-.212-2.132-1.232-.59-1.02-.59-2.124 0-2.464.589-.34 1.544.212 2.133 1.232s.589 2.123 0 2.463M407.625 319.57c-.589.34-1.544-.21-2.133-1.231-.589-1.02-.589-2.123 0-2.463.59-.34 1.544.211 2.133 1.231.59 1.02.59 2.124 0 2.464M411.577 321.852c-.59.34-1.544-.211-2.133-1.232-.59-1.02-.59-2.123 0-2.463.589-.34 1.544.211 2.133 1.232.589 1.02.589 2.123 0 2.463M415.529 324.134c-.59.34-1.545-.212-2.134-1.232s-.589-2.123 0-2.463c.59-.34 1.544.21 2.133 1.231.59 1.02.59 2.123 0 2.463M332.97 267.683l9.607 12.27M342.577 290.351l46.662 26.94M342.577 303.799l46.662 26.94M314.358 280.782l103.1 59.526M398.846 329.562l-9.607-12.27M398.846 329.562l-9.607 1.177M332.97 291.528l9.607-1.177M403.673 341.135c-.588.34-1.543-.212-2.132-1.232-.59-1.02-.59-2.123 0-2.463.589-.34 1.544.211 2.133 1.231s.589 2.124 0 2.464M407.625 343.416c-.589.34-1.544-.211-2.133-1.232-.589-1.02-.589-2.123 0-2.463.59-.34 1.544.211 2.133 1.232.59 1.02.59 2.123 0 2.463M411.577 345.698c-.59.34-1.544-.212-2.133-1.232-.59-1.02-.59-2.123 0-2.463.589-.34 1.544.21 2.133 1.231.589 1.02.589 2.123 0 2.463M415.529 347.98c-.59.339-1.545-.212-2.134-1.233-.589-1.02-.589-2.123 0-2.463.59-.34 1.544.211 2.133 1.232.59 1.02.59 2.123 0 2.463M332.97 291.528l9.607 12.27M318.36 310.735v5.488l47.405 27.37M365.765 338.105v5.487M323.55 311.225c-.672.388-1.762-.241-2.434-1.406-.673-1.164-.673-2.422 0-2.81.672-.388 1.762.24 2.434 1.405.672 1.164.672 2.423 0 2.81M327.888 313.73c-.673.387-1.762-.242-2.435-1.406-.672-1.164-.672-2.423 0-2.811.673-.388 1.762.241 2.435 1.405.672 1.165.672 2.423 0 2.811M332.225 316.233c-.672.389-1.762-.24-2.434-1.405-.672-1.164-.672-2.423 0-2.81.672-.389 1.762.24 2.434 1.405.673 1.164.673 2.422 0 2.81M336.563 318.738c-.672.388-1.762-.241-2.434-1.405-.672-1.165-.672-2.423 0-2.811.672-.388 1.762.24 2.434 1.405.672 1.164.672 2.423 0 2.811M318.36 310.735l47.405 27.37M398.96 346.838v15.058l11.918 6.882M410.878 353.72v15.058M397.187 350.14c-.578.333-1.514-.208-2.092-1.208-.577-1-.577-2.081 0-2.415.578-.333 1.514.208 2.092 1.208.577 1 .577 2.081 0 2.415M397.187 354.536c-.578.333-1.514-.207-2.092-1.207-.577-1-.577-2.082 0-2.415.578-.333 1.514.207 2.092 1.207.577 1 .577 2.082 0 2.415M397.187 358.933c-.578.333-1.514-.208-2.092-1.208-.577-1-.577-2.081 0-2.415.578-.333 1.514.208 2.092 1.208.577 1 .577 2.081 0 2.415M398.96 346.838l11.918 6.882M318.36 334.58v5.488l47.405 27.37M365.765 361.95v5.488M323.55 335.07c-.672.388-1.762-.241-2.434-1.405-.673-1.165-.673-2.423 0-2.811.672-.388 1.762.241 2.434 1.405.672 1.165.672 2.423 0 2.811M327.888 337.575c-.673.388-1.762-.242-2.435-1.406-.672-1.164-.672-2.423 0-2.81.673-.389 1.762.24 2.435 1.405.672 1.164.672 2.422 0 2.81M332.225 340.079c-.672.388-1.762-.241-2.434-1.405-.672-1.165-.672-2.423 0-2.811.672-.388 1.762.24 2.434 1.405.673 1.164.673 2.423 0 2.81M336.563 342.583c-.672.388-1.762-.24-2.434-1.405-.672-1.164-.672-2.423 0-2.81.672-.389 1.762.24 2.434 1.405.672 1.164.672 2.422 0 2.81M318.36 334.58l47.405 27.37M398.96 370.684v15.057l11.918 6.882M410.878 377.565v15.058M397.187 373.985c-.578.333-1.514-.207-2.092-1.207-.577-1-.577-2.082 0-2.415.578-.334 1.514.207 2.092 1.207.577 1 .577 2.082 0 2.415M397.187 378.381c-.578.334-1.514-.207-2.092-1.207-.577-1-.577-2.081 0-2.415.578-.333 1.514.207 2.092 1.208.577 1 .577 2.081 0 2.414M397.187 382.778c-.578.333-1.514-.207-2.092-1.207-.577-1-.577-2.082 0-2.415.578-.334 1.514.207 2.092 1.207.577 1 .577 2.081 0 2.415M398.96 370.684l11.918 6.881M318.36 358.426v5.487l47.405 27.37M365.765 385.796v5.487M323.55 358.916c-.672.388-1.762-.242-2.434-1.406-.673-1.164-.673-2.423 0-2.81.672-.389 1.762.24 2.434 1.405.672 1.164.672 2.422 0 2.81M327.888 361.42c-.673.388-1.762-.241-2.435-1.406-.672-1.164-.672-2.422 0-2.81.673-.388 1.762.24 2.435 1.405.672 1.164.672 2.423 0 2.81M332.225 363.924c-.672.388-1.762-.24-2.434-1.405-.672-1.164-.672-2.423 0-2.81.672-.389 1.762.24 2.434 1.405.673 1.164.673 2.422 0 2.81M336.563 366.428c-.672.389-1.762-.24-2.434-1.405-.672-1.164-.672-2.422 0-2.81.672-.389 1.762.24 2.434 1.405.672 1.164.672 2.423 0 2.81M318.36 358.426l47.405 27.37M398.96 394.53v15.057l11.918 6.882M410.878 401.41v15.059M397.187 397.83c-.578.334-1.514-.207-2.092-1.207-.577-1-.577-2.081 0-2.415.578-.333 1.514.207 2.092 1.208.577 1 .577 2.08 0 2.414M397.187 402.227c-.578.333-1.514-.207-2.092-1.208-.577-1-.577-2.08 0-2.414.578-.334 1.514.207 2.092 1.207.577 1 .577 2.081 0 2.415M397.187 406.623c-.578.334-1.514-.207-2.092-1.207-.577-1-.577-2.081 0-2.415.578-.333 1.514.207 2.092 1.208.577 1 .577 2.08 0 2.414M398.96 394.53l11.918 6.88M318.36 382.272v5.487l47.405 27.37M365.765 409.641v5.487M323.55 382.761c-.672.388-1.762-.241-2.434-1.406-.673-1.164-.673-2.422 0-2.81.672-.388 1.762.24 2.434 1.405.672 1.164.672 2.423 0 2.81M327.888 385.266c-.673.387-1.762-.242-2.435-1.406-.672-1.164-.672-2.423 0-2.81.673-.389 1.762.24 2.435 1.404.672 1.165.672 2.423 0 2.811M332.225 387.77c-.672.388-1.762-.241-2.434-1.406-.672-1.164-.672-2.422 0-2.81.672-.389 1.762.24 2.434 1.405.673 1.164.673 2.423 0 2.81M336.563 390.274c-.672.388-1.762-.241-2.434-1.405-.672-1.165-.672-2.423 0-2.811.672-.388 1.762.241 2.434 1.405.672 1.165.672 2.423 0 2.811M318.36 382.272l47.405 27.369M398.96 418.374v15.058l11.918 6.882M410.878 425.256v15.058M397.187 421.676c-.578.333-1.514-.208-2.092-1.208-.577-1-.577-2.081 0-2.414.578-.334 1.514.207 2.092 1.207.577 1 .577 2.081 0 2.415M397.187 426.072c-.578.334-1.514-.207-2.092-1.207-.577-1-.577-2.082 0-2.415.578-.333 1.514.207 2.092 1.207.577 1 .577 2.082 0 2.415M397.187 430.469c-.578.333-1.514-.208-2.092-1.208-.577-1-.577-2.081 0-2.414.578-.334 1.514.207 2.092 1.207.577 1 .577 2.081 0 2.415M398.96 418.374l11.918 6.882M318.36 406.117v5.487l47.405 27.37M365.765 433.486v5.488M323.55 406.606c-.672.388-1.762-.24-2.434-1.405-.673-1.164-.673-2.423 0-2.811.672-.388 1.762.241 2.434 1.405.672 1.165.672 2.423 0 2.811M327.888 409.111c-.673.388-1.762-.242-2.435-1.406-.672-1.164-.672-2.422 0-2.81.673-.389 1.762.24 2.435 1.405.672 1.164.672 2.423 0 2.81M332.225 411.615c-.672.388-1.762-.241-2.434-1.405-.672-1.165-.672-2.423 0-2.811.672-.388 1.762.241 2.434 1.405.673 1.164.673 2.423 0 2.811M336.563 414.12c-.672.387-1.762-.242-2.434-1.406-.672-1.164-.672-2.423 0-2.81.672-.389 1.762.24 2.434 1.405.672 1.164.672 2.422 0 2.81M318.36 406.117l47.405 27.37M398.96 442.22v15.058l11.918 6.881M410.878 449.102v15.057M397.187 445.52c-.578.334-1.514-.206-2.092-1.206-.577-1-.577-2.082 0-2.415.578-.333 1.514.207 2.092 1.207.577 1 .577 2.082 0 2.415M397.187 449.918c-.578.333-1.514-.208-2.092-1.208-.577-1-.577-2.081 0-2.415.578-.333 1.514.208 2.092 1.208.577 1 .577 2.081 0 2.414M397.187 454.314c-.578.333-1.514-.207-2.092-1.207-.577-1-.577-2.082 0-2.415.578-.334 1.514.207 2.092 1.207.577 1 .577 2.082 0 2.415M398.96 442.22l11.918 6.882M461.411 113.315l8.96-5.173M464.534 115.118l8.96-5.172M467.657 116.921l8.96-5.172M470.78 118.724l8.96-5.173M473.903 120.528l8.96-5.173M477.027 122.33l8.96-5.172M480.15 124.133l8.959-5.172M483.272 125.937l8.96-5.173M486.396 127.74l8.96-5.172M489.52 129.543l8.958-5.173M492.642 131.346l8.96-5.173M495.765 133.15l8.96-5.173M498.888 134.953l8.96-5.173M502.011 136.755l8.96-5.172M505.134 138.559l8.96-5.173M508.258 140.362l8.959-5.173M511.38 142.165l8.96-5.173M458.288 111.512l8.96-5.173M455.165 109.709l8.96-5.173M452.042 107.906l8.959-5.173M448.919 106.103l8.96-5.173M445.795 104.3l8.96-5.173M442.673 102.496l8.959-5.172M439.55 100.694l8.96-5.173M436.426 98.89l8.96-5.173M433.303 97.087l8.96-5.173M430.18 95.284l8.96-5.173M427.057 93.48l8.96-5.172M423.934 91.677l8.959-5.172M420.81 89.874l8.96-5.172M417.687 88.072l8.96-5.173M414.565 86.268l8.959-5.173M411.442 84.465l8.96-5.173M477.95 103.766l8.959-5.172M481.073 105.57l8.96-5.173M484.196 107.373l8.96-5.173M487.32 109.176l8.958-5.173M490.442 110.98l8.96-5.174M493.565 112.782l8.96-5.173M496.689 114.586l8.958-5.173M499.811 116.388l8.96-5.172M502.934 118.191l8.96-5.172M506.058 119.994l8.959-5.173M509.18 121.798l8.96-5.173M512.304 123.601l8.96-5.173M515.427 125.404l8.959-5.173M518.55 127.207l8.96-5.173M521.673 129.01l8.96-5.172M524.796 130.813l8.96-5.172M527.919 132.616l8.96-5.173M474.827 101.964l8.96-5.173M471.703 100.16l8.96-5.173M468.58 98.357l8.96-5.173M465.457 96.554l8.96-5.172M462.334 94.75l8.96-5.172M459.211 92.947l8.96-5.172M456.088 91.145l8.96-5.173M452.965 89.342l8.96-5.173M449.842 87.538l8.959-5.173M446.719 85.735l8.96-5.173M443.595 83.932l8.96-5.172M440.473 82.129l8.959-5.172M437.35 80.326l8.96-5.173M434.226 78.523l8.96-5.173M431.104 76.72l8.958-5.173M427.98 74.917l8.96-5.173M494.489 94.218l8.958-5.173M497.611 96.02l8.96-5.172M500.735 97.824l8.96-5.172M503.858 99.627l8.959-5.173M506.98 101.43l8.96-5.173M510.104 103.234l8.96-5.173M513.227 105.037l8.96-5.173M516.35 106.84l8.96-5.173M519.473 108.643l8.96-5.173M522.596 110.446l8.96-5.172M525.719 112.25l8.96-5.174M528.842 114.052l8.96-5.173M531.966 115.856l8.959-5.173M535.088 117.658l8.96-5.172M538.212 119.461l8.96-5.172M541.335 121.265l8.959-5.173M544.458 123.068l8.96-5.173M491.365 92.415l8.96-5.173M488.242 90.612l8.96-5.173M485.12 88.808l8.958-5.173M481.996 87.005l8.96-5.172M478.873 85.202l8.96-5.172M475.75 83.399l8.959-5.172M472.627 81.596l8.96-5.173M469.503 79.793l8.96-5.173M466.38 77.99l8.96-5.173M463.257 76.187l8.96-5.173M460.134 74.383l8.96-5.172M457.011 72.58l8.96-5.172M453.888 70.778l8.96-5.173M450.765 68.974l8.96-5.173M447.642 67.171l8.959-5.173M444.519 65.368l8.96-5.173M402.147 87.851l-8.96 5.172M402.147 87.851l103.37 59.68M393.188 93.023l103.369 59.681 8.96-5.173M444.873 122.863l8.959-5.172M447.995 124.667l8.96-5.173M451.119 126.47l8.96-5.173M454.242 128.273l8.959-5.173M457.365 130.076l8.96-5.173M460.488 131.88l8.96-5.173M463.611 133.682l8.96-5.172M466.734 135.485l8.96-5.172M469.857 137.289l8.96-5.173M472.98 139.092l8.96-5.173M476.103 140.895l8.96-5.173M479.226 142.698l8.96-5.173M482.35 144.5l8.959-5.172M485.472 146.304l8.96-5.172M488.596 148.107l8.96-5.172M491.72 149.91l8.958-5.173M494.842 151.714l8.96-5.173M441.75 121.06l8.959-5.172M438.626 119.258l8.96-5.173M435.503 117.454l8.96-5.173M432.38 115.651l8.96-5.173M429.257 113.848l8.96-5.172M426.134 112.045l8.959-5.173M423.01 110.241l8.96-5.172M419.887 108.439l8.96-5.173M416.765 106.636l8.959-5.173M413.641 104.833l8.96-5.174M410.518 103.03l8.96-5.173M407.396 101.226l8.958-5.172M404.272 99.423l8.96-5.172M401.149 97.62l8.96-5.173M398.026 95.817l8.96-5.173M394.903 94.014l8.96-5.173M385.609 97.399l-8.96 5.173M385.609 97.399l103.369 59.68M376.649 102.572l103.37 59.68 8.959-5.172M428.334 132.412l8.959-5.172M431.457 134.215l8.96-5.172M434.58 136.018l8.96-5.173M437.703 137.822l8.96-5.173M440.826 139.625l8.96-5.173M443.95 141.427l8.959-5.172M447.073 143.23l8.958-5.172M450.195 145.034l8.96-5.172M453.319 146.837l8.96-5.173M456.442 148.64l8.959-5.173M459.564 150.444l8.96-5.173M462.688 152.247l8.96-5.173M465.811 154.05l8.959-5.173M468.934 155.853l8.96-5.173M472.057 157.656l8.96-5.173M475.18 159.46l8.96-5.174M478.303 161.262l8.96-5.173M425.21 130.609l8.96-5.172M422.087 128.806l8.96-5.173M418.965 127.003l8.959-5.173M415.841 125.2l8.96-5.173M412.718 123.397l8.96-5.173M409.595 121.593l8.96-5.172M406.472 119.79l8.96-5.172M403.349 117.988l8.96-5.173M400.226 116.184l8.959-5.173M397.103 114.381l8.96-5.173M393.98 112.578l8.96-5.173M390.857 110.775l8.959-5.173M387.733 108.971l8.96-5.172M384.61 107.168l8.96-5.172M381.488 105.366l8.958-5.173M378.364 103.562l8.96-5.173M369.07 106.948l-8.96 5.173M369.07 106.948l103.37 59.68M360.11 112.12l103.37 59.68 8.96-5.172M411.795 141.96l8.96-5.172M414.918 143.764l8.96-5.173M418.041 145.567l8.96-5.173M421.165 147.37l8.959-5.173M424.287 149.174l8.96-5.173M427.41 150.976l8.96-5.172M430.534 152.78l8.959-5.173M433.657 154.583l8.96-5.173M436.78 156.386l8.96-5.173M439.903 158.19l8.96-5.174M443.026 159.992l8.96-5.173M446.15 161.795l8.959-5.172M449.273 163.598l8.958-5.172M452.395 165.401l8.96-5.172M455.518 167.204l8.96-5.173M458.642 169.008l8.959-5.173M461.764 170.811l8.96-5.173M408.672 140.157l8.96-5.172M405.549 138.355l8.96-5.173M402.426 136.552l8.959-5.173M399.303 134.748l8.96-5.173M396.18 132.945l8.959-5.173M393.057 131.142l8.959-5.172M389.933 129.339l8.96-5.172M386.81 127.535l8.96-5.172M383.688 125.733l8.958-5.173M380.564 123.93l8.96-5.173M377.44 122.127l8.96-5.173M374.318 120.323l8.96-5.172M371.195 118.52l8.96-5.172M368.071 116.717l8.96-5.172M364.949 114.914l8.959-5.173M361.826 113.111l8.96-5.173M352.531 116.496l-8.96 5.173M352.531 116.496l103.37 59.681M343.572 121.67l103.369 59.68 8.96-5.173M395.257 151.51l8.959-5.173M398.38 153.313l8.959-5.173M401.503 155.116l8.96-5.173M404.626 156.919l8.959-5.173M407.749 158.722l8.96-5.173M410.872 160.525l8.96-5.173M413.995 162.328l8.96-5.172M417.118 164.131l8.96-5.173M420.241 165.934l8.96-5.173M423.365 167.738l8.958-5.173M426.487 169.54l8.96-5.172M429.61 171.343l8.96-5.172M432.734 173.147l8.959-5.173M435.856 174.95l8.96-5.172M438.98 176.753l8.96-5.173M442.103 178.556l8.959-5.173M445.226 180.36l8.96-5.173M392.133 149.706l8.96-5.172M389.01 147.903l8.96-5.172M385.887 146.1l8.96-5.173M382.764 144.297l8.96-5.173M379.64 142.494l8.96-5.173M376.518 140.69l8.959-5.172M373.395 138.887l8.96-5.172M370.271 137.084l8.96-5.172M367.149 135.282l8.959-5.173M364.025 133.478l8.96-5.173M360.902 131.675l8.96-5.173M357.78 129.872l8.958-5.173M354.656 128.069l8.96-5.173M351.533 126.265l8.96-5.172M348.41 124.463l8.96-5.173M345.287 122.66l8.96-5.173M48.302 175.907l50.162 28.961M.242 148.159l31.391 18.124M38.808 181.389l49.133 28.366M10.765 165.198l20.868 12.049" stroke-width="1.9999949999999997"/></g></svg>