<svg xmlns="http://www.w3.org/2000/svg" width="435" height="386"><g fill="none" stroke="#646464" stroke-linecap="round" stroke-linejoin="round"><path d="M7.712 269.063l40.196 23.358M55.12 292.512L290.228 155.78M47.908 292.398v40.366M47.91 332.762c0 1.158 1.614 2.096 3.605 2.096 1.992 0 3.606-.938 3.606-2.095M55.12 292.398v40.366M47.908 252.147v40.365M55.12 252.147v40.365M.5 305.327c0 1.157 1.615 2.095 3.606 2.095 1.992 0 3.606-.938 3.606-2.095M.5 264.963v40.364M7.712 269.04v36.287M.5 224.598v40.365M7.712 224.598v44.442M290.23 191.951c0 1.158 1.614 2.096 3.605 2.096 1.992 0 3.606-.938 3.606-2.096M297.44 151.588v40.363M290.228 111.335V151.7M297.44 111.335V151.7M7.712 260.75l12.978-7.583M290.228 155.78v36.171M.5 184.12v40.364M7.712 184.12v40.364M47.908 211.782v40.365M55.12 211.782v40.365M242.82 43.308v2.095M250.032 43.308v1.944M290.228 68.876v40.363M297.44 68.876v40.363M7.712 186.223l40.196 23.455M55.12 209.656L290.228 71.002M290.228 66.93l-19.346-10.433M7.712 143.753c0-1.157-1.614-2.095-3.606-2.095-1.991 0-3.606.938-3.606 2.095 0 1.158 1.615 2.096 3.606 2.096 1.992 0 3.606-.938 3.606-2.096M243.875 44.79l-41.78 24.277M7.712 143.754v40.366M55.122 171.416c0-1.157-1.615-2.096-3.607-2.096-1.991 0-3.606.939-3.606 2.096s1.615 2.095 3.606 2.095c1.992 0 3.606-.938 3.606-2.095M.5 143.754v40.366M55.12 171.416v40.366M250.032 2.942c0-1.157-1.614-2.095-3.606-2.095-1.991 0-3.606.938-3.606 2.095 0 1.157 1.615 2.096 3.606 2.096 1.992 0 3.606-.939 3.606-2.096M47.908 171.416v40.366M250.032 2.942v40.366M297.442 28.509c0-1.157-1.615-2.095-3.607-2.095-1.991 0-3.606.938-3.606 2.095 0 1.158 1.615 2.096 3.606 2.096 1.992 0 3.606-.938 3.606-2.096M242.82 2.942v40.366M297.44 28.51v40.366M242.82 43.308c0 1.156 1.615 2.095 3.606 2.095 1.992 0 3.606-.939 3.606-2.096M290.228 28.51v40.366M297.44 111.335v-2.096M290.228 109.24v2.095M290.228 155.78v-4.08M290.228 111.335L55.12 247.956M290.228 66.93L55.12 203.55M290.228 107.125L55.12 243.745M277.258 99.554l12.97 7.57M290.228 151.625L55.12 288.245M290.228 151.625l-13.052-7.584M7.712 264.818l40.196 23.359M7.712 224.62l40.196 23.359M7.712 220.41l40.196 23.358M7.712 220.41l29.354-17.059M7.712 180.119l40.196 23.454M277.176 144.04l-8.278-4.81M243.962 150.846v16.74l16.69-9.699M243.962 150.846V138.22M260.651 157.887l8.247-4.791M268.898 136.356v16.74M268.898 136.356V123.73M243.962 167.586l-17.979-10.447" stroke-width=".9999974999999999"/><path d="M247.233 140.074v22.094l19.27-11.195M266.502 128.876v22.097M247.233 140.074l19.27-11.198M241.411 140.352v22.095l-15.438-8.971M241.411 140.352l-.558-.325M231.56 145.427l9.851 17.02M247.233 140.074l19.27 10.899M247.233 162.168l19.27-33.292M91.767 226.661v32.309L59.153 277.92l-4.033-2.343M59.153 245.613v32.308M20.69 232.162v23.41M81.448 232.656v2.833M75.46 236.136v2.831M81.448 235.49l-5.987 3.477M71.436 240.7v11.12l-9.499 5.52M61.937 246.22v11.12M71.436 240.7l-9.499 5.52M112.12 245.838L91.767 234.09M159.138 218.33l-47.018 27.508-.077-30.96M159.138 218.33l-.079-30.774M140.358 198.425l.013 7.888M135.55 201.219l.013 7.907M140.37 206.313l-4.808 2.813" stroke-width=".9999974999999999"/><path d="M129.147 214.098l.032 10.575-12.997 7.605M116.151 221.702l.03 10.576M129.147 214.098l-12.996 7.604M179.03 207.103l-19.958-11.519M226.049 179.596l-47.018 27.507-.066-22.518M226.049 179.596l-.066-22.457M207.266 168.028l.014 5.326M202.457 170.842l.016 5.325M202.457 170.842l-23.51 13.753M225.967 157.089l-18.701 10.94M207.28 173.354l-4.807 2.813M207.266 168.028l-4.809 2.814" stroke-width=".9999974999999999"/><path d="M196.058 181.14l.03 10.575-12.996 7.603M183.062 188.744l.03 10.574M196.058 181.14l-12.996 7.604M47.908 271.387L20.69 255.572M85.498 216.797L61.654 230.65l-6.534-3.797M61.654 230.651v-24.85M37.058 216.359l.008-13.008M85.498 216.797V191.74M75.462 197.659v3.86M72.296 199.526v3.835M75.462 201.52l-3.166 1.84M82.925 198.991v7.101l-5.502 3.198M77.423 202.19v7.1M82.925 198.991l-5.502 3.198M104.539 204.67l-19.04-10.99M151.558 177.164l-47.02 27.505-.068-24.117M151.558 177.164l-.07-24.34M132.786 163.852l.003 1.294M127.978 166.688l.005 1.271M132.79 165.146l-4.807 2.813" stroke-width=".9999974999999999"/><path d="M121.567 172.93l.03 10.577-12.995 7.603M108.57 180.534l.032 10.576M121.567 172.93l-12.997 7.604M194.785 150.992l-23.844 13.854-19.452-11.301M170.94 164.846v-23.495M194.785 150.992V127.29M184.749 133.208v2.507M181.583 135.075v2.481M184.749 135.715l-3.166 1.841M192.21 133.188v7.1l-5.502 3.198M186.708 136.385v7.1M192.21 133.188l-5.502 3.197M233.22 127.78l-23.843 13.856-14.592-8.48M209.377 141.636v-22.952M233.22 127.78v-23.158M223.186 110.54v1.963M220.018 112.407v1.938M223.186 112.503l-3.168 1.842M230.648 109.977v7.099l-5.503 3.198M225.145 113.175v7.099M230.648 109.977l-5.503 3.198M277.258 78.652v27.043l-32.614 18.952-11.423-6.638M244.644 97.885v26.762" stroke-width=".9999974999999999"/><path d="M256.925 90.642v7.904l-9.498 5.519M247.427 96.243v7.822M47.908 222.663l-10.85-6.304M64.516 189.71l-9.396-5.423M97.43 170.455L64.517 189.71l-.056-19.798M42.036 176.734l-.057-19.798M97.43 170.455l-.057-19.798-22.482-12.975M64.46 169.911L41.98 156.936M80.917 160.285L58.435 147.31M61.801 145.34l22.48 12.975.01 3.728M80.917 160.285l.01 3.728M80.917 160.285l-16.457 9.626M97.373 150.657l-13.092 7.658M84.292 162.043l-3.366 1.97M74.891 137.682L41.98 156.936M84.281 158.315l-3.364 1.97" stroke-width=".9999974999999999"/><path d="M76.436 167.492l.022 7.404-9.097 5.322M67.339 172.815l.022 7.403M76.436 167.492l-9.097 5.323M126.457 147.873l-16.691 9.699-17.217-10.005M109.766 157.572v-17.209M92.549 147.567v-17.21M126.457 147.873v-17.208M109.24 120.659l-16.691 9.698M126.457 130.665l-16.691 9.698M126.457 130.665l-17.217-10.006M109.766 140.363l-17.217-10.006M119.432 134.746l-17.217-10.006M117.216 136.034l-17.219-10.005M119.432 134.746v2.434M117.216 136.034v2.433M119.432 137.18l-2.216 1.287M124.655 135.41v4.97l-3.85 2.238M120.804 137.648v4.97M124.655 135.41l-3.85 2.238M217.85 95.432l-16.69 9.698-17.217-10.004M201.16 105.13V87.922M183.943 95.126v-17.21M217.85 95.432V78.223M200.633 68.217l-16.69 9.699M217.85 78.223l-16.69 9.699M217.85 78.223l-17.217-10.006M201.16 87.922l-17.217-10.006M210.825 82.305l-17.217-10.004M208.609 83.593l-17.217-10.005M210.825 82.305v2.434M208.609 83.593v2.433M210.825 84.739l-2.216 1.287M216.05 82.97v4.968l-3.853 2.239M212.197 85.207v4.97M216.05 82.97l-3.853 2.237M183.943 79.617L158.38 94.471M92.549 132.725l-13.078 7.6M41.993 162.102L7.712 182.024" stroke-width=".9999974999999999"/><path d="M215.938 311.823l58.754-34.833M176.617 289.432l39.321 22.391M235.37 254.599l39.322 22.39M215.938 311.823l.595 68.639M176.617 289.432l.366 42.245M294.868 334.02l-.205-23.5-19.971-33.53M168.948 362.971l39.32 22.391M168.75 340.428l8.41-8.94M168.75 340.428l39.322 22.391M168.948 362.971l-.197-22.543M208.072 362.82l.197 22.542M216.533 380.462l-8.264 4.9M275.588 357.698c3.803 2.167 9.909-1.452 13.636-8.083 3.727-6.631 3.665-13.762-.138-15.928-3.804-2.166-9.909 1.453-13.636 8.084-3.728 6.63-3.666 13.762.138 15.928" stroke-width="1.2573301899999998"/><path d="M280.986 348.095c.762.432 1.983-.292 2.728-1.618.746-1.326.733-2.752-.027-3.185-.761-.434-1.982.29-2.728 1.616-.745 1.327-.733 2.753.028 3.186M270.134 354.594c-3.803-2.166-3.865-9.297-.138-15.928 3.728-6.631 9.833-10.25 13.637-8.085M208.072 362.82l8.232-8.752-39.32-22.391M283.632 330.582l5.452 3.106M230.962 384.156c3.803 2.167 9.908-1.453 13.635-8.084 3.728-6.63 3.666-13.762-.138-15.928-3.803-2.166-9.908 1.454-13.636 8.085-3.727 6.63-3.665 13.762.138 15.928" stroke-width="1.2573301899999998"/><path d="M236.36 374.551c.761.434 1.982-.29 2.728-1.616.745-1.326.733-2.753-.028-3.186-.76-.433-1.982.29-2.727 1.617-.746 1.326-.733 2.752.027 3.186M225.508 381.05c-3.804-2.165-3.865-9.296-.138-15.927 3.727-6.63 9.832-10.25 13.636-8.084M270.134 354.594l5.452 3.106M239.005 357.04l5.453 3.105M225.508 381.053l5.452 3.106M291.24 336.173l3.628-2.153M246.613 362.63l20.811-12.34M216.533 380.462l6.265-3.713M300.69 328.741l.076 8.638M304.198 326.663l.075 8.636M300.69 328.741l3.508-2.078M300.766 337.379l3.507-2.08M329.672 313.517l18.513-8.078-3.936-2.242M348.185 305.44l.011 1.04M304.248 332.533l43.947-26.054M304.216 328.61l25.456-15.093M248.858 217.147l3.508-2.08M248.858 217.147l7.332 4.174 3.508-2.078-7.332-4.176M292.642 242.08l3.509-2.08M300.69 328.741l-.714-82.485M304.198 326.663l-.716-82.487M292.642 242.08l7.334 4.176 3.506-2.08-7.331-4.176M256.584 266.678l-.394-45.357M260.127 268.698l-.429-49.455M249.25 262.504l-.392-45.357M294.794 325.382l5.896 3.359M294.868 334.02l5.898 3.359M293.215 308.088l-.573-66.008M286.424 315.405L269.7 287.33M286.424 315.405l.053 4.186M220.986 259.263l-3.238 1.92M243.873 285.57c-2.26 1.338-5.96-.77-8.265-4.708-2.305-3.939-2.342-8.217-.082-9.557 2.259-1.34 5.959.768 8.264 4.706 2.305 3.939 2.342 8.218.083 9.557" stroke-width="1.2573301899999998"/><path d="M247.111 283.647c2.26-1.339 2.223-5.617-.082-9.556-2.305-3.939-6.005-6.046-8.264-4.706" stroke-width="1.2573301899999998"/><path d="M247.111 283.647c3.786-2.539 4.808-7.685 2.285-11.495-2.326-3.512-6.904-4.704-10.631-2.767M230.373 264.028l-3.239 1.922" stroke-width="1.2573301899999998"/><path d="M241.281 268.647c-1.882-4.333-6.898-6.31-11.204-4.416a8.61 8.61 0 0 0-.201.092" stroke-width="1.2573301899999998"/><path d="M232.393 263.585c-1.883-4.333-6.899-6.31-11.204-4.415a8.29 8.29 0 0 0-.202.092" stroke-width="1.2573301899999998"/><path d="M229.555 264.513a13.41 13.41 0 0 0-.303-.545c-2.305-3.939-6.005-6.046-8.265-4.706M226.328 266.456c-.1-.191-.206-.38-.315-.568-2.305-3.938-6.005-6.045-8.265-4.706-2.26 1.34-2.222 5.618.083 9.557s6.005 6.046 8.265 4.706c.114-.067.222-.143.326-.227M238.433 269.552c-.094-.176-.192-.35-.292-.523-2.306-3.938-6.006-6.045-8.265-4.706" stroke-width="1.2573301899999998"/><path d="M235.216 271.518c-.1-.192-.205-.381-.315-.568-2.305-3.939-6.005-6.046-8.264-4.706-2.26 1.34-2.222 5.618.083 9.556 2.305 3.94 6.005 6.046 8.264 4.707.107-.063.209-.134.306-.211M238.764 269.386l-2.93 1.708M247.111 283.649l-3.238 1.92-4.017 2.382M250.042 281.91l-6.17 3.66" stroke-width="1.2573301899999998"/><path d="M217.83 270.74l-4.017 2.381 26.043 14.83.017 1.964 10.188-6.04M250.042 281.91l.019 1.966M250.042 281.91l-.74-.422M213.831 275.086l26.041 14.83M213.813 273.121l.019 1.965M227.802 259.085l7.569-4.486M176.617 289.432l39.53-23.435M261.876 347.755l5.89-17.1M246.916 356.658l14.96-8.903M246.916 356.658v-55.82L269.7 287.33" stroke-width="1.2573301899999998"/><path d="M251.196 330.918c-.592-.343-.592-1.457 0-2.488.592-1.03 1.55-1.588 2.142-1.244.59.343.59 1.458 0 2.488-.592 1.031-1.55 1.588-2.142 1.245M267.766 330.655l18.71-11.064M222.281 328.682l17.728-10.301M222.281 326.034l17.728-10.302M222.281 323.387l17.728-10.301M222.281 320.738l17.728-10.301M222.281 318.09l17.728-10.302M222.281 315.443l17.728-10.301M222.281 315.443v13.24M240.009 305.142v13.239M222.281 346.887l17.728-10.301M222.281 344.238l17.728-10.3M222.281 341.592l17.728-10.304M222.281 338.943l17.728-10.301M222.281 336.294l17.728-10.3M222.281 333.648l17.728-10.304M222.281 333.648v13.239M240.009 323.344v13.242M221.161 353.326l7.779-4.519v6.085M221.161 359.41l7.779-4.518M222.408 356.067c-.211-.122-.211-.52 0-.888.21-.368.553-.567.764-.444.211.123.211.52 0 .888-.21.368-.553.567-.764.445M221.161 353.326v6.084M182.516 299.41l27.524 15.673M182.516 327.519l27.524 15.673M182.516 299.41v28.109M210.04 315.083v28.11M178.591 356.047l18.773 10.692.055 6.238M176.752 357.14l18.773 10.69M176.806 363.378l18.773 10.69M195.525 367.83l.054 6.238M176.752 357.14l.054 6.238M195.525 367.83l1.84-1.091M195.58 374.068l1.839-1.09M176.752 357.14l1.84-1.093M304.216 328.61v-71.808M259.8 230.993l32.913 19.126M331.742 312.612l12.507-7.266V233.54M304.216 256.802l40.033-23.263M297.59 206.427l46.659 27.112M259.779 228.4l37.811-21.973M276.2 240.522l40.032-23.262M284.722 245.475l40.032-23.263M276.2 240.522v11.228M284.722 245.475v11.228M276.2 251.75l8.522 4.953M303.589 256.438l.627.364" stroke-width="1.2573301899999998"/><path d="M225.967 157.089l-7.237-4.206M225.973 153.476l-4.132-2.4M224.02 150.189l-1.93 1.05M178.947 184.595l-7.395-4.298M343.66 126.635c0-5.226-7.29-9.462-16.281-9.462-8.992 0-16.28 4.236-16.28 9.461 0 5.225 7.288 9.46 16.28 9.46s16.281-4.235 16.281-9.46M343.659 126.635v44.928M343.66 171.563c0 5.224-7.29 9.46-16.281 9.46-8.992 0-16.28-4.236-16.28-9.46" stroke-width=".9999974999999999"/><path d="M343.66 135.49c0 5.225-7.29 9.461-16.281 9.461-8.992 0-16.28-4.236-16.28-9.46M343.66 165.637c0 5.225-7.29 9.46-16.281 9.46-8.992 0-16.28-4.235-16.28-9.46M314.574 127.434c0-.604.844-1.094 1.885-1.094 1.04 0 1.884.49 1.884 1.095 0 .604-.844 1.094-1.884 1.094-1.041 0-1.884-.49-1.884-1.094" stroke-width=".9999974999999999"/><path d="M343.66 137.859c0 5.224-7.29 9.46-16.281 9.46-8.992 0-16.28-4.236-16.28-9.46M343.66 163.025c0 5.225-7.29 9.46-16.281 9.46-8.992 0-16.28-4.235-16.28-9.46" stroke-width=".9999974999999999"/><path d="M343.66 140.226c0 5.225-7.29 9.46-16.281 9.46-8.992 0-16.28-4.235-16.28-9.46M343.66 160.412c0 5.226-7.29 9.462-16.281 9.462-8.992 0-16.28-4.236-16.28-9.461M311.098 126.635v44.928M402.22 243.12l32.062-18.632M355.122 215.75l47.098 27.37v-28.284M434.282 224.488v-28.283M355.122 215.75v-28.283l32.062-18.63M402.22 214.836l32.062-18.63M378.67 201.153l32.062-18.631M405.916 179.723l-32.062 18.63v5.325M378.67 201.153v5.324M378.67 201.153l23.55 13.683M355.122 187.467l18.732 10.887M373.854 203.678l4.817 2.799M387.184 168.836l47.098 27.37M373.854 198.354l4.817 2.799" stroke-width=".9999974999999999"/><path d="M385.1 211.43v10.577l13.019 7.566M398.119 218.997v10.576M385.1 211.43l13.019 7.567M134.654 283.734c0-5.224-7.289-9.46-16.28-9.46-8.992 0-16.281 4.236-16.281 9.461 0 5.225 7.289 9.461 16.28 9.461 8.992 0 16.281-4.236 16.281-9.46M134.654 283.736v44.928M134.654 328.663c0 5.225-7.289 9.46-16.28 9.46-8.992 0-16.281-4.235-16.281-9.46" stroke-width=".9999974999999999"/><path d="M134.654 292.591c0 5.226-7.289 9.461-16.28 9.461-8.992 0-16.281-4.235-16.281-9.46M134.654 322.738c0 5.225-7.289 9.46-16.28 9.46-8.992 0-16.281-4.235-16.281-9.46M105.568 284.536c0-.605.844-1.095 1.885-1.095 1.04 0 1.884.49 1.884 1.095 0 .604-.844 1.094-1.884 1.094s-1.884-.49-1.884-1.094" stroke-width=".9999974999999999"/><path d="M134.654 294.959c0 5.225-7.289 9.461-16.28 9.461-8.992 0-16.281-4.236-16.281-9.46M134.654 320.126c0 5.225-7.289 9.46-16.28 9.46-8.992 0-16.281-4.235-16.281-9.46" stroke-width=".9999974999999999"/><path d="M134.654 297.326c0 5.226-7.289 9.462-16.28 9.462-8.992 0-16.281-4.236-16.281-9.461M134.654 317.514c0 5.225-7.289 9.46-16.28 9.46-8.992 0-16.281-4.235-16.281-9.46M102.092 283.736v44.928M148.806 117.042c0 2-2.791 3.622-6.234 3.622s-6.234-1.622-6.234-3.622M141.27 91.384l-4.934 6.279v19.38M148.805 97.663v19.38M143.873 90.417c0-.417-.582-.756-1.301-.756s-1.301.339-1.301.757c0 .417.582.756 1.301.756s1.301-.339 1.301-.756M143.873 91.384c0 .417-.582.756-1.301.756s-1.301-.339-1.301-.756M143.873 91.384l4.932 6.279M143.873 90.418v.966M158.381 111.478c0 2-2.79 3.622-6.234 3.622-1.183 0-2.342-.196-3.341-.564M141.27 90.418v.966M145.912 92.097v1.883M158.38 92.097v19.381M150.845 85.82l-4.933 6.277M153.448 84.853c0-.417-.582-.756-1.3-.756-.72 0-1.302.339-1.302.756 0 .418.583.756 1.301.756.719 0 1.302-.338 1.302-.756M153.448 85.82c0 .417-.582.756-1.3.756-.72 0-1.302-.339-1.302-.757M153.448 85.82l4.932 6.277M153.448 84.854v.966M150.845 84.854v.966M136.336 107.28l-25.06 14.563M270.882 53.36v17.275M263.09 58.198c0 1.251 1.745 2.265 3.897 2.265 2.152 0 3.896-1.014 3.896-2.264M263.09 53.359c0-1.25 1.745-2.264 3.897-2.264 2.152 0 3.896 1.014 3.896 2.264 0 1.25-1.744 2.265-3.896 2.265s-3.896-1.014-3.896-2.265M263.09 70.635c0 1.25 1.745 2.263 3.897 2.263 2.152 0 3.896-1.014 3.896-2.264M263.09 53.36v17.275M263.407 52.466l-14.338-7.732" stroke-width=".9999974999999999"/><path d="M335.42 264.151v20.912l-8.026 4.662v-20.912M335.42 264.151l-8.026 4.662" stroke-width="1.2573301899999998"/><path d="M47.908 180.123l-5.872-3.39" stroke-width=".9999974999999999"/></g></svg>