<svg xmlns="http://www.w3.org/2000/svg" width="790.083" height="875.755"><g stroke="#646464" stroke-width="1.5" fill="none" stroke-linecap="round" stroke-linejoin="round"><path d="M265.458 8.682l509.954 294.422V630.24M265.458 335.818L775.412 630.24M265.458 8.682v327.136M775.412 303.104l14.164-8.178M775.412 303.104l7.083-4.09M789.576 294.926v327.135M279.623.504l509.953 294.422M265.458 8.682L279.623.504M265.458 8.682l7.083-4.088" stroke-width="1.9999949999999997"/><path d="M522.557 167.747c-1.171.676-3.072-.42-4.244-2.451-1.172-2.03-1.172-4.224 0-4.901 1.172-.677 3.073.42 4.245 2.45 1.172 2.03 1.172 4.225 0 4.901" stroke-width="1.9999949999999997"/><path d="M521.936 166.67c-.829.478-2.172-.297-3.001-1.733-.829-1.435-.829-2.987 0-3.465.829-.479 2.172.297 3.001 1.732.829 1.436.829 2.987 0 3.466M279.623 33.218V327.64l481.624 278.064v-294.42zM520.434 523.985l41.54 23.984zM478.895 500.003l41.539 23.982zM478.895 459.045v40.958M561.975 507.011v40.958M775.412 630.24l14.164-8.18M561.975 547.97l14.165-8.178M576.14 515.19v24.602M449.944 565.233l23.352 13.482M473.298 578.715c27.714 16 65.302 24.99 104.496 24.99 37.268 0 73.16-8.13 100.487-22.761M422.733 433.403c-25.341 15.777-39.423 36.5-39.423 58.017 0 22.628 15.57 44.33 43.284 60.33M426.594 551.752l23.35 13.481M449.944 575.184l23.352 13.483" stroke-width="1.9999949999999997"/><path d="M473.298 588.665c27.714 16.002 65.302 24.99 104.496 24.99 37.268 0 73.16-8.13 100.487-22.76M383.562 496.395a49.391 49.391 0 0 0-.252 4.976c0 22.628 15.57 44.33 43.284 60.33M426.594 561.702l23.35 13.482M678.28 580.944l5.876-3.392M678.28 590.896l14.493-8.368M422.733 433.405l5.875-3.392M148.244 667.531l15.532 8.968M168.888 655.613l.928.536M167.032 655.613l-.926.536M184.421 665.653l-18.789 10.846M166.106 656.149l-17.862 10.312M168.888 655.613c-.245-.143-.579-.223-.927-.223-.348 0-.681.08-.927.222M163.778 676.5c.246.14.58.22.927.22.348 0 .682-.08.928-.221M169.439 678.696c-.246.142-.384.335-.384.536 0 .2.138.393.384.535M169.816 656.149l14.605 8.432M190.084 667.848c-.247-.142-.58-.221-.929-.221-.348 0-.681.08-.927.221M187.3 668.385l-17.861 10.312M205.615 677.888c.247-.143.385-.335.385-.536s-.138-.394-.384-.536M188.228 667.85l-.928.535M184.972 688.734c.246.143.58.223.927.223.348 0 .682-.08.928-.222M190.082 667.85l15.533 8.967M205.615 677.888l-18.789 10.848M190.632 690.933c-.245.141-.383.334-.383.535 0 .2.138.393.384.536M169.439 679.768l15.533 8.968M211.277 680.085c-.246-.142-.58-.222-.928-.222-.348 0-.682.08-.928.222M208.493 680.62l-17.86 10.313M211.276 680.086l15.532 8.967M226.81 690.123c.245-.141.384-.334.384-.535 0-.2-.139-.393-.385-.535M206.165 700.971c.247.142.58.222.928.222.348 0 .682-.08.928-.222M209.421 680.086l-.928.535M226.808 690.125l-18.788 10.848M172.695 652.344c-.246.142-.384.334-.384.535s.138.394.384.536M190.632 692.005l15.533 8.968M193.34 641.496c-.247-.142-.58-.222-.929-.222-.348 0-.681.08-.927.222M190.556 642.032l-17.861 10.312M193.338 641.497l.928.535M191.482 641.497l-.926.535M194.266 642.032l14.605 8.432M172.695 653.416l15.533 8.968M232.053 664.885c.246-.142.384-.335.384-.536 0-.2-.138-.394-.384-.536M211.408 675.733c.247.141.58.221.928.221.348 0 .682-.08.928-.222M208.87 650.464l6.59 3.805 16.592 9.545M232.052 664.885l-18.79 10.848M429.008 800.293c-.245.141-.384.334-.384.535 0 .2.139.394.385.536M188.228 662.384l23.18 13.349M449.653 789.445c-.247-.142-.58-.222-.928-.222-.348 0-.682.08-.928.222M447.796 789.446l-18.788 10.847M449.652 789.446l11.15 6.437 14.605 8.432M429.008 801.365l25.756 14.87M496.602 817.622c.246-.142.384-.334.384-.535s-.138-.394-.384-.536M475.959 828.47c.245.142.579.222.927.222.348 0 .681-.08.927-.222M475.407 804.315l6.589 3.805 14.604 8.432M496.6 817.622l-18.787 10.848M463.652 792.096c-.246.142-.384.334-.384.535 0 .2.138.394.384.536M454.764 816.235l21.193 12.235M484.296 781.248c-.246-.142-.58-.222-.928-.222-.348 0-.681.08-.927.222M482.44 781.25l-18.788 10.846M484.295 781.25l.928.534 14.605 8.432M521.023 803.523c.245-.142.384-.335.384-.535 0-.201-.139-.394-.385-.536M463.652 793.168l15.532 8.968M500.378 814.371c.246.142.58.222.928.222.348 0 .682-.08.928-.222M499.828 790.216l21.193 12.237M521.021 803.525l-18.789 10.846M521.565 769.067c-.246.142-.384.335-.384.536 0 .2.138.393.384.535M479.184 802.136l21.194 12.235M542.208 758.22c-.245-.143-.579-.222-.927-.222-.348 0-.682.08-.928.221M540.352 758.22l-18.788 10.847M569.922 775.291c.246-.142.384-.335.384-.536 0-.2-.138-.393-.384-.535M549.279 786.14c.245.14.579.22.927.22.348 0 .681-.08.927-.222M542.208 758.22l13.108 7.569 14.606 8.432M569.922 775.291l-18.789 10.848M457.983 732.358c-.246.142-.384.335-.384.536 0 .2.138.393.384.535M521.564 770.14l27.713 16M478.628 721.51c-.247-.141-.58-.221-.929-.221-.347 0-.681.08-.927.222M475.844 722.046l-17.861 10.312M478.626 721.512l.928.534M494.16 731.549c.246-.142.384-.334.384-.535s-.138-.394-.384-.536M476.772 721.512l-.928.534M473.516 742.397c.246.142.58.222.927.222.348 0 .682-.08.928-.222M479.554 722.046l14.605 8.434M494.159 731.55l-18.789 10.848M479.176 744.595c-.245.141-.383.334-.383.535 0 .2.138.394.384.536M457.983 733.43l15.533 8.968M499.821 733.747c-.246-.142-.58-.222-.928-.222-.348 0-.681.08-.927.222M497.037 734.283l-17.86 10.312M499.82 733.747l.928.536M515.354 743.785c.246-.141.384-.334.384-.535 0-.2-.138-.393-.384-.535M497.965 733.747l-.928.536M494.71 754.633c.246.142.58.222.927.222.348 0 .682-.08.928-.222M500.748 734.283l14.604 8.432M515.352 743.787l-18.788 10.846M415.596 707.886c-.247.142-.385.334-.385.535s.138.394.384.536M479.176 745.667l15.533 8.966M436.239 697.038c-.246-.142-.58-.222-.927-.222-.348 0-.682.08-.928.222M433.456 697.574l-17.862 10.312M451.772 707.077c.246-.142.384-.335.384-.536 0-.2-.138-.393-.384-.535M434.383 697.038l-.927.536M431.128 717.925c.246.142.58.221.928.221.348 0 .681-.08.927-.222M436.239 697.038l15.533 8.968M451.772 707.078l-18.79 10.847M436.79 720.121c-.247.143-.385.336-.385.536 0 .201.138.394.384.536M415.594 708.958l15.533 8.967M457.434 709.273c-.247-.14-.58-.22-.928-.22-.348 0-.682.08-.928.221M454.65 709.811l-17.86 10.312M457.432 709.275l.928.536M472.965 719.313c.247-.142.385-.334.385-.535s-.138-.394-.384-.536M455.576 709.275l-.926.536M452.322 730.161c.246.142.58.222.928.222.348 0 .681-.08.927-.222M458.36 709.811l14.605 8.432M472.965 719.313l-18.789 10.848M394.402 695.65c-.246.141-.385.334-.385.535 0 .2.139.393.385.535M436.79 721.193l15.53 8.968M415.045 684.801c-.246-.141-.58-.221-.927-.221-.348 0-.682.08-.928.222M412.261 685.337l-17.86 10.312M415.045 684.803l.927.534M430.578 694.84c.246-.141.384-.334.384-.535 0-.2-.138-.393-.384-.536M413.19 684.803l-.929.534M409.935 705.688c.245.142.579.222.927.222.348 0 .681-.08.928-.222M415.972 685.337l14.606 8.432M430.578 694.841l-18.789 10.848M394.4 696.721l15.533 8.968M221.594 624.112c-.245.141-.384.334-.384.535 0 .2.139.394.385.536M434.383 697.038l-.927.536M242.239 613.264c-.246-.142-.58-.222-.928-.222-.348 0-.682.08-.928.222M239.455 613.8l-17.861 10.312M242.237 613.264l.928.536M240.383 613.264l-.928.536M246.045 609.995c-.247.142-.385.335-.385.536 0 .2.138.393.384.535M243.165 613.8l26.786 15.465M266.688 599.147c-.246-.141-.58-.221-.927-.221-.348 0-.682.08-.928.222M263.904 599.685l-17.86 10.312M266.688 599.149l.927.536M282.221 609.187c.246-.142.384-.335.384-.536 0-.2-.138-.394-.384-.536M264.832 599.149l-.928.536M261.576 620.033c.247.143.58.223.929.223.348 0 .681-.08.927-.222M267.615 599.685l14.605 8.432M282.22 609.187l-18.788 10.848M267.239 622.232c-.247.142-.385.334-.385.535s.138.394.384.536M246.044 611.067l15.532 8.968M287.882 611.384c-.246-.142-.58-.222-.927-.222-.348 0-.682.08-.928.222M286.026 611.385l-18.789 10.847M303.415 621.422c.246-.141.384-.334.384-.535 0-.2-.138-.393-.384-.535M282.772 632.27c.245.143.579.222.927.222.348 0 .681-.08.927-.222M287.882 611.385l15.533 8.967M303.415 621.424l-18.789 10.848M269.952 630.336c.246-.143.384-.335.384-.536s-.138-.394-.384-.536M249.308 641.182c.246.143.58.223.928.223.348 0 .681-.08.927-.222M267.237 623.304l15.533 8.968M373.208 683.413c-.246.142-.385.335-.385.536 0 .2.139.393.385.535M269.95 630.336l-18.788 10.848M393.852 672.565c-.246-.142-.58-.221-.928-.221-.348 0-.682.08-.928.221M391.068 673.102l-17.861 10.312M393.852 672.566l.926.536M409.384 682.605c.246-.143.384-.335.384-.536s-.138-.394-.384-.536M391.996 672.566l-.928.536M388.74 693.453c.246.141.58.22.928.22.348 0 .682-.079.928-.221M394.778 673.102l14.605 8.432M409.383 682.605l-18.787 10.848M352.013 671.177c-.245.142-.383.334-.383.535s.138.394.384.536M373.207 684.485l15.533 8.968M372.658 660.33c-.246-.143-.58-.223-.928-.223-.348 0-.682.08-.928.222M369.874 660.865l-17.86 10.312M372.656 660.33l.928.535M388.19 670.368c.246-.142.385-.335.385-.536 0-.2-.139-.393-.385-.535M370.802 660.33l-.928.535M367.546 681.216c.246.142.58.221.928.221.348 0 .682-.08.928-.221M373.584 660.865l14.605 8.432M388.19 670.37l-18.79 10.846M330.82 658.94c-.246.142-.384.335-.384.536 0 .2.138.394.384.536M352.013 672.248l15.533 8.968M351.464 648.093c-.246-.142-.58-.222-.928-.222-.348 0-.681.08-.927.222M348.68 648.629l-17.86 10.312M351.463 648.094l.928.535M366.997 658.131c.246-.141.384-.334.384-.535 0-.2-.138-.393-.385-.535M349.608 648.094l-.928.535M346.352 668.98c.247.141.58.221.928.221.348 0 .682-.08.928-.222M352.39 648.629l14.606 8.432M366.996 658.133l-18.79 10.848M309.626 646.704c-.246.142-.384.335-.384.536 0 .2.138.393.384.535M330.82 660.013l15.532 8.968M330.27 635.856c-.246-.141-.58-.221-.928-.221-.348 0-.681.08-.927.222M327.487 636.393l-17.861 10.312M330.27 635.857l.927.536M345.802 645.896c.247-.143.385-.335.385-.536s-.138-.394-.384-.536M328.413 635.857l-.926.536M325.159 656.742c.246.143.58.223.927.223.348 0 .682-.08.928-.222M331.197 636.393l14.605 8.432M345.802 645.896l-18.789 10.848M288.432 634.467c-.246.143-.384.336-.384.536 0 .201.138.394.384.536M309.626 647.776l15.531 8.968M309.076 623.62c-.246-.142-.58-.222-.928-.222-.347 0-.681.08-.927.222M306.292 624.157l-17.861 10.312M309.076 623.62l.928.537M324.608 633.66c.247-.143.385-.336.385-.536 0-.201-.138-.394-.384-.536M307.22 623.62l-.928.537M303.965 644.507c.246.142.58.222.927.222.348 0 .682-.08.928-.222M310.004 624.157l14.604 8.432M324.608 633.66l-18.788 10.847M197.144 638.227c-.245.143-.383.335-.383.536s.138.394.384.536M288.43 635.54l15.534 8.967M217.79 627.38c-.247-.142-.581-.222-.929-.222-.348 0-.682.08-.928.222M215.005 627.917l-17.86 10.312M217.788 627.38l.928.537M215.933 627.38l-.928.537M218.716 627.917l14.604 8.432M197.144 639.3l27.714 16M245.503 644.451c.245-.142.383-.334.383-.535s-.138-.394-.384-.536M224.858 655.3c.246.141.58.22.928.22.348 0 .681-.079.927-.221M233.32 636.349l12.181 7.032M270.332 595.974c-.247.142-.385.334-.385.535s.138.394.384.536M245.501 644.453l-18.789 10.846M279.236 591.904c-.247-.142-.58-.222-.929-.222-.348 0-.681.08-.927.222M277.378 591.905l-7.048 4.07M288.802 598.5c.247-.143.385-.336.385-.536 0-.201-.138-.394-.384-.536M279.898 602.57c.247.14.58.22.928.22.348 0 .682-.08.928-.221M279.234 591.905l.928.535 8.64 4.989M270.33 597.046l9.568 5.523M285.56 604.766c-.246.142-.384.335-.384.536 0 .2.138.393.384.535M288.802 598.5l-7.05 4.07M294.464 600.696c-.246-.142-.58-.221-.928-.221-.348 0-.681.08-.927.222M291.68 601.233l-6.121 3.533M294.463 600.697l.928.536M309.997 610.736c.246-.143.384-.335.384-.536s-.138-.394-.384-.536M292.608 600.697l-.928.536M301.093 614.805c.246.142.58.222.927.222.348 0 .682-.08.928-.222M295.39 601.233l14.606 8.432M285.559 605.838l15.533 8.968M306.754 617.003c-.246.141-.384.334-.384.535 0 .2.138.393.384.536M309.996 610.736l-7.048 4.07M315.658 612.933c-.246-.142-.58-.222-.928-.222-.348 0-.681.08-.928.222M313.802 612.934l-7.05 4.07M331.19 622.971c.246-.141.385-.334.385-.535 0-.2-.139-.393-.385-.535M322.287 627.041c.245.142.58.222.927.222.348 0 .682-.08.928-.222M315.656 612.934l.928.535 14.605 8.432M306.752 618.075l15.533 8.966M327.948 629.238c-.246.143-.385.335-.385.536s.139.394.385.536M331.19 622.973l-7.049 4.068M336.852 625.17c-.246-.143-.58-.223-.928-.223-.348 0-.682.08-.928.222M334.068 625.705l-6.12 3.535M336.852 625.17l.926.535M352.384 635.208c.246-.142.385-.335.385-.536 0-.2-.139-.393-.385-.535M334.996 625.17l-.928.535M343.48 639.278c.246.142.58.221.928.221.348 0 .682-.08.928-.221M337.778 625.705l14.605 8.432M327.948 630.31l15.53 8.968M349.141 641.475c-.246.142-.384.335-.384.536 0 .2.138.393.385.535M352.383 635.21l-7.048 4.068M358.045 637.405c-.245-.142-.58-.221-.927-.221-.348 0-.682.08-.928.221M355.261 637.942l-6.12 3.533M358.045 637.406l.928.536M373.578 647.445c.246-.143.384-.335.384-.536s-.138-.394-.384-.536M356.19 637.406l-.929.536M364.674 651.513c.246.143.58.223.928.223.348 0 .681-.08.927-.222M358.973 637.942l14.605 8.432M349.141 642.547l15.533 8.968M370.335 653.712c-.246.141-.384.334-.384.535 0 .2.138.393.384.535M373.578 647.445l-7.05 4.07M379.239 649.641c-.246-.141-.58-.221-.927-.221-.348 0-.682.08-.928.222M376.456 650.177l-6.121 3.535M379.239 649.643l.928.534M394.772 659.68c.246-.141.384-.334.384-.535 0-.2-.138-.394-.384-.536M377.383 649.643l-.927.534M385.868 663.75c.246.142.58.222.928.222.348 0 .681-.08.927-.222M380.167 650.177l14.605 8.432M370.335 654.784l15.533 8.966M391.53 665.947c-.247.143-.385.335-.385.536s.138.394.384.536M394.772 659.681l-7.05 4.07M400.434 661.878c-.247-.142-.58-.222-.928-.222-.348 0-.682.08-.928.222M397.65 662.414l-6.122 3.535M400.432 661.878l.928.536M415.965 671.917c.247-.142.385-.335.385-.536 0-.2-.138-.393-.384-.535M398.578 661.878l-.928.536M407.061 675.987c.247.142.58.221.929.221.347 0 .681-.08.927-.222M401.36 662.414l14.605 8.432M391.528 667.02l15.533 8.967M412.724 678.184c-.247.142-.385.335-.385.535 0 .201.138.394.384.536M415.965 671.918l-7.048 4.07M421.628 674.113c-.247-.14-.58-.22-.928-.22-.348 0-.682.08-.928.221M437.16 684.153c.246-.142.384-.335.384-.535 0-.201-.138-.394-.384-.536M419.772 674.115l-7.05 4.069M428.256 688.222c.246.143.58.223.927.223.348 0 .682-.08.928-.222M421.626 674.115l15.533 8.968M412.722 679.256l15.533 8.968M433.917 690.42c-.246.142-.384.335-.384.536 0 .2.138.393.384.535M437.159 684.153l-7.048 4.07M442.821 686.35c-.246-.142-.58-.221-.928-.221-.348 0-.681.08-.927.222M440.037 686.886l-6.121 3.535M442.82 686.352l.928.534M458.354 696.389c.246-.142.384-.334.384-.535s-.138-.394-.384-.536M440.965 686.352l-.928.534M449.45 700.46c.246.141.58.22.927.22.348 0 .682-.079.928-.221M443.748 686.886l14.604 8.432M433.916 691.493l15.532 8.966M455.11 702.656c-.245.142-.383.335-.383.536 0 .2.138.394.384.536M458.352 696.39l-7.048 4.07M464.015 698.587c-.246-.142-.58-.222-.928-.222-.348 0-.681.08-.927.222M461.23 699.123l-6.12 3.534M464.015 698.587l.926.536M479.548 708.625c.246-.141.384-.334.384-.535 0-.2-.138-.393-.384-.535M462.159 698.587l-.928.536M470.644 712.696c.246.141.58.221.927.221.348 0 .682-.08.928-.222M464.941 699.123l14.605 8.432M455.11 703.728l15.532 8.968M476.304 714.893c-.245.142-.384.334-.384.535s.139.394.385.536M479.546 708.627l-7.048 4.069M485.208 710.824c-.245-.143-.579-.223-.927-.223-.348 0-.681.08-.928.222M482.424 711.36l-6.12 3.533M485.208 710.824l.928.536M500.741 720.862c.246-.142.385-.335.385-.536 0-.2-.139-.393-.385-.535M483.352 710.824l-.928.536M491.837 724.931c.246.143.58.222.928.222.348 0 .682-.08.928-.221M486.136 711.36l14.605 8.432M476.304 715.965l15.533 8.968M497.498 727.13c-.245.141-.384.334-.384.535 0 .2.139.393.385.535M500.741 720.862l-7.05 4.07M506.402 723.06c-.245-.143-.58-.222-.927-.222-.348 0-.682.08-.928.221M503.62 723.595l-6.122 3.534M506.402 723.06l.928.535M521.935 733.1c.246-.144.385-.336.385-.537s-.139-.394-.385-.536M504.546 723.06l-.926.535M513.03 737.168c.247.142.58.222.929.222.348 0 .682-.08.928-.222M507.33 723.595l14.605 8.434M497.498 728.201l15.533 8.967M518.693 739.365c-.247.142-.385.335-.385.536 0 .2.138.393.384.535M521.935 733.1l-7.05 4.068M527.597 735.296c-.247-.142-.58-.222-.928-.222-.348 0-.682.08-.928.222M524.813 735.832l-6.121 3.534M527.596 735.296l.928.536M543.128 745.334c.247-.141.385-.334.385-.535 0-.2-.138-.394-.384-.536M525.741 735.296l-.928.536M534.224 749.405c.247.141.58.221.929.221.348 0 .681-.08.927-.222M528.524 735.832l14.604 8.432M518.692 740.437l15.532 8.968M539.887 751.601c-.247.143-.385.335-.385.536s.138.394.384.536M543.128 745.336l-7.048 4.069M548.79 747.533c-.246-.143-.58-.223-.927-.223-.348 0-.682.08-.928.222M546.007 748.069l-6.122 3.534M548.79 747.533l.927.536M564.324 757.571c.245-.142.383-.335.383-.536 0-.2-.138-.393-.384-.535M546.935 747.533l-.928.536M555.42 761.64c.245.143.579.222.927.222.348 0 .681-.08.927-.222M549.717 748.069l14.605 8.432M539.885 752.673l15.533 8.968M239.11 718.921c-.245.142-.383.335-.383.536 0 .2.138.393.384.535M564.322 757.571l-7.048 4.07M259.756 708.073c-.247-.141-.58-.221-.929-.221-.348 0-.681.08-.927.222M257.898 708.075l-18.787 10.846M259.754 708.075l.928.534 99.38 57.378M360.063 767.057c.246-.141.384-.334.384-.535 0-.2-.138-.393-.384-.536M339.42 777.905c.245.142.579.222.927.222.348 0 .681-.08.927-.222M239.11 719.993l36.727 21.204 48.048 27.74M360.063 767.06l-18.789 10.845M323.885 768.937l15.533 8.968M232.47 692.321l21.623 12.485M254.093 705.877c.247-.143.385-.335.385-.536s-.138-.394-.384-.536M233.45 716.723c.246.143.58.223.927.223.348 0 .682-.08.928-.222M211.826 704.24l21.622 12.485M211.826 703.168c-.245.143-.383.335-.383.536s.138.394.384.536M232.47 692.321c-.245-.142-.58-.222-.927-.222-.348 0-.682.08-.928.222M254.093 705.877l-18.789 10.848M230.615 692.321l-18.789 10.848M365.724 769.256l21.622 12.483M387.348 782.81c.245-.142.383-.334.383-.535s-.138-.394-.384-.536M366.703 793.657c.246.143.58.223.928.223.348 0 .682-.08.928-.222M345.079 781.174l21.624 12.485M345.08 780.102c-.246.143-.384.335-.384.536s.138.394.384.536M365.724 769.254c-.246-.141-.58-.22-.927-.22-.348 0-.682.079-.928.221M387.346 782.811l-18.789 10.848M372.365 795.856c-.247.141-.385.334-.385.535 0 .2.138.393.385.535M363.868 769.256l-18.79 10.848M393.008 785.008c-.246-.142-.58-.222-.927-.222-.348 0-.682.08-.928.222M391.152 785.008l-18.788 10.848M408.541 795.046c.246-.142.384-.334.384-.535s-.138-.394-.384-.536M387.896 805.894c.247.142.58.222.929.222.348 0 .681-.08.927-.222M393.008 785.008l.927.536 14.605 8.432M408.54 795.048l-18.788 10.846M393.559 808.091c-.247.142-.385.335-.385.536 0 .2.138.394.384.536M372.364 796.928l15.532 8.966M405.272 802.4c-.246-.142-.58-.222-.928-.222-.348 0-.681.08-.928.222M402.488 802.936l-8.93 5.157M420.805 812.438c.245-.141.384-.334.384-.535 0-.2-.139-.393-.385-.535M403.416 802.4l-.928.536M409.092 818.131c.245.141.579.221.927.221.348 0 .681-.08.927-.222M405.27 802.4l15.534 8.968M420.804 812.44l-9.858 5.691M414.752 820.328c-.246.142-.384.334-.384.535s.138.394.384.536M393.557 809.163l15.533 8.968M433.224 810.734c-.245-.142-.579-.222-.927-.222-.347 0-.681.08-.927.222M431.368 810.734l-16.617 9.594M448.757 820.773c.247-.143.385-.335.385-.536s-.138-.394-.384-.536M430.285 830.366c.246.143.58.222.928.222.347 0 .681-.08.927-.221M433.224 810.734l.928.536 14.605 8.432M448.757 820.773l-16.617 9.595M435.946 832.565c-.246.141-.384.334-.384.535 0 .2.138.393.384.535M414.75 821.4l15.534 8.968M447.66 826.872c-.246-.142-.58-.221-.928-.221-.348 0-.682.08-.928.221M444.876 827.41l-8.93 5.155M447.658 826.873l.928.536M445.804 826.873l-.928.536M451.479 842.603c.246.142.58.222.927.222.348 0 .682-.08.928-.222M448.586 827.41l14.605 8.431M463.19 836.912l-9.857 5.691M463.192 836.912c.246-.143.384-.335.384-.536s-.138-.394-.384-.536M217.07 677.93c-.246.142-.384.334-.384.535s.138.394.384.536M435.946 833.637l15.531 8.966M237.714 667.081c-.246-.141-.58-.22-.928-.22-.348 0-.682.079-.928.22M235.858 667.083l-18.789 10.848M253.247 677.121c.245-.142.384-.335.384-.536 0-.2-.139-.393-.385-.535M232.602 687.968c.247.142.58.222.928.222.348 0 .682-.08.928-.222M237.712 667.083l.928.536 14.605 8.432M253.245 677.121l-18.789 10.848M238.264 690.166c-.246.142-.384.335-.384.535 0 .201.138.394.384.536M217.07 679.001l15.532 8.968M258.908 679.318c-.246-.142-.58-.222-.928-.222-.348 0-.682.08-.928.222M256.124 679.854l-17.861 10.312M258.908 679.318l.926.536M274.44 689.357c.246-.142.384-.335.384-.535 0-.201-.138-.394-.384-.536M257.052 679.318l-.928.536M253.796 700.205c.246.142.58.222.928.222.348 0 .682-.08.928-.222M259.834 679.854l14.605 8.432M274.439 689.358l-18.787 10.848M259.458 702.401c-.246.143-.385.336-.385.537 0 .2.139.393.385.535M238.263 691.238l15.533 8.968M280.101 691.555c-.246-.143-.58-.222-.927-.222-.348 0-.682.08-.928.222M277.317 692.091l-17.86 10.312M280.101 691.555l.927.536M295.634 701.593c.246-.142.384-.334.384-.535s-.138-.394-.384-.536M278.245 691.555l-.928.536M274.99 712.441c.246.142.58.222.928.222.348 0 .682-.08.928-.222M281.028 692.091l14.606 8.432M295.634 701.593l-18.789 10.848M280.652 714.638c-.247.142-.385.335-.385.536 0 .2.138.393.384.536M259.456 703.473l15.533 8.968M301.295 703.79c-.246-.141-.58-.221-.927-.221-.348 0-.682.08-.928.222M298.512 704.328L280.65 714.64M301.295 703.792l.928.536M316.828 713.83c.246-.142.384-.335.384-.536 0-.2-.138-.393-.384-.535M299.439 703.792l-.927.536M296.184 724.677c.246.142.58.222.928.222.348 0 .681-.08.927-.222M302.223 704.328l14.605 8.432M316.828 713.83l-18.79 10.848M301.845 726.875c-.246.142-.384.334-.384.535s.138.394.384.536M280.65 715.71l15.533 8.968M322.49 716.027c-.247-.142-.58-.222-.928-.222-.348 0-.682.08-.928.222M319.706 716.563l-17.86 10.312M322.488 716.027l.928.536M338.021 726.065c.247-.141.385-.334.385-.535 0-.2-.138-.393-.384-.535M317.378 736.913c.246.143.58.222.928.222.348 0 .681-.08.927-.221M320.632 716.027l-.926.536M338.021 726.067l-18.789 10.848M323.039 739.11c-.246.143-.384.336-.384.537 0 .2.138.393.384.535M301.845 727.947l15.531 8.968M343.684 728.264c-.247-.143-.58-.222-.929-.222-.347 0-.681.08-.927.221M340.9 728.8l-17.861 10.312M359.216 738.302c.246-.142.384-.334.384-.535s-.138-.394-.384-.536M338.572 749.15c.246.142.58.222.927.222.348 0 .682-.08.928-.222M341.828 728.264l-.928.536M359.215 738.302l-18.789 10.848M344.232 751.347c-.245.142-.383.335-.383.536 0 .2.138.393.384.535M323.039 740.182l15.533 8.968M364.877 740.5c-.246-.142-.58-.222-.928-.222-.348 0-.681.08-.927.222M362.093 741.037l-17.86 10.312M364.876 740.5l.928.537M380.41 750.54c.246-.143.384-.336.384-.537 0-.2-.138-.394-.384-.536M359.765 761.385c.247.143.58.223.928.223.348 0 .682-.08.928-.222M363.021 740.5l-.928.537M380.408 750.54l-18.788 10.847M365.428 763.584c-.247.142-.385.334-.385.535s.138.394.384.536M344.232 752.42l15.533 8.967M386.07 752.736c-.245-.142-.579-.222-.927-.222-.348 0-.681.08-.927.222M383.287 753.272l-17.861 10.312M386.07 752.737l.927.535M401.604 762.774c.246-.141.384-.334.384-.535 0-.2-.138-.393-.385-.535M384.215 752.737l-.928.535M380.96 773.622c.246.142.58.222.927.222.348 0 .682-.08.928-.222M386.997 753.272l14.605 8.432M401.602 762.776l-18.787 10.848M386.621 775.82c-.246.142-.384.335-.384.535 0 .201.138.394.384.536M365.426 764.656l15.533 8.968M407.264 764.973c-.245-.143-.579-.223-.927-.223-.348 0-.682.08-.928.222M404.48 765.509l-17.86 10.312M407.264 764.973l.928.536M422.797 775.011c.246-.142.385-.335.385-.535 0-.201-.139-.394-.385-.536M405.408 764.973l-.928.536M402.154 785.86c.245.14.58.22.927.22.348 0 .682-.08.928-.221M408.192 765.509l14.605 8.432M422.797 775.013l-18.789 10.846M407.815 788.056c-.246.142-.385.335-.385.536 0 .2.139.393.385.535M386.62 776.891l15.532 8.968M428.458 777.208c-.245-.142-.58-.221-.927-.221-.348 0-.682.08-.928.222M425.676 777.745l-17.863 10.312M428.458 777.21l.928.535M443.99 787.248c.247-.143.385-.335.385-.536s-.138-.394-.384-.536M426.602 777.21l-.926.535M423.348 798.094c.245.143.579.223.927.223.348 0 .682-.08.928-.222M429.386 777.745l14.605 8.432M443.99 787.248l-18.788 10.848M230.519 657.496c-.246.142-.384.335-.384.536 0 .2.138.393.384.535M407.813 789.128l15.533 8.968M251.164 646.65c-.247-.143-.58-.223-.928-.223-.348 0-.682.08-.928.222M249.308 646.65l-18.79 10.847M266.696 656.688c.246-.142.384-.335.384-.536 0-.2-.138-.393-.384-.535M246.052 667.536c.246.141.58.221.928.221.348 0 .681-.08.927-.222M251.162 646.65l.928.535 14.605 8.432M266.695 656.688l-18.789 10.848M251.714 669.733c-.247.142-.385.334-.385.535s.138.394.384.536M230.519 658.568l15.533 8.968M272.357 658.885c-.246-.142-.58-.222-.928-.222-.347 0-.681.08-.927.222M269.573 659.42l-17.86 10.313M272.356 658.886l.928.535M287.89 668.925c.246-.143.384-.336.384-.537 0-.2-.138-.393-.384-.535M270.501 658.886l-.928.535M267.245 679.771c.247.143.58.222.928.222.348 0 .682-.08.928-.221M273.284 659.42l14.604 8.434M287.888 668.925L269.1 679.773M272.908 681.97c-.247.14-.385.334-.385.534 0 .201.138.394.384.536M251.712 670.805l15.533 8.968M293.55 671.121c-.245-.142-.579-.222-.927-.222-.348 0-.681.08-.927.222M290.767 671.657l-17.861 10.312M309.084 681.16c.246-.142.384-.334.384-.535s-.138-.394-.384-.536M291.695 671.121l-.928.536M288.44 692.008c.246.142.58.222.927.222.348 0 .682-.08.928-.222M293.55 671.121l15.534 8.968M309.084 681.161l-18.79 10.847M294.101 694.205c-.246.142-.384.335-.384.536 0 .2.138.393.384.535M272.906 683.041l15.533 8.967M314.744 683.358c-.245-.142-.579-.222-.927-.222-.348 0-.681.08-.927.222M311.96 683.894l-17.86 10.312M314.744 683.358l.928.536M330.277 693.397c.247-.143.385-.335.385-.536 0-.2-.138-.394-.385-.536M312.888 683.358l-.928.536M309.634 704.245c.246.141.58.221.927.221.348 0 .682-.08.928-.222M315.672 683.894l14.605 8.432M330.277 693.397l-18.789 10.848M315.295 706.441c-.246.143-.384.335-.384.536 0 .2.138.394.384.536M294.1 695.277l15.532 8.968M335.938 695.593c-.245-.141-.579-.221-.927-.221-.348 0-.682.08-.928.222M333.156 696.13l-17.861 10.311M335.938 695.595l.928.534M351.47 705.633c.247-.142.386-.335.386-.536 0-.2-.139-.393-.385-.535M334.082 695.595l-.926.534M330.828 716.48c.245.142.58.222.927.222.348 0 .682-.08.928-.222M336.866 696.13l14.605 8.433M351.47 705.633l-18.788 10.848M336.488 718.678c-.245.142-.384.334-.384.535s.139.394.385.536M315.295 707.513l15.531 8.968M357.133 707.83c-.246-.142-.58-.222-.928-.222-.348 0-.682.08-.928.222M354.35 708.366l-17.862 10.312M357.132 707.83l.928.536M372.666 717.869c.245-.142.383-.335.383-.535 0-.201-.138-.394-.384-.536M355.277 707.83l-.928.536M352.021 728.717c.246.142.58.222.928.222.348 0 .682-.08.928-.222M358.06 708.366l14.604 8.432M372.664 717.87l-18.788 10.847M357.682 730.913c-.245.143-.384.336-.384.537 0 .2.139.393.385.535M336.488 719.75l15.533 8.967M378.327 720.067c-.247-.143-.58-.222-.928-.222-.348 0-.682.08-.928.221M375.543 720.603l-17.861 10.312M378.325 720.067l.928.536M393.86 730.105c.245-.142.383-.334.383-.535s-.138-.394-.384-.536M376.47 720.067l-.927.536M373.215 740.953c.246.142.58.222.928.222.348 0 .681-.08.927-.222M379.253 720.603l14.605 8.432M393.858 730.105l-18.789 10.848M378.877 743.15c-.247.142-.385.335-.385.536 0 .2.138.393.384.536M357.682 731.985l15.533 8.968M399.52 732.302c-.246-.141-.58-.221-.927-.221-.348 0-.682.08-.928.222M396.736 732.84l-17.86 10.312M399.519 732.304l.928.536M415.053 742.342c.246-.142.384-.335.384-.536 0-.2-.138-.393-.384-.535M397.664 732.304l-.928.536M394.408 753.189c.247.142.58.222.929.222.348 0 .681-.08.927-.222M400.447 732.84l14.605 8.432M415.052 742.342l-18.788 10.848M400.07 755.387c-.246.142-.384.334-.384.535s.138.394.384.536M378.876 744.222l15.532 8.968M420.714 744.54c-.246-.143-.58-.223-.927-.223-.348 0-.682.08-.928.222M417.93 745.075l-17.86 10.312M420.714 744.54l.926.535M436.247 754.577c.246-.141.384-.334.384-.535 0-.2-.138-.393-.384-.535M418.858 744.54l-.928.535M415.604 765.425c.245.143.579.222.927.222.348 0 .681-.08.927-.221M421.64 745.075l14.607 8.432M436.247 754.58l-18.789 10.847M421.264 767.622c-.246.143-.384.336-.384.536 0 .201.138.394.384.536M400.07 756.46l15.532 8.967M441.908 756.776c-.246-.143-.58-.223-.928-.223-.348 0-.681.08-.927.222M457.44 766.814c.247-.142.385-.334.385-.535s-.138-.394-.384-.536M440.052 756.776l-18.79 10.848M436.797 777.662c.246.142.58.222.927.222.348 0 .682-.08.928-.222M441.908 756.776l15.532 8.968M457.44 766.814l-18.788 10.848M442.458 779.86c-.246.141-.384.334-.384.535 0 .2.138.393.384.535M421.263 768.694l15.533 8.968M463.101 769.011c-.245-.141-.579-.221-.927-.221-.348 0-.681.08-.927.222M461.245 769.013l-18.787 10.848M478.634 779.051c.247-.143.385-.335.385-.536 0-.2-.138-.394-.384-.536M457.99 789.897c.247.143.58.223.928.223.348 0 .682-.08.928-.222M463.101 769.013l.928.536 14.605 8.432M478.634 779.051L459.845 789.9M254.97 643.38c-.247.142-.385.335-.385.536 0 .2.138.393.384.535M442.458 780.931l15.531 8.968M275.613 632.533c-.246-.142-.58-.222-.928-.222-.348 0-.681.08-.927.222M291.146 642.571c.246-.142.384-.334.384-.535 0-.2-.138-.394-.384-.536M273.757 632.533l-18.789 10.848M270.501 653.42c.247.141.58.221.928.221.348 0 .682-.08.928-.222M275.612 632.533l15.532 8.968M291.144 642.573l-18.788 10.848M276.164 655.616c-.247.143-.385.335-.385.536s.138.394.384.536M254.968 644.453l15.533 8.968M296.807 644.77c-.246-.143-.58-.223-.928-.223-.348 0-.681.08-.927.222M294.023 645.305l-17.861 10.312M312.34 654.808c.246-.142.384-.335.384-.536 0-.2-.138-.393-.384-.535M294.95 644.77l-.927.535M291.696 665.656c.246.141.58.221.927.221.348 0 .682-.08.928-.222M296.807 644.77l15.533 8.967M312.34 654.808l-18.79 10.848M297.357 667.853c-.246.142-.384.334-.384.535s.138.394.384.536M276.162 656.688l15.533 8.968M318 657.005c-.245-.142-.579-.222-.927-.222-.348 0-.681.08-.927.222M315.216 657.542l-17.86 10.312M333.533 667.045c.246-.143.385-.336.385-.536 0-.201-.139-.394-.385-.536M316.144 657.006l-.928.536M312.89 677.891c.246.143.58.223.927.223.348 0 .682-.08.928-.222M318 657.006l15.533 8.968M333.533 667.045l-18.789 10.848M318.55 680.09c-.245.141-.383.334-.383.535 0 .2.138.393.384.535M297.356 668.925l15.532 8.968M339.194 669.241c-.245-.142-.579-.221-.927-.221-.348 0-.682.08-.928.221M336.412 669.777L318.55 680.09M354.727 679.28c.246-.142.385-.334.385-.535s-.139-.394-.385-.536M337.338 669.241l-.926.536M334.084 690.128c.245.142.58.222.927.222.348 0 .682-.08.928-.222M339.194 669.241l15.533 8.968M354.727 679.281l-18.789 10.848M339.744 692.325c-.245.142-.384.335-.384.536 0 .2.139.393.385.536M318.55 681.161l15.532 8.968M360.39 681.478c-.247-.142-.581-.222-.93-.222-.347 0-.68.08-.927.222M357.605 682.014l-17.86 10.312M375.922 691.517c.245-.142.383-.335.383-.536 0-.2-.138-.393-.384-.535M358.533 681.478l-.928.536M355.277 702.365c.246.141.58.221.928.221.348 0 .682-.08.928-.222M360.388 681.478l15.532 8.968M375.92 691.517l-18.788 10.848M360.938 704.561c-.245.143-.384.335-.384.536s.139.394.385.536M339.744 693.397l15.533 8.968M381.583 693.713c-.247-.141-.58-.22-.928-.22-.348 0-.682.079-.928.221M378.799 694.251l-17.861 10.312M381.581 693.715l.928.536M397.116 703.753c.245-.142.383-.335.383-.536 0-.2-.138-.393-.384-.535M379.727 693.715l-.928.536M376.47 714.6c.247.143.58.222.929.222.348 0 .681-.08.927-.221M382.51 694.251l14.604 8.432M397.114 703.753l-18.789 10.848M382.133 716.798c-.247.142-.385.335-.385.536 0 .2.138.393.384.535M360.938 705.633l15.533 8.968M402.776 705.95c-.246-.142-.58-.222-.927-.222-.348 0-.682.08-.928.222M399.992 706.486l-17.86 10.312M402.775 705.952l.928.534M418.31 715.989c.245-.142.383-.334.383-.535s-.138-.394-.384-.536M400.92 705.952l-.928.534M397.664 726.837c.247.142.58.222.929.222.348 0 .681-.08.927-.222M403.703 706.486l14.605 8.432M418.308 715.99l-18.79 10.848M403.327 729.033c-.247.143-.385.336-.385.537 0 .2.138.393.384.535M382.132 717.87l15.532 8.968M423.97 718.187c-.246-.142-.58-.222-.927-.222-.348 0-.682.08-.928.222M421.186 718.723l-17.86 10.312M423.97 718.187l.926.536M439.503 728.225c.246-.142.384-.334.384-.535 0-.2-.138-.394-.384-.536M422.114 718.187l-.928.536M418.86 739.073c.245.142.579.222.927.222.347 0 .681-.08.927-.222M424.896 718.723l14.607 8.432M439.503 728.227l-18.789 10.846M424.52 741.27c-.246.143-.384.335-.384.536s.138.394.384.536M403.325 730.105l15.533 8.968M445.164 730.422c-.246-.141-.58-.22-.928-.22-.348 0-.681.079-.927.22M442.38 730.96l-17.861 10.312M445.164 730.424l.928.536M460.696 740.462c.247-.142.385-.335.385-.536 0-.2-.138-.393-.384-.535M443.308 730.424l-.928.536M440.053 751.309c.246.142.58.222.927.222.348 0 .682-.08.928-.222M446.092 730.96l14.604 8.432M460.696 740.462l-18.788 10.848M445.714 753.507c-.246.142-.384.334-.384.535s.138.394.384.536M424.519 742.342l15.533 8.968M466.357 742.66c-.245-.143-.579-.223-.927-.223-.348 0-.681.08-.927.222M464.501 742.66l-18.787 10.847M481.89 752.697c.247-.14.385-.334.385-.534 0-.201-.138-.394-.384-.536M461.247 763.545c.246.143.58.223.927.223.348 0 .682-.08.928-.222M466.357 742.66l.928.535 14.605 8.432M481.89 752.7l-18.789 10.847M466.908 765.742c-.246.143-.384.336-.384.537 0 .2.138.393.384.535M445.714 754.58l15.531 8.967M487.552 754.896c-.246-.143-.58-.222-.928-.222-.348 0-.681.08-.928.221M485.696 754.896l-18.788 10.848M503.085 764.934c.245-.142.384-.334.384-.535s-.139-.394-.385-.536M482.44 775.782c.247.142.58.222.928.222.348 0 .682-.08.928-.222M487.55 754.896l.929.536 14.605 8.432M503.084 764.936l-18.79 10.846M488.101 777.98c-.245.141-.383.334-.383.535 0 .2.138.393.384.536M466.908 766.814l15.532 8.968M508.746 767.131c-.246-.141-.58-.221-.928-.221-.348 0-.682.08-.928.222M524.279 777.171c.245-.142.384-.335.384-.536 0-.2-.139-.393-.385-.535M503.634 788.017c.246.143.58.223.928.223.348 0 .682-.08.928-.222M506.89 767.133l-18.789 10.848M524.277 777.171l-18.789 10.848M509.296 790.216c-.246.142-.385.334-.385.535s.139.394.385.536M488.101 779.051l15.533 8.968M529.94 779.368c-.246-.142-.58-.222-.928-.222-.348 0-.682.08-.928.222M528.084 779.37l-18.79 10.846M545.472 789.406c.246-.141.384-.334.384-.535 0-.2-.138-.393-.384-.535M524.828 800.254c.246.143.58.222.928.222.348 0 .682-.08.928-.221M529.938 779.37l.928.534 14.605 8.432M545.47 789.408l-18.786 10.848M500.372 756.83c-.247.143-.385.335-.385.536s.138.394.384.536M509.295 791.288l15.533 8.968M521.015 745.984c-.246-.143-.58-.223-.928-.223-.348 0-.681.08-.927.222M518.23 746.52l-17.86 10.312M521.015 745.984l.926.536M536.548 756.022c.245-.142.384-.335.384-.536 0-.2-.139-.393-.385-.535M519.159 745.984l-.928.536M515.903 766.87c.247.142.58.221.928.221.348 0 .682-.08.928-.221M521.941 746.52l14.605 8.432M536.546 756.022l-18.787 10.848M561.08 763.838c-.246.142-.384.335-.384.535 0 .201.138.394.384.536M500.37 757.902l15.533 8.968M569.984 759.768c-.246-.142-.58-.222-.927-.222-.348 0-.682.08-.928.222M568.128 759.77l-7.05 4.068M582.47 768.048c.244-.143.383-.336.383-.536 0-.201-.139-.394-.385-.536M573.565 772.117c.245.142.58.222.927.222.348 0 .682-.08.928-.222M569.983 759.77l.928.534 11.557 6.673M561.079 764.91l12.485 7.208M582.468 768.048l-7.048 4.07M221.594 625.184l27.714 16M323.416 716.563l14.605 8.432M343.682 728.264l15.533 8.968M365.804 741.037l14.604 8.432M508.744 767.133l15.533 8.968M148.244 669.048l15.532 8.968M184.421 667.168c.247-.143.385-.335.385-.536M163.778 678.014c.246.143.58.223.927.223.348 0 .682-.08.928-.222M147.861 668.512c0 .2.138.393.384.535M148.245 666.46c-.246.142-.384.334-.384.535s.138.394.384.536M184.421 667.168l-18.789 10.848M184.421 665.651c.247-.142.385-.335.385-.535 0-.201-.138-.394-.384-.536M147.86 666.997v1.515M184.805 666.632v-1.515M169.439 681.285l15.533 8.968M205.615 679.403c.247-.141.385-.334.385-.535M184.972 690.251c.246.142.58.222.927.222.348 0 .682-.08.928-.222M169.055 680.749c0 .2.138.392.384.534M205.615 679.405l-18.789 10.848M169.053 679.232v1.517M205.999 678.869v-1.517M190.632 693.52l15.533 8.968M226.81 691.64c.245-.142.384-.335.384-.536M206.165 702.488c.247.142.58.221.928.221.348 0 .682-.08.928-.221M190.248 692.984c0 .201.139.394.385.536M226.808 691.641l-18.788 10.847M190.248 691.469v1.516M227.192 691.105v-1.516M372.364 798.443l15.532 8.968M408.541 796.563c.246-.142.384-.335.384-.536M387.896 807.411c.247.141.58.221.929.221.348 0 .681-.08.927-.222M371.98 797.907c0 .2.138.394.385.536M408.54 796.563l-18.788 10.848M371.98 796.392v1.515M408.925 796.029v-1.517M217.07 680.518l15.532 8.968M253.247 678.637c.245-.142.384-.335.384-.535M232.602 689.485c.247.142.58.222.928.222.348 0 .682-.08.928-.222M216.685 679.98c0 .202.139.395.385.537M253.245 678.638l-18.789 10.848M216.685 678.465v1.517M253.63 678.102v-1.517M238.263 692.753l15.533 8.968M274.44 690.873c.246-.142.384-.334.384-.535M253.796 701.721c.246.142.58.222.928.222.348 0 .682-.08.928-.222M237.879 692.217c0 .202.139.394.385.536M274.439 690.873l-18.787 10.848M237.879 690.702v1.517M274.824 690.34v-1.518M259.456 704.99l15.533 8.968M295.634 703.11c.246-.142.384-.335.384-.536M274.99 713.957c.246.142.58.222.928.222.348 0 .682-.08.928-.222M259.074 704.454c0 .2.138.393.384.536M295.634 703.11l-18.789 10.848M259.072 702.94v1.514M296.018 702.574v-1.515M280.65 717.227l15.533 8.968M316.828 715.345c.246-.141.384-.334.384-.535M296.184 726.193c.246.143.58.222.928.222.348 0 .681-.08.927-.221M280.268 716.69c0 .201.137.394.383.536M316.828 715.347l-18.79 10.848M280.266 715.174v1.517M317.212 714.811v-1.517M301.845 729.462l15.531 8.968M338.021 727.582c.247-.142.385-.334.385-.535M317.378 738.43c.246.142.58.222.928.222.348 0 .681-.08.927-.222M301.461 728.926c0 .201.138.394.384.536M338.021 727.582l-18.789 10.848M301.46 727.411v1.517M338.405 727.048v-1.517M323.039 741.7l15.533 8.967M359.216 739.82c.246-.143.384-.336.384-.537M338.572 750.665c.246.143.58.223.927.223.348 0 .682-.08.928-.222M322.655 741.163c0 .2.138.393.384.535M359.215 739.82l-18.789 10.847M322.655 739.648v1.515M359.599 739.283v-1.515M344.232 753.936l15.533 8.968M380.41 752.054c.246-.141.384-.334.384-.535M359.765 762.902c.247.142.58.222.928.222.348 0 .682-.08.928-.222M343.848 753.4c0 .2.14.393.385.535M380.408 752.056l-18.788 10.848M343.848 751.883v1.517M380.792 751.52v-1.517M365.426 766.171l15.533 8.968M401.604 764.291c.246-.142.384-.335.384-.535M380.96 775.14c.246.14.58.22.927.22.348 0 .682-.08.928-.221M365.042 765.635c0 .201.139.394.385.536M401.602 764.293l-18.787 10.846M365.042 764.12v1.517M401.988 763.757v-1.517M386.62 778.408l15.532 8.968M422.797 776.528c.246-.143.385-.335.385-.536M402.154 787.374c.245.143.58.223.927.223.348 0 .682-.08.928-.222M386.237 777.872c0 .2.138.393.384.535M422.797 776.528l-18.789 10.848M386.236 776.357v1.515M423.181 775.992v-1.515M407.813 790.645l15.533 8.968M443.99 788.763c.247-.141.385-.334.385-.535M423.348 799.611c.245.142.579.222.927.222.348 0 .682-.08.928-.222M407.43 790.109c0 .2.139.392.385.535M443.99 788.765l-18.788 10.848M407.43 788.592v1.517M444.375 788.229v-1.517M442.458 782.448l15.531 8.968M478.634 780.566c.247-.141.385-.334.385-.535M457.99 791.414c.247.142.58.222.928.222.348 0 .682-.08.928-.222M442.074 781.91c0 .202.138.395.384.537M478.634 780.568l-18.789 10.848M442.072 780.395v1.517M479.018 780.032v-1.517M421.263 770.211l15.533 8.968M457.44 768.331c.247-.143.385-.335.385-.536M436.797 779.177c.246.143.58.223.927.223.348 0 .682-.08.928-.222M420.88 769.675c0 .2.138.393.384.535M457.44 768.331l-18.788 10.848M420.879 768.16v1.515M457.824 767.795v-1.515M400.07 757.974l15.532 8.968M436.247 756.094c.246-.142.384-.334.384-.535M415.604 766.942c.245.142.579.222.927.222.348 0 .681-.08.927-.222M399.687 757.438c0 .201.137.394.383.536M436.247 756.094l-18.789 10.848M399.685 755.923v1.517M436.63 755.56v-1.517M378.876 745.74l15.532 8.967M415.053 743.857c.246-.141.384-.334.384-.535M394.408 754.705c.247.143.58.222.929.222.348 0 .681-.08.927-.221M378.492 745.201c0 .202.138.395.384.537M415.052 743.86l-18.788 10.847M378.492 743.686v1.517M415.437 743.323v-1.517M357.682 733.502l15.533 8.968M393.86 731.622c.245-.142.383-.335.383-.536M373.215 742.469c.246.142.58.222.928.222.348 0 .681-.08.927-.222M357.298 732.966c0 .2.139.393.385.535M393.858 731.622l-18.789 10.848M357.298 731.451v1.515M394.242 731.086v-1.515M315.295 709.03l15.531 8.967M351.47 707.149c.247-.142.386-.335.386-.535M330.828 717.997c.245.142.58.222.927.222.348 0 .682-.08.928-.222M314.91 708.493c0 .201.139.394.385.536M351.47 707.15l-18.788 10.847M314.91 706.977v1.517M351.855 706.614v-1.517M336.488 721.265l15.533 8.968M372.666 719.385c.245-.142.383-.334.383-.535M352.021 730.233c.246.142.58.222.928.222.348 0 .682-.08.928-.222M336.104 720.73c0 .2.139.393.385.535M372.664 719.385l-18.788 10.848M336.104 719.214v1.517M373.048 718.851v-1.517M294.1 696.793l15.532 8.968M330.277 694.913c.247-.142.385-.335.385-.536M309.634 705.76c.246.142.58.222.927.222.348 0 .682-.08.928-.222M293.717 696.257c0 .2.138.394.384.536M330.277 694.913l-18.789 10.848M293.716 694.742v1.515M330.661 694.377v-1.515M272.906 684.557l15.533 8.968M309.084 682.677c.246-.143.384-.335.384-.536M288.44 693.525c.246.141.58.22.927.22.348 0 .682-.079.928-.22M272.524 684.02c0 .202.137.394.383.536M309.084 682.677l-18.79 10.848M272.522 682.505v1.517M309.468 682.142v-1.517M251.712 672.321l15.533 8.967M287.89 670.44c.246-.142.384-.334.384-.535M267.245 681.288c.247.142.58.222.928.222.348 0 .682-.08.928-.222M251.328 671.784c0 .201.14.394.385.536M287.888 670.441L269.1 681.288M251.328 670.269v1.516M288.274 669.905v-1.516M230.519 660.085l15.533 8.968M266.696 658.205c.246-.143.384-.336.384-.537M246.052 669.051c.246.143.58.222.928.222.348 0 .681-.08.927-.221M230.135 659.549c0 .2.138.393.384.535M266.695 658.205l-18.789 10.848M230.135 658.033v1.516M267.079 657.669v-1.516M254.968 645.968l15.533 8.968M291.146 644.088c.246-.142.384-.335.384-.536M270.501 654.936c.247.141.58.221.928.221.348 0 .682-.08.928-.222M254.584 645.432c0 .2.14.394.385.536M291.144 644.088l-18.788 10.848M254.584 643.917v1.516M291.528 643.553v-1.516M276.162 658.205l15.533 8.968M312.34 656.325c.246-.143.384-.336.384-.536M291.696 667.171c.246.143.58.223.927.223.348 0 .682-.08.928-.222M275.78 657.669c0 .2.137.393.383.535M312.34 656.325l-18.79 10.848M275.778 656.153v1.516M312.724 655.789v-1.516M297.356 670.441l15.532 8.968M333.533 668.56c.246-.142.385-.334.385-.535M312.89 679.408c.246.142.58.222.927.222.348 0 .682-.08.928-.222M296.973 669.904c0 .202.138.394.384.536M333.533 668.561l-18.789 10.848M296.972 668.389v1.516M333.917 668.025v-1.516M318.55 682.677l15.532 8.968M354.727 680.797c.246-.142.385-.335.385-.536M334.084 691.645c.245.141.58.221.927.221.348 0 .682-.08.928-.222M318.167 682.14c0 .202.138.394.384.537M354.727 680.797l-18.789 10.848M318.165 680.625v1.517M355.11 680.262v-1.517M339.744 694.913l15.533 8.968M375.922 693.033c.245-.142.383-.335.383-.536M355.277 703.88c.246.143.58.222.928.222.348 0 .682-.08.928-.221M339.36 694.377c0 .201.139.394.385.536M375.92 693.033l-18.788 10.848M339.36 692.862v1.515M376.304 692.497v-1.515M360.938 707.15l15.533 8.968M397.116 705.269c.245-.142.383-.334.383-.535M376.47 716.117c.247.142.58.222.929.222.348 0 .681-.08.927-.222M360.554 706.614c0 .2.139.393.385.535M397.114 705.27l-18.789 10.848M360.554 705.097v1.517M397.498 704.734v-1.517M382.132 719.385l15.532 8.968M418.31 717.505c.245-.142.383-.334.383-.535M397.664 728.353c.247.142.58.222.929.222.348 0 .681-.08.927-.222M381.748 718.85c0 .2.138.393.384.535M418.308 717.507l-18.79 10.846M381.748 717.334v1.517M418.693 716.971v-1.517M403.325 731.622l15.533 8.968M439.503 729.742c.246-.142.384-.335.384-.536M418.86 740.589c.245.142.579.222.927.222.347 0 .681-.08.927-.222M402.943 731.086c0 .201.137.394.383.536M439.503 729.742l-18.789 10.848M402.941 729.571v1.515M439.887 729.206v-1.515M424.519 743.86l15.533 8.967M460.696 741.977c.247-.14.385-.334.385-.534M440.053 752.825c.246.143.58.223.927.223.348 0 .682-.08.928-.222M424.136 743.323c0 .2.138.393.384.535M460.696 741.98l-18.788 10.847M424.135 741.806v1.517M461.08 741.443v-1.517M445.714 756.094l15.531 8.968M481.89 754.214c.247-.142.385-.334.385-.535M461.247 765.062c.246.142.58.222.927.222.348 0 .682-.08.928-.222M445.33 755.558c0 .202.138.394.384.536M481.89 754.216l-18.789 10.846M445.328 754.043v1.517M482.274 753.68v-1.517M466.908 768.331l15.532 8.968M503.085 766.451c.245-.142.384-.335.384-.536M482.44 777.297c.247.143.58.223.928.223.348 0 .682-.08.928-.222M466.524 767.795c0 .2.138.393.384.536M503.084 766.451l-18.79 10.848M466.524 766.28v1.515M503.468 765.917V764.4M488.101 780.568l15.533 8.968M524.279 778.686c.245-.141.384-.334.384-.535M503.634 789.534c.246.143.58.222.928.222.348 0 .682-.08.928-.221M487.717 780.032c0 .2.139.393.385.535M524.277 778.688l-18.789 10.848M487.717 778.515v1.517M524.661 778.152v-1.515M500.37 759.42l15.533 8.967M536.548 757.54c.245-.144.384-.336.384-.537M515.903 768.385c.247.143.58.223.928.223.348 0 .682-.08.928-.222M499.986 758.883c0 .2.139.393.385.535M536.546 757.54l-18.787 10.847M499.986 757.368v1.515M536.932 757.003v-1.515M479.176 747.182l15.533 8.968M515.354 745.302c.246-.142.384-.335.384-.536M494.71 756.15c.246.142.58.221.927.221.348 0 .682-.08.928-.221M478.792 746.646c0 .201.139.394.385.536M515.352 745.302l-18.788 10.848M478.792 745.131v1.517M515.736 744.768v-1.517M457.983 734.947l15.533 8.966M494.16 733.065c.246-.141.384-.334.384-.535M473.516 743.913c.246.142.58.222.927.222.348 0 .682-.08.928-.222M457.599 734.41c0 .2.138.394.384.536M494.159 733.067l-18.789 10.846M457.599 732.894v1.517M494.543 732.531v-1.517M436.79 722.71l15.53 8.968M472.965 720.829c.247-.142.385-.334.385-.535M452.322 731.677c.246.142.58.222.928.222.348 0 .681-.08.927-.222M436.405 722.174c0 .2.138.393.384.535M472.965 720.83l-18.789 10.848M436.404 720.657v1.517M473.35 720.294v-1.515M415.594 710.473l15.533 8.968M451.772 708.593c.246-.142.384-.335.384-.535M431.128 719.441c.246.142.58.222.928.222.348 0 .681-.08.927-.222M415.212 709.937c0 .201.137.394.383.536M451.772 708.593l-18.79 10.848M415.21 708.422v1.515M452.156 708.06v-1.518M394.4 698.238l15.533 8.967M430.578 696.357c.246-.142.384-.335.384-.536M409.935 707.205c.245.142.579.221.927.221.348 0 .681-.08.928-.222M394.018 697.7c0 .202.138.395.384.537M430.578 696.358l-18.789 10.847M394.016 696.185v1.517M430.962 695.822v-1.517M373.207 686.001l15.533 8.968M409.384 684.12c.246-.141.384-.334.384-.535M388.74 694.968c.246.142.58.222.928.222.348 0 .682-.08.928-.222M372.823 685.465c0 .2.139.393.385.535M409.383 684.121l-18.787 10.848M372.823 683.949v1.516M409.768 683.585v-1.515M352.013 673.765l15.533 8.968M388.19 671.885c.246-.143.385-.335.385-.536M367.546 682.733c.246.141.58.22.928.22.348 0 .682-.08.928-.221M351.63 673.229c0 .2.138.393.384.535M388.19 671.885l-18.79 10.848M351.63 671.713v1.516M388.573 671.35v-1.517M330.82 661.528l15.532 8.968M366.997 659.648c.246-.142.384-.335.384-.536M346.352 670.496c.247.142.58.221.928.221.348 0 .682-.08.928-.221M330.436 660.992c0 .201.138.394.384.536M366.996 659.65l-18.79 10.846M330.436 659.477v1.516M367.38 659.113v-1.516M309.626 649.293l15.531 8.968M345.802 647.411c.247-.141.385-.334.385-.535M325.159 658.26c.246.141.58.221.927.221.348 0 .682-.08.928-.222M309.242 648.757c0 .2.138.393.384.535M345.802 647.413l-18.789 10.848M309.24 647.24v1.517M346.186 646.877v-1.517M288.43 637.056l15.534 8.968M324.608 635.176c.247-.143.385-.335.385-.536M303.965 646.022c.246.143.58.223.927.223.348 0 .682-.08.928-.222M288.048 636.52c0 .2.138.393.384.535M324.608 635.176l-18.788 10.848M288.047 635.005v1.515M324.992 634.64v-1.515M267.237 624.82l15.533 8.967M303.415 622.94c.246-.143.384-.336.384-.536M282.772 633.787c.245.142.579.222.927.222.348 0 .681-.08.927-.222M266.855 624.283c0 .201.137.394.383.536M303.415 622.94l-18.789 10.847M266.853 622.768v1.517M303.799 622.405v-1.517M232.052 666.401l-18.82 10.9M211.408 677.283c.247.141.58.221.928.221.348 0 .682-.08.928-.222M232.053 666.401c.246-.142.384-.335.384-.536M172.695 654.931l38.713 22.352M172.31 654.395c0 .201.139.394.385.536M232.436 665.865v-1.515M172.31 652.88v1.517M211.826 705.757l21.622 12.433M239.11 721.509l44.494 25.688M254.093 707.393l-18.789 10.797M233.45 718.19c.246.142.58.221.927.221.348 0 .682-.08.928-.221M211.442 705.22c0 .201.139.394.385.536M360.063 768.574l-18.811 10.81M254.093 707.392c.247-.142.385-.334.385-.535M211.442 703.705v1.516M254.477 706.857v-1.516M387.346 784.328l-18.789 10.797M366.703 795.123c.246.143.58.222.928.222.348 0 .682-.08.928-.221M344.696 782.155c0 .2.138.393.384.535M345.079 782.691l21.624 12.434M387.348 784.326c.245-.142.383-.334.383-.535M344.695 780.638v1.517M360.063 768.574c.246-.142.384-.335.384-.536M387.73 783.792v-1.517M360.447 768.04v-1.517M339.42 779.371c.245.142.579.222.927.222.348 0 .681-.08.927-.222M238.727 720.973c0 .2.138.394.384.536M283.604 747.197l55.814 32.174M238.725 719.457v1.517M285.559 607.355l15.533 8.966M301.093 616.321c.246.142.58.222.927.222.348 0 .682-.08.928-.222M309.996 612.253l-7.048 4.068M285.176 606.817c0 .202.138.394.384.537M309.997 612.251c.246-.141.384-.334.384-.535M285.175 605.302v1.517M310.38 611.717V610.2M306.752 619.59l15.533 8.968M322.287 628.558c.245.142.58.221.927.221.348 0 .682-.08.928-.221M331.19 624.49l-7.049 4.068M306.37 619.054c0 .201.138.394.384.536M331.19 624.488c.246-.142.385-.335.385-.536M306.368 617.54v1.514M331.573 623.953v-1.516M327.948 631.827l15.53 8.968M343.48 640.793c.246.143.58.223.928.223.348 0 .682-.08.928-.222M352.383 636.725l-7.048 4.07M327.564 631.291c0 .2.138.393.384.535M352.384 636.725c.246-.143.385-.335.385-.536M327.562 629.774v1.517M352.768 636.19v-1.517M370.335 656.3l15.533 8.967M385.868 665.267c.246.141.58.221.928.221.348 0 .681-.08.927-.222M394.772 661.198l-7.05 4.07M369.95 655.763c0 .201.14.394.385.536M394.772 661.197c.246-.142.384-.335.384-.536M369.95 654.248v1.517M395.156 660.662v-1.517M391.528 668.536l15.533 8.968M407.061 677.502c.247.143.58.223.929.223.347 0 .681-.08.927-.222M415.965 673.433l-7.048 4.07M391.144 668c0 .2.14.393.385.535M415.965 673.433c.247-.142.385-.335.385-.535M391.144 666.485V668M416.35 672.9v-1.518M412.722 680.773l15.533 8.966M428.256 689.74c.246.141.58.22.927.22.348 0 .682-.079.928-.221M437.159 685.67l-7.048 4.07M412.34 680.235c0 .202.137.394.383.536M437.16 685.669c.246-.142.384-.334.384-.535M412.338 678.72v1.517M437.543 685.134v-1.515M433.916 693.008l15.532 8.968M449.45 701.976c.246.141.58.221.927.221.348 0 .682-.08.928-.222M458.352 697.907l-7.048 4.069M433.533 692.472c0 .2.138.393.384.536M458.354 697.905c.246-.141.384-.334.384-.535M433.532 690.957v1.516M458.736 697.371v-1.517M455.11 705.245l15.532 8.968M470.644 714.211c.246.143.58.222.927.222.348 0 .682-.08.928-.221M479.546 710.142l-7.048 4.07M454.727 704.709c0 .2.138.393.384.535M479.548 710.142c.246-.142.384-.335.384-.536M454.725 703.193v1.516M479.932 709.608v-1.517M476.304 717.481l15.533 8.967M491.837 726.448c.246.142.58.222.928.222.348 0 .682-.08.928-.222M500.741 722.38l-7.05 4.068M475.92 716.944c0 .201.139.394.385.536M500.741 722.38c.246-.144.385-.336.385-.537M475.92 715.429v1.516M501.125 721.843v-1.515M497.498 729.717l15.533 8.968M513.03 738.685c.247.141.58.221.929.221.348 0 .682-.08.928-.222M521.935 734.616l-7.05 4.069M497.114 729.18c0 .202.139.394.385.536M521.935 734.614c.246-.141.385-.334.385-.535M497.114 727.665v1.517M522.319 734.08v-1.517M518.692 741.953l15.532 8.968M534.224 750.92c.247.142.58.222.929.222.348 0 .681-.08.927-.222M543.128 746.851l-7.048 4.07M518.308 741.417c0 .201.138.394.384.536M543.128 746.851c.247-.142.385-.335.385-.536M518.308 739.902v1.515M543.512 746.317V744.8M539.885 754.19l15.533 8.968M555.42 763.157c.245.142.579.222.927.222.348 0 .681-.08.927-.222M564.322 759.088l-7.048 4.07M539.503 753.653c0 .201.137.394.383.536M564.324 759.088c.245-.143.383-.336.383-.536M539.501 752.137v1.517M564.706 758.552v-1.515M349.141 644.064l15.533 8.966M364.674 653.03c.246.142.58.222.928.222.348 0 .681-.08.927-.222M373.578 648.961l-7.05 4.07M348.757 643.526c0 .202.138.394.385.536M373.578 648.96c.246-.141.384-.334.384-.535M348.757 642.011v1.517M373.962 648.425v-1.515M270.33 598.561l9.568 5.525M279.898 604.085c.247.142.58.222.928.222.348 0 .682-.08.928-.222M288.802 600.016l-7.05 4.07M269.946 598.025c0 .201.139.394.385.536M288.802 600.016c.247-.143.385-.335.385-.536M269.946 596.51v1.515M289.186 599.48v-1.515M561.079 766.425l12.485 7.208M573.565 773.633c.245.142.58.222.927.222.348 0 .682-.08.928-.222M582.47 769.563c.244-.142.383-.334.383-.535M582.468 769.565l-7.048 4.068M582.852 769.029v-1.517M560.696 765.89c0 .2.138.393.384.535M560.695 764.374v1.517M521.564 771.656l27.713 16M549.279 787.654c.245.143.579.223.927.223.348 0 .681-.08.927-.222M569.922 776.808l-18.789 10.848M521.181 771.118c0 .202.138.394.384.536M569.922 776.808c.246-.143.384-.336.384-.536M521.18 769.603v1.517M570.306 776.272v-1.515M246.044 612.584l15.532 8.968M282.221 610.702c.246-.141.384-.334.384-.535M261.576 621.55c.247.143.58.222.929.222.348 0 .681-.08.927-.222M245.66 612.048c0 .2.138.393.384.535M282.22 610.704l-18.788 10.848M245.66 610.531v1.517M282.605 610.168v-1.517M509.295 792.805l15.533 8.966M545.472 790.923c.246-.142.384-.334.384-.535M524.828 801.771c.246.142.58.222.928.222.348 0 .682-.08.928-.222M508.91 792.267c0 .201.14.394.386.536M545.47 790.925l-18.786 10.846M508.91 790.752v1.517M545.856 790.389v-1.517M463.652 794.683l36.726 21.205M500.378 815.886c.246.143.58.223.928.223.348 0 .682-.08.928-.222M521.021 805.04l-18.789 10.848M429.008 802.88l46.95 27.107M475.959 829.985c.245.143.579.223.927.223.348 0 .681-.08.927-.222M428.624 802.344c0 .201.139.394.385.536M496.6 819.14l-18.787 10.847M414.368 822.38c0 .2.138.393.384.535M428.623 800.829v1.516M393.175 810.144c0 .2.137.393.383.535M414.367 820.864v1.517M435.562 834.616c0 .2.138.393.384.535M393.173 808.627v1.517M463.268 794.147c0 .201.138.394.384.536M435.56 833.1v1.516M496.602 819.14c.246-.144.384-.336.384-.537M463.268 792.632v1.517M521.023 805.04c.245-.143.384-.335.384-.536M496.986 818.603v-1.515M463.192 838.427c.246-.141.384-.334.384-.535M521.405 804.504v-1.515M448.757 822.29c.247-.143.385-.336.385-.537M463.576 837.893v-1.517M420.805 813.955c.245-.142.384-.335.384-.536M449.141 821.753v-1.515M421.188 813.42v-1.516M393.557 810.68l15.533 8.968M409.092 819.646c.245.143.579.222.927.222.348 0 .681-.08.927-.221M420.804 813.955l-9.858 5.693M414.75 822.917l15.534 8.966M430.285 831.883c.246.142.58.222.928.222.347 0 .681-.08.927-.222M448.757 822.29l-16.617 9.593M435.946 835.152l15.531 8.968M451.479 844.12c.246.141.58.221.927.221.348 0 .682-.08.928-.222M463.19 838.429l-9.857 5.69M221.594 626.7l27.714 16M249.308 642.7c.246.141.58.221.928.221.348 0 .681-.08.927-.222M269.948 631.905l-18.786 10.796M197.144 640.816l27.714 16M224.858 656.816c.246.141.58.221.928.221.348 0 .681-.08.927-.222M221.21 626.163c0 .201.139.394.385.536M245.501 645.968l-18.789 10.848M196.76 640.28c0 .2.139.393.385.535M221.21 624.648v1.517M245.503 645.968c.245-.142.383-.335.383-.536M196.76 638.765v1.515M269.95 631.905c.245-.142.383-.334.383-.535M245.885 645.433v-1.516M270.332 631.371v-1.517M118.821 673.744l324.072 187.102M282.114 579.465L606.186 766.57M442.893 860.846l163.293-94.277M118.821 673.744l163.293-94.279" stroke-width="1.9999949999999997"/><path d="M118.821 688.145l324.072 187.103 163.293-94.277V766.57M118.821 688.145v-14.401M442.893 860.846v14.402M.506 576.77l161.624-93.314 67.237 38.82M77.06 610.18l152.307-87.905M.506 576.77l57.918 33.425 9.304 5.373M77.06 610.18l-9.332 5.388v12.42M77.06 622.601l152.307-87.904M77.06 622.601l-9.332 5.388M.506 589.192l57.918 33.425 9.304 5.372M.506 576.77v12.422M229.367 522.275v12.422M15.645 573.411l137.335-79.29M73.725 606.758l137.335-79.29M152.98 494.121l58.08 33.348M15.645 573.411l58.08 33.347" stroke-width="1.9999949999999997"/><path d="M183.128 499.792l-4.566 2.637 18.338 10.587M201.464 510.38l-4.564 2.636M163.236 493.963c0-1.131 1.588-2.048 3.548-2.048s3.548.917 3.548 2.048c0 1.132-1.589 2.049-3.548 2.049-1.96 0-3.549-.917-3.549-2.049M64.661 622.509c-1.186.685-3.109-.425-4.295-2.48-1.186-2.053-1.186-4.274 0-4.958 1.186-.685 3.109.425 4.295 2.48 1.186 2.053 1.186 4.274 0 4.958M183.128 499.792l18.336 10.587M31.232 600.02v3.711l8.175 4.718M39.407 604.74v3.71M31.232 600.02l8.175 4.72M3.621 580.993v7.799l19.037 10.99M22.658 591.984v7.798" stroke-width="1.9999949999999997"/><path d="M9.424 590.974c-.373.216-.98-.134-1.355-.783-.374-.648-.374-1.35 0-1.565.375-.216.982.134 1.356.783.374.648.374 1.349 0 1.565M6.541 589.309c-.375.216-.982-.134-1.356-.783-.375-.648-.375-1.35 0-1.565.374-.217.981.134 1.356.782.374.649.374 1.35 0 1.566M12.31 592.64c-.375.216-.982-.135-1.357-.783-.374-.649-.374-1.35 0-1.566.375-.216.982.134 1.356.783.375.648.375 1.35 0 1.565M15.194 594.304c-.375.217-.982-.134-1.356-.782-.375-.649-.375-1.35 0-1.566.374-.216.981.135 1.356.783.374.649.374 1.35 0 1.566M18.077 595.97c-.373.216-.98-.134-1.355-.783-.374-.648-.374-1.35 0-1.565.375-.217.982.134 1.356.782.374.649.374 1.35 0 1.566M20.962 597.635c-.374.216-.981-.134-1.356-.783-.374-.648-.374-1.349 0-1.565.375-.216.982.134 1.356.783.375.648.375 1.349 0 1.565M9.424 587.075c-.373.216-.98-.135-1.355-.783-.374-.649-.374-1.35 0-1.566.375-.216.982.135 1.356.783.374.649.374 1.35 0 1.566M6.541 585.41c-.375.216-.982-.135-1.356-.783-.375-.649-.375-1.35 0-1.566.374-.216.981.134 1.356.783.374.648.374 1.35 0 1.565M12.31 588.74c-.375.216-.982-.134-1.357-.783-.374-.648-.374-1.35 0-1.565.375-.217.982.134 1.356.782.375.649.375 1.35 0 1.566M15.194 590.405c-.375.216-.982-.134-1.356-.783-.375-.648-.375-1.349 0-1.565.374-.216.981.134 1.356.783.374.648.374 1.349 0 1.565M18.077 592.07c-.373.217-.98-.134-1.355-.782-.374-.649-.374-1.35 0-1.566.375-.216.982.134 1.356.783.374.648.374 1.35 0 1.565M20.962 593.736c-.374.216-.981-.135-1.356-.783-.374-.649-.374-1.35 0-1.566.375-.216.982.135 1.356.783.375.649.375 1.35 0 1.566M3.621 580.993l19.037 10.99M72.394 612.873v12.423M224.701 524.97v12.42" stroke-width="1.9999949999999997"/></g></svg>