<svg xmlns="http://www.w3.org/2000/svg" width="663" height="386"><path d="M455.818 83.13v145.73l8.05 4.648M463.869 87.778v145.73M471.92 228.86l-8.051 4.648M471.92 83.13v145.73M578.653 158.994V295.13l8.052 4.649M586.705 163.643V299.78M594.756 295.13l-8.051 4.649M594.756 158.994V295.13M639.407 123.917v17.392M639.407 260.053l8.052 4.648M647.46 128.566v136.136M655.511 260.053l-8.052 4.648M655.511 123.917v136.136M516.573 48.053v23.612M524.624 52.701v38.663M532.675 48.053V95.6M471.92 199.897l106.733 57.299M471.92 137.297l106.733 57.3M471.92 191.875l106.733 57.299M471.92 129.276l106.733 57.299M643.433 233.414v-27.182l-4.026-2.324M639.407 235.738v24.315M643.433 170.815v-27.182l-4.026-2.324-44.651 25.78M639.407 173.14v30.768M471.92 83.13l-8.051 4.648M455.818 83.13l8.05 4.648M463.869 78.482l8.052 4.648M463.869 78.482l-8.051 4.648M532.675 48.053l-8.051 4.648M516.573 48.053l8.05 4.648M524.624 43.404l8.051 4.65M524.624 43.404l-8.051 4.65M594.756 158.994l-8.051 4.65M578.653 158.994l8.052 4.65M586.705 154.345l8.05 4.65M586.705 154.345l-8.052 4.65M655.511 123.917l-8.052 4.65M639.407 123.917l8.052 4.65M647.46 119.27l8.051 4.647M647.46 119.27l-8.053 4.647M496.508 150.497l-24.587 14.195M492.335 148.258l-20.414 11.785M524.624 71.665l-52.703 30.428M520.599 69.34L471.92 97.445M520.599 69.34l4.025 2.325M474.107 128.013v-10.007l48.33-27.904M474.107 118.006l104.546 56.126M522.437 90.102l106.733 57.3M474.107 128.013l104.546 56.126M471.92 129.276l2.187-1.263M471.92 191.875l2.187-1.263v-10.007l15.06-8.695M474.107 180.605l104.546 56.126M474.107 190.612l104.546 56.126M494.848 122.684l8.864 5.119M503.713 127.802c1.706.984 4.019 1.537 6.43 1.537 2.413 0 4.726-.553 6.431-1.537M492.19 118.783a2.95 2.95 0 0 0-.005.188c0 1.392.958 2.728 2.663 3.712M538.447 115.173c1.706-.985 2.664-2.32 2.664-3.713M516.573 127.803l21.874-12.63M495.278 115.632l8.865 5.119M517.003 120.751l21.874-12.63M530.012 95.58l8.865 5.117M504.143 120.75c1.706.985 4.019 1.538 6.43 1.538 2.413 0 4.726-.553 6.431-1.538" fill="none" stroke="#646464" stroke-width="1.1" stroke-linecap="round" stroke-linejoin="round"/><path d="M495.278 108.207c-1.705.985-2.663 2.32-2.663 3.713 0 1.392.958 2.727 2.664 3.712M538.878 108.122c1.705-.985 2.663-2.32 2.663-3.713 0-1.392-.958-2.728-2.663-3.713M530.013 95.578c-1.706-.984-4.019-1.537-6.43-1.537-2.413 0-4.726.553-6.431 1.537M495.278 108.207l21.874-12.628M492.615 111.92l-.424 6.864M541.54 104.41l-.43 7.05M491.399 182.804l8.864 5.119M500.264 187.922c1.705.984 4.018 1.538 6.43 1.538s4.725-.554 6.43-1.538M488.74 178.904a2.914 2.914 0 0 0-.005.187c0 1.393.958 2.728 2.664 3.713M513.124 187.923l21.874-12.63M491.829 175.752l8.865 5.119M513.554 180.871l19.048-10.997M500.694 180.87c1.705.985 4.018 1.538 6.43 1.538s4.725-.553 6.43-1.538M491.829 168.327c-1.705.985-2.664 2.32-2.664 3.713 0 1.392.959 2.728 2.664 3.712M491.829 168.327l18.257-10.54M534.998 175.293c1.311-.757 2.19-1.727 2.52-2.78M489.165 172.04l-.424 6.864M643.433 143.633l-48.677 28.104M608.82 228.979v60.714l-4.024-2.324M604.796 226.655v60.714M608.82 289.693l4.027-2.324M612.847 226.655v60.714M631.147 216.089v60.715l-4.025-2.325M627.122 214.133v4.54M631.147 276.804l4.026-2.325M635.173 213.765v60.714M612.847 257.011l18.3-10.565" fill="none" stroke="#646464" stroke-width="1.1" stroke-linecap="round" stroke-linejoin="round"/><path d="M612.847 254.654l18.3-10.565-4.025-2.325M612.847 250.006l14.275-8.242M612.847 245.465l18.3-10.565M612.847 243.108l18.3-10.565-4.025-2.325M612.847 238.46l14.275-8.242M612.847 233.92l18.3-10.566M612.847 231.562l18.3-10.565-4.025-2.324M612.847 226.914l14.275-8.241M612.847 268.558l18.3-10.566M612.847 266.2l18.3-10.565M612.847 261.552l14.275-8.241M612.847 280.104l18.3-10.565M612.847 277.747l18.3-10.566M612.847 273.098l14.275-8.241M627.122 225.679v4.54M627.122 237.224v4.54M627.122 248.77v4.54M631.147 255.635l-4.025-2.324M631.147 267.18l-4.025-2.323M627.122 260.316v4.54M627.122 271.863v2.616M608.82 168.265v60.714M604.796 165.94v60.715M612.847 165.94v60.715M631.147 155.375v60.714M627.122 153.051v7.89M635.173 153.051v60.714M608.82 168.265l-4.024-2.325M608.82 168.265l4.027-2.325M631.147 155.375l-4.025-2.324M631.147 155.375l4.026-2.324M604.796 165.94l4.025-2.324M627.122 153.051l4.025-2.325M612.847 165.94l-4.026-2.324M635.173 153.051l-4.026-2.325M627.122 167.948v4.54M627.122 179.494v4.54M627.122 191.04v4.54M627.122 202.586v4.54M612.847 222.374l18.3-10.566M612.847 220.016l18.3-10.565-4.025-2.324M612.847 215.368l14.275-8.241M612.847 210.828l18.3-10.566M612.847 208.47l18.3-10.565-4.025-2.324M612.847 203.822l14.275-8.241M612.847 199.281l18.3-10.565M612.847 196.924l18.3-10.566-4.025-2.324M612.847 192.276l14.275-8.242M612.847 187.735l18.3-10.565M612.847 185.378l18.3-10.565-4.025-2.325M612.847 180.73l14.275-8.242M612.847 176.189l18.3-10.565M612.847 173.832l18.3-10.565-4.025-2.325M612.847 169.183l14.275-8.241M643.433 170.815l-8.26 4.77M604.796 193.123l-10.04 5.797M601.392 195.088l3.404 1.827M604.796 223.891l-10.04 5.796M643.433 206.232l-8.26 4.77M639.407 203.908l-4.234 2.444M604.796 228.54l-10.04 5.796M627.122 215.65l-14.275 8.241M604.796 255.722l-10.04 5.797M643.433 233.414l-8.26 4.77M384.414 192.514v31.284l25.99 15.007M410.405 207.52v31.285M384.414 192.514l25.99 15.006 26.137-15.09M422.383 184.255l14.158 8.175M384.414 192.514l14.233-8.218M436.54 192.43v31.284M410.405 238.805l26.136-15.091M410.405 223.162l26.136-15.09M435.382 208.741v-14.304M411.563 222.493V208.19l23.82-13.752M435.382 208.741l-12.387-7.152M411.563 221.155l22.66-13.083M421.164 222.493v2.82M425.783 219.827v2.819M421.164 222.493l4.619-2.666M421.164 225.313l4.619-2.667-1.295-.747v-1.325M424.488 221.9l-3.324 1.919M241.717 226.194v54.875l45.49 26.264M287.207 252.458v54.875M241.717 226.194l45.49 26.264 89.528-51.689M290.701 254.475v50.84M287.207 307.333l3.494-2.017M351.838 245.304l21.403 12.358M373.241 206.82v50.842M376.735 200.769v54.875M373.241 257.662l3.494-2.018M355.097 188.277l21.638 12.492M290.701 254.475l82.54-47.655M241.717 226.194l22.355-12.907" fill="none" stroke="#646464" stroke-width="1.1" stroke-linecap="round" stroke-linejoin="round"/><path d="M329.799 189.487v20.365l4.583-2.646M355.097 174.88v20.366M329.799 189.487l25.298-14.607M315.796 181.402l14.003 8.085M341.095 166.796l14.002 8.084M315.65 176.943l1.999-1.154M320.296 179.57l10.452 6.035M338.313 169.168l10.454 6.035M334.178 194.217v10.913M350.72 184.667v10.913M334.178 194.217l16.541-9.55M334.178 205.13l16.541-9.55M342.448 190.833l-1.073.619M343.521 190.213l-1.073.62M341.375 191.452v1.24M343.521 190.213v1.239M331.355 194.53c-.255-.146-.255-.624 0-1.065.255-.442.668-.68.923-.533.255.147.255.624 0 1.066-.255.441-.668.68-.923.533M341.375 192.692l2.146-1.24M330.748 185.605l18.019-10.402M311.813 162.078l8.483 17.493M329.83 151.675l8.483 17.493M320.296 179.57l18.017-10.402M321.4 180.208l18.019-10.402M311.813 162.078l-1.13-.652 8.483 17.493M328.701 151.024l1.13.651M317.411 160.37c.183.443.464.779.824.987.586.338 1.353.322 2.176-.046M319.166 178.919l1.13.652M325.782 157.012c-.003.676-.404 1.33-1.137 1.855M317.733 160.923c.468.072.998-.018 1.55-.264M320.411 161.312l4.233-2.445M319.282 160.66l4.233-2.445M321.08 179.117l1.105.638M337.528 169.622l1.105.637M334.178 205.13l15.787 9.115v1.957M349.965 214.245l16.542-9.55" fill="none" stroke="#646464" stroke-width="1.1" stroke-linecap="round" stroke-linejoin="round"/><path d="M334.178 207.087l15.787 9.115 16.542-9.55M350.72 195.58l15.787 9.115M352.62 196.677l2.477-1.431M334.178 205.13v1.957M366.507 204.695v1.957M315.652 176.942c-.955.595-1.486 1.376-1.486 2.186 0 .853.587 1.67 1.63 2.274M337.528 169.622v1.275M315.796 181.402l3.935 2.271M315.796 201.768l14.003 8.084M314.166 199.495c0 .852.587 1.67 1.631 2.273M315.796 201.768l3.935 2.272M341.096 166.795c-1.044-.603-2.46-.941-3.937-.941-.15 0-.298.003-.447.01M314.165 199.495v-20.366M341.095 166.796l3.935 2.272M325.782 157.012v-3M324.653 153.362l4.048-2.338M324.654 156.36c-.004.676-.406 1.33-1.139 1.855M325.782 154.013l-1.13-.651M324.653 156.36v-2.998M317.164 158.989l-1.13-.652-5.35 3.09M317.164 158.989l-1.303.752M325.782 154.013l4.049-2.338M315.861 159.74l-4.048 2.338M317.164 158.989l.246 1.382M548.776 149.64a.48.48 0 0 0 .234.055.48.48 0 0 0 .235-.056M533.13 140.607l15.646 9.033-.235-.136M549.244 149.64l10.955-6.325M560.2 143.314c.062-.036.097-.085.097-.135 0-.051-.035-.1-.097-.136M533.13 140.607l.234.135M560.2 143.315l-.234.134M544.555 134.01a.484.484 0 0 0-.235-.056.48.48 0 0 0-.234.056M544.555 134.01l15.644 9.034M544.555 134.01l.233.136M544.085 134.01l-.234.136M533.13 140.337l10.955-6.326M548.776 149.985a.477.477 0 0 0 .234.056.48.48 0 0 0 .235-.056M533.13 140.953l15.646 9.033-.235-.136M549.244 149.986l10.955-6.326M533.13 140.953l.234.135M560.2 143.66c.062-.036.097-.085.097-.136M560.2 143.66l-.234.136M548.658 149.572v.346M549.244 149.64v.346M560.297 143.179v.346M560.2 143.315v.345M533.897 140.416l10.327-5.962M533.897 140.416l14.204 8.2M553.327 146.043c0-.205.289-.372.644-.372.355 0 .643.167.643.372s-.288.371-.643.371c-.355 0-.643-.166-.643-.371M559.592 143.89c-.03-.017-.03-.074 0-.126.03-.053.08-.081.11-.064.03.018.03.074 0 .127-.03.052-.08.08-.11.063M328.839 232.456c2.23 3.014 7.36 4.97 13.037 4.97 7.829 0 14.175-3.664 14.175-8.184 0-3.278-3.388-6.24-8.61-7.527M544.224 134.454l14.204 8.2-10.327 5.963M328.582 232.604l6.375 24.308M334.958 256.91c0 2.207 3.097 3.995 6.918 3.995 3.82 0 6.918-1.788 6.918-3.994M356.05 229.243l-7.256 27.669M491.022 210.151l-4.635 2.677 22.714 13.114v24.373M486.387 237.2l22.714 13.115M486.387 212.828V237.2M514.563 222.79l-5.462 3.152M486.387 212.828l22.714 37.487M486.387 237.2l22.714-11.258M509.1 250.315l5.553-3.206M514.653 224.77v25.67l3.189 1.841M517.842 226.611v25.67M514.653 224.77l3.189 1.841 1.85-1.068M514.653 224.77l1.737-1M517.842 252.281l6.983-4.032M519.874 231.222l11.85 26.902M519.434 231.476l-1.55 1.014 11.707 26.575 2.134-.94M519.434 231.476l5.45-3.146M531.725 258.124l16.416-9.478M543.623 238.39l4.518 10.256" fill="none" stroke="#646464" stroke-width="1.1" stroke-linecap="round" stroke-linejoin="round"/><path d="M557.673 109.018l-48.332 27.904v6.598l69.312 37.21M265.721 232.9v-36.29M265.721 232.9l45.354-26.185v-36.29M311.075 206.715l-21.976 12.688M265.721 196.61l45.354-26.185-21.976 12.687" fill="none" stroke="#646464" stroke-width="1.1" stroke-linecap="round" stroke-linejoin="round"/><path d="M308.884 175.05v30.624l-40.972 23.655M289.265 185.359c.32.184.837-.115 1.156-.668.32-.553.32-1.15 0-1.334-.32-.184-.836.114-1.156.667-.319.553-.319 1.15 0 1.334" fill="none" stroke="#646464" stroke-width="1.1" stroke-linecap="round" stroke-linejoin="round"/><path d="M289.48 184.987c.2.116.526-.072.727-.42.2-.347.2-.723 0-.839-.201-.115-.526.072-.727.42-.2.347-.2.723 0 .839M308.884 175.05l-40.972 23.655v30.624M265.721 232.9l-1.65-.953v-36.29M265.721 196.61l-1.65-.953M311.075 170.425l-1.65-.953M264.072 195.657l45.353-26.185-21.975 12.688M285.535 221.46c.004 1.694-.578 3.657-1.616 5.455-1.035 1.793-2.438 3.274-3.901 4.119M296.78 221.322c-1.463.845-2.867.984-3.901.386-1.032-.595-1.613-1.873-1.616-3.555M283.918 222.393c-.25 1.23-.743 2.505-1.43 3.696-1.035 1.792-2.439 3.274-3.902 4.118" fill="none" stroke="#646464" stroke-width="1.1" stroke-linecap="round" stroke-linejoin="round"/><path d="M296.78 221.322l-16.763 9.712-1.432-.826M295.348 220.495c-1.113.643-2.2.882-3.119.685" fill="none" stroke="#646464" stroke-width="1.1" stroke-linecap="round" stroke-linejoin="round"/><path d="M296.78 221.322l-1.432-.827 8.014 4.628M278.585 230.208l8.014 4.627M303.362 225.123l-16.763 9.712M286.6 234.835v1.717M278.585 231.925l8.014 4.627M278.585 230.208v1.717M303.362 226.84l-16.763 9.712M303.362 225.123v1.716M303.362 225.123l-14.963 1.056-1.8 8.656M315.015 219.158l8.807-5.083M318.131 221.497a.955.955 0 0 0 .468.112.96.96 0 0 0 .47-.112M315.016 219.158c-.124.072-.194.17-.194.27 0 .102.07.2.194.272M324.76 214.075a.957.957 0 0 0-.468-.112.96.96 0 0 0-.47.112M324.76 214.075l3.023 1.745M324.76 214.075l.47.271M327.875 216.414c.125-.072.194-.17.194-.27 0-.102-.07-.2-.194-.271M323.822 214.075l-.469.271M327.875 216.415l-.47.27M319.068 221.498l8.338-4.812M315.015 219.7l2.646 1.527M327.783 215.82l.091.054M318.131 222.07a.955.955 0 0 0 .468.112.96.96 0 0 0 .47-.112M327.875 216.988l-.47.271M314.822 220.002c0 .102.07.2.194.271M319.068 222.071l8.338-4.812M327.875 216.987c.125-.071.194-.169.194-.27M315.015 220.273l2.646 1.527M319.068 221.498v.573M327.847 216.43l.028.558M328.07 216.144v.574M314.821 219.429v.573M317.952 221.823c-.055.032-.145-.02-.2-.116-.055-.096-.055-.2 0-.232s.145.02.2.116c.056.096.056.2 0 .232M315.015 219.7v.573M316.298 220.685l.573.331M316.298 220.685v.162l.573.331M316.872 221.016v.162M317.661 221.227l.469.27M317.661 221.8l.469.271M318.13 221.498v.573M325.913 215.27l-.41-.237M326.324 215.506l-.41-.236M326.324 215.506l.583-.191M325.677 214.982c0-.058.08-.104.18-.104.099 0 .179.046.179.104 0 .057-.08.103-.18.103-.098 0-.178-.046-.178-.103M325.504 215.033l.251-.383M547.157 177.688l-37.816 21.833M509.341 206.12l69.312 37.21M509.341 206.12v-6.599M364.828 301.521l-2.608 1.507M362.22 300.015l-2.608 1.506M364.828 301.521v-2.95l-27.451 15.848M364.828 301.521l-27.451 15.85M339.986 315.865v31.677M337.377 317.371v31.677M334.769 315.865v31.677M337.377 314.42v2.951" fill="none" stroke="#646464" stroke-width="1.1" stroke-linecap="round" stroke-linejoin="round"/><path d="M309.927 301.521v-2.95l27.45 15.848M309.927 301.521l27.45 15.85M337.377 314.42v2.951M348.292 289.023l11.32 6.535M334.769 284.227l-24.842 14.344M334.769 312.913v-38.188M362.22 258.876l-27.451 15.85M337.377 314.42V276.23M364.828 298.57v-38.188l-27.451 15.85M364.828 260.382l-2.608-1.506M339.986 312.913l-2.609 1.506M339.986 312.913v-38.188M362.22 300.077v-38.189M364.828 298.57l-2.608 1.507M362.22 261.888l-2.608-1.506M359.612 298.57v-16.082M362.22 300.077l-2.608-1.506M362.22 280.982l-22.234 12.837M339.986 274.725l-2.609-1.506M337.377 276.231l-2.608-1.506M364.828 301.521V333.2M362.22 303.028v31.677M359.612 304.534V333.2M364.828 333.2l-2.608 1.505-2.608-1.505M315.143 304.534V333.2M312.535 303.028v31.677M309.927 301.521V333.2M315.143 333.2l-2.608 1.505-2.608-1.505M339.986 347.542l-2.609 1.506-2.608-1.506M403.599 191.466c-.052.2-.079.401-.079.603 0 1.46 1.37 2.804 3.58 3.512M407.198 195.612c1.009.311 2.135.474 3.28.474 3.842 0 6.958-1.798 6.958-4.017 0-.202-.027-.403-.08-.603M311.075 186.15l3.09-1.784M415.106 186.657l1.854 2.748" fill="none" stroke="#646464" stroke-width="1.1" stroke-linecap="round" stroke-linejoin="round"/><path d="M403.994 189.404c-.313.465-.474.96-.474 1.459 0 1.46 1.37 2.804 3.58 3.512M407.198 194.405c1.009.312 2.135.475 3.28.475 3.842 0 6.958-1.799 6.958-4.017 0-.5-.161-.994-.475-1.458M393.551 175.433a5.877 5.877 0 0 0-.246 1.676c0 5.476 7.688 9.915 17.173 9.915 9.484 0 17.173-4.44 17.173-9.915a5.87 5.87 0 0 0-.247-1.676M400.508 157.774c0-3.18 4.464-5.757 9.97-5.757s9.97 2.577 9.97 5.756c0 3.18-4.464 5.756-9.97 5.756s-9.97-2.577-9.97-5.756M405.849 186.657l-1.855 2.748M393.551 175.433l7.189-18.895M420.448 157.774l6.955 17.66M249.943 302.027l-2.609 1.506M247.334 300.521l-2.609 1.506M249.943 302.027v-2.952l-27.452 15.85M249.943 302.027l-27.452 15.849M225.1 316.37v31.678M222.491 317.876v31.678M219.883 316.37v31.678M222.491 314.925v2.95M195.04 302.027v-2.952l27.451 15.85M195.04 302.027l27.451 15.849M222.491 314.925v2.95M205.511 293.03l-5.253 3.033M195.04 299.075v-38.188M222.491 245.038l-27.45 15.849M197.648 300.581v-38.188M225.1 279.876v-33.332l-27.452 15.849M225.1 246.544l-2.609-1.506M225.1 313.418l-2.609 1.507M200.258 299.075v-38.188M222.491 278.37v-30.32M249.943 299.075l-2.609 1.506M222.491 248.05l-2.608-1.506M219.883 279.606v-10.955M222.491 267.145l-22.233 12.837M200.258 260.887l-2.61-1.506M197.648 262.393l-2.608-1.506M249.943 302.027v31.678M247.334 303.533v31.678M244.725 305.039v28.666M249.943 333.705l-2.609 1.506-2.609-1.506M200.258 305.039v28.666M197.648 303.533v31.678M195.04 302.027v31.678M200.258 333.705l-2.61 1.506-2.608-1.506M225.1 348.048l-2.609 1.506-2.608-1.506M233.946 289.84l15.997 9.235M197.648 300.581l2.61-1.506M205.511 297.036l11.688 6.748M233.946 294.116l-16.747 9.668v2.284M205.511 299.319l11.688 6.749M233.946 296.398l-16.747 9.67M205.511 297.036v2.283M233.946 294.116v2.282M205.511 294.752l11.688 6.75M233.946 291.832l-16.747 9.67v2.282M205.511 297.036l11.688 6.748M233.946 294.116l-16.747 9.668M205.511 294.752v2.284M233.946 291.832v2.284M205.511 292.469l11.688 6.749M233.946 289.55l-16.747 9.668v2.283M205.511 294.752l11.688 6.75M233.946 291.832l-16.747 9.67M205.511 292.469v2.283M233.946 289.55v2.282M205.511 290.187l11.688 6.748M233.946 287.266l-16.747 9.669v2.283M205.511 292.469l11.688 6.749M233.946 289.55l-16.747 9.668M205.511 290.187v2.282M233.946 287.266v2.283M222.257 278.235l-16.746 9.669 11.688 6.747M233.946 284.983L217.2 294.65M222.257 278.235l11.69 6.748M217.2 294.651v2.284M205.511 290.187l11.688 6.748M233.946 287.266l-16.747 9.669M205.511 287.904v2.283M233.946 284.983v2.283" fill="none" stroke="#646464" stroke-width="1.1" stroke-linecap="round" stroke-linejoin="round"/><path d="M219.796 282.797l5.682 3.28-4.559 2.632" fill="none" stroke="#646464" stroke-width="1.1" stroke-linecap="round" stroke-linejoin="round"/><path d="M219.796 282.797l-4.559 2.631 5.682 3.28M621.454 205.858l4.074 2.188M612.847 201.238l2.319 1.245M85.643 290.551l48.975-28.275M85.643 290.551l-3.436-1.983M129.594 273.751v9.164l-3.951 2.28M125.643 276.033v9.163M125.643 276.033l3.95-2.282M89.82 255.275l4.175-2.41M85.643 262.507v99.23M85.643 262.507v4.822M86.382 253.29l4.176-2.41M82.207 260.524v4.821M89.82 255.275c-1.108.639-2.17 1.76-2.953 3.117-.783 1.356-1.223 2.836-1.223 4.115M86.382 253.29c-1.107.64-2.169 1.761-2.952 3.117-.783 1.357-1.223 2.837-1.223 4.116M82.207 260.524v99.228M51.662 233.245l4.176-2.411M51.662 233.244c-1.107.64-2.17 1.761-2.952 3.118-.783 1.356-1.223 2.836-1.223 4.115M47.486 240.477v4.822M51.662 233.245l34.72 20.046M47.486 240.477l34.72 20.047M134.618 328.638v4.822M126.266 343.103l4.177-2.41M130.443 340.692c1.107-.64 2.17-1.76 2.953-3.117.783-1.356 1.223-2.837 1.223-4.116M89.82 364.146l40.623-23.454M134.618 234.231c0-1.278-.44-2.25-1.222-2.703-.783-.452-1.846-.347-2.953.293M51.662 233.245l18.291-10.56M89.82 255.275l40.623-23.454M126.266 234.232l4.177-2.411M134.618 234.232v99.228M134.618 234.232v4.822M122.83 232.248l4.176-2.412M86.382 253.29l40.624-23.454M118.039 224.66l8.967 5.176M129.959 229.544c-.783-.452-1.845-.347-2.953.292" fill="none" stroke="#646464" stroke-width="1.1" stroke-linecap="round" stroke-linejoin="round"/><path d="M118.039 222.663l11.92 6.881 3.437 1.985M47.486 334.884v4.821M85.644 361.735c0 1.279.44 2.251 1.223 2.703.783.453 1.845.347 2.952-.292M47.486 240.477v99.228M82.207 359.75c0 1.28.44 2.252 1.223 2.704M83.43 362.455l3.436 1.983M47.487 339.705c0 1.279.44 2.251 1.223 2.703M48.71 342.409l34.72 20.046M88.476 279.38v4.21M88.476 279.38l5.2-3.002M88.476 279.38l2.392 1.381M88.476 283.59l2.392 1.382M93.675 276.378l2.392 1.381M90.868 280.761l5.2-3.002M90.868 284.972l.721-.474M90.868 280.761v4.21M96.067 277.759v.89M90.868 281.65l17.542-10.127M90.868 281.65l1.442.833M90.868 284.083l1.442.831 17.541-10.127M92.31 282.483l17.541-10.128M92.31 284.914v-2.431M108.41 271.523l1.441.832M109.851 274.787v-2.432M69.953 213.14v25.826l16.89 9.751M86.843 222.893v25.824M69.953 213.14l16.89 9.753 31.196-18.011M69.953 213.14l31.195-18.01M86.843 248.717l31.196-18.01M118.039 204.882v25.825M101.148 195.13l16.89 9.752M111.59 208.604v25.825" fill="none" stroke="#646464" stroke-width="1.1" stroke-linecap="round" stroke-linejoin="round"/><path d="M111.59 208.604l-1.622-.937-24.748 14.288M109.968 207.667l6.428-3.712M85.22 221.955v25.825M112.416 209.978v2.85l4.891-2.824M117.307 207.153v2.851M112.416 209.978l4.891-2.825M112.639 215.497v9.527l4.385-2.531M117.024 212.966v9.527" fill="none" stroke="#646464" stroke-width="1.1" stroke-linecap="round" stroke-linejoin="round"/><path d="M114.475 222.776c-.185-.106-.185-.452 0-.771.184-.32.483-.492.668-.386.184.107.184.452 0 .771-.185.32-.484.493-.668.386M113.159 221.056c-.185-.107-.185-.452 0-.772.184-.32.483-.492.668-.385.184.106.184.451 0 .77-.185.32-.484.493-.668.387" fill="none" stroke="#646464" stroke-width="1.1" stroke-linecap="round" stroke-linejoin="round"/><path d="M113.159 221.056c-.185-.107-.185-.452 0-.772.184-.32.483-.492.668-.385.184.106.184.451 0 .77-.185.32-.484.493-.668.387M114.538 220.26c-.185-.107-.185-.452 0-.772.184-.32.483-.492.668-.385.184.106.184.451 0 .77-.185.32-.484.493-.668.387M115.917 219.463c-.185-.106-.185-.451 0-.77.184-.32.483-.493.668-.386.184.106.184.451 0 .77-.185.32-.484.493-.668.387M113.159 219.594c-.185-.106-.185-.451 0-.77.184-.32.483-.493.668-.386.184.106.184.452 0 .771-.185.32-.484.492-.668.386M114.538 218.799c-.185-.107-.185-.452 0-.771.184-.32.483-.493.668-.386.184.106.184.452 0 .771-.185.32-.484.492-.668.386M115.917 218.003c-.185-.107-.185-.452 0-.771.184-.32.483-.493.668-.386.184.106.184.452 0 .771-.185.32-.484.492-.668.386M114.538 217.338c-.185-.107-.185-.452 0-.771.184-.32.483-.492.668-.386.184.107.184.452 0 .771-.185.32-.484.492-.668.386M114.538 215.792c-.185-.106-.185-.45 0-.77.184-.32.483-.492.668-.386.184.106.184.452 0 .771-.185.32-.484.492-.668.386M112.639 215.497l4.385-2.531M112.523 229.113v1.74l4.654-2.687M117.177 226.427v1.74M112.523 229.113l4.654-2.686M88.476 293.426v4.212M88.476 293.426l5.2-3.001M88.476 293.426l2.392 1.382M88.476 297.638l2.392 1.38M93.675 290.425l2.392 1.38M90.868 294.808l5.2-3.002M90.868 299.018l.721-.473M90.868 294.808v4.21M96.067 291.806v.89M90.868 295.697l17.542-10.128M90.868 295.697l1.442.832M90.868 298.13l1.442.831 17.541-10.127M92.31 296.53l17.541-10.128M92.31 298.961v-2.432M108.41 285.57l1.441.832M109.851 288.834v-2.432" fill="none" stroke="#646464" stroke-width="1.1" stroke-linecap="round" stroke-linejoin="round"/></svg>