<svg xmlns="http://www.w3.org/2000/svg" width="435" height="386"><path d="M218.786 138.884v145.73l8.05 4.648M226.837 143.532v145.73M234.889 284.614l-8.052 4.648M234.889 138.884v145.73M341.62 214.748v136.136l8.052 4.649M349.672 219.397v136.136M357.723 350.884l-8.05 4.649M357.723 214.748v136.136M402.375 179.671v17.392M402.375 315.807l8.052 4.648M410.427 184.32v136.135M418.479 315.807l-8.052 4.648M418.479 179.671v136.136M279.54 103.807v23.612M287.591 108.455v38.663M295.643 103.807v47.546M234.889 255.65l106.731 57.3M234.889 193.051l106.731 57.3M234.889 247.629l106.731 57.299M234.889 185.03l106.731 57.299M406.401 289.168v-27.182l-4.026-2.324M402.375 291.492v24.315M406.401 226.57v-27.183l-4.026-2.324-44.652 25.78M402.375 228.893v30.77M234.889 138.884l-8.052 4.648M218.786 138.884l8.05 4.648M226.837 134.236l8.052 4.648M226.837 134.236l-8.051 4.648M295.643 103.807l-8.052 4.648M279.54 103.807l8.051 4.648M287.591 99.158l8.052 4.65M287.591 99.158l-8.05 4.65M357.723 214.748l-8.05 4.65M341.62 214.748l8.052 4.65M349.672 210.1l8.051 4.648M349.672 210.1l-8.052 4.648M418.479 179.671l-8.052 4.65M402.375 179.671l8.052 4.65M410.427 175.023l8.052 4.648M410.427 175.023l-8.052 4.648M259.475 206.251l-24.586 14.195M255.303 204.012l-20.414 11.785M287.591 127.419l-52.702 30.428M283.566 125.095l-48.677 28.103M283.566 125.095l4.025 2.324M237.075 183.767V173.76l48.33-27.904M237.075 173.76l104.545 56.126M285.405 145.856l106.733 57.3M237.075 183.767l104.545 56.126M234.889 185.03l2.186-1.263M234.889 247.629l2.186-1.263V236.36l15.06-8.695M237.075 236.36l104.545 56.125M237.075 246.366l104.545 56.126M257.816 178.438l8.864 5.119M266.681 183.556c1.705.984 4.019 1.537 6.43 1.537 2.412 0 4.725-.553 6.43-1.537M255.158 174.537a2.95 2.95 0 0 0-.006.188c0 1.392.958 2.728 2.664 3.712M301.415 170.927c1.706-.985 2.664-2.32 2.664-3.713M279.541 183.557l21.874-12.63M258.246 171.386l8.865 5.119M279.971 176.505l21.874-12.63M292.98 151.333l8.865 5.118M267.111 176.504c1.706.985 4.019 1.538 6.43 1.538 2.412 0 4.726-.553 6.431-1.538" fill="none" stroke="#646464" stroke-width="1.1" stroke-linecap="round" stroke-linejoin="round"/><path d="M258.246 163.961c-1.705.985-2.663 2.32-2.663 3.712 0 1.393.958 2.728 2.663 3.713M301.846 163.876c1.705-.985 2.663-2.32 2.663-3.713 0-1.392-.958-2.728-2.664-3.713M292.98 151.332c-1.705-.984-4.018-1.538-6.43-1.538s-4.725.554-6.43 1.538M258.246 163.961l21.874-12.628M255.582 167.674l-.424 6.864M304.508 160.163l-.43 7.052M254.367 238.558l8.864 5.119M263.232 243.676c1.705.984 4.018 1.538 6.43 1.538s4.725-.554 6.43-1.538M251.709 234.658a2.914 2.914 0 0 0-.006.187c0 1.393.958 2.728 2.663 3.713M276.092 243.677l21.873-12.63M254.796 231.506l8.866 5.119M276.522 236.625l19.048-10.997M263.661 236.624c1.706.985 4.02 1.538 6.431 1.538 2.412 0 4.725-.553 6.43-1.538M254.796 224.081c-1.705.985-2.663 2.32-2.663 3.713 0 1.392.958 2.728 2.664 3.712M254.796 224.081l18.258-10.54M297.965 231.047c1.312-.757 2.19-1.727 2.52-2.78M252.133 227.794l-.424 6.864M406.401 199.387l-48.678 28.104M371.789 284.733v60.714l-4.025-2.324M367.764 282.409v60.714M371.789 345.447l4.026-2.324M375.815 282.409v60.714M394.114 271.843v60.715l-4.025-2.325M390.09 269.887v4.54M394.114 332.558l4.026-2.325M398.14 269.519v60.714M375.815 312.765l18.3-10.565" fill="none" stroke="#646464" stroke-width="1.1" stroke-linecap="round" stroke-linejoin="round"/><path d="M375.815 310.408l18.3-10.565-4.026-2.325M375.815 305.76l14.274-8.242M375.815 301.22l18.3-10.566M375.815 298.862l18.3-10.565-4.026-2.325M375.815 294.213l14.274-8.24M375.815 289.674l18.3-10.566M375.815 287.316l18.3-10.565-4.026-2.324M375.815 282.668l14.274-8.241M375.815 324.312l18.3-10.566M375.815 321.955l18.3-10.566M375.815 317.306l14.274-8.241M375.815 335.858l18.3-10.565M375.815 333.5l18.3-10.565M375.815 328.852l14.274-8.241M390.09 281.433v4.54M390.09 292.978v4.54M390.09 304.524v4.54M394.114 311.389l-4.025-2.324M394.114 322.935l-4.025-2.324M390.09 316.07v4.54M390.09 327.617v2.616M371.789 224.02v60.713M367.764 221.694v60.715M375.815 221.694v60.715M394.114 211.129v60.714M390.09 208.805v7.89M398.14 208.805v60.714M371.789 224.02l-4.025-2.326M371.789 224.02l4.026-2.326M394.114 211.129l-4.025-2.324M394.114 211.129l4.026-2.324M367.764 221.694l4.025-2.324M390.09 208.805l4.024-2.325M375.815 221.694l-4.026-2.324M398.14 208.805l-4.026-2.325M390.09 223.702v4.54M390.09 235.248v4.54M390.09 246.794v4.54M390.09 258.34v4.54M375.815 278.128l18.3-10.566M375.815 275.77l18.3-10.565-4.026-2.324M375.815 271.122l14.274-8.241M375.815 266.582l18.3-10.566M375.815 264.225l18.3-10.566-4.026-2.324M375.815 259.576l14.274-8.241M375.815 255.035l18.3-10.565M375.815 252.678l18.3-10.566-4.026-2.324M375.815 248.03l14.274-8.242M375.815 243.49l18.3-10.566M375.815 241.132l18.3-10.565-4.026-2.325M375.815 236.483l14.274-8.24M375.815 231.943l18.3-10.565M375.815 229.586l18.3-10.565-4.026-2.325M375.815 224.937l14.274-8.241M406.401 226.57l-8.26 4.769M367.764 248.877l-10.04 5.796M364.36 250.842l3.404 1.827M367.764 279.645l-10.04 5.796M406.401 261.986l-8.26 4.77M402.375 259.662l-4.235 2.444M367.764 284.293l-10.04 5.797M390.09 271.404l-14.275 8.241M367.764 311.476l-10.04 5.797M406.401 289.168l-8.26 4.77M311.743 205.393a.48.48 0 0 0 .235.056.48.48 0 0 0 .234-.056M296.097 196.361l15.646 9.033-.234-.136M312.212 205.394l10.955-6.325M323.168 199.068c.062-.036.097-.085.097-.135 0-.051-.035-.1-.097-.136M296.097 196.361l.235.135M323.167 199.069l-.234.134M307.522 189.764a.484.484 0 0 0-.234-.056.48.48 0 0 0-.235.056M307.522 189.765l15.645 9.033M307.522 189.765l.234.135M307.053 189.765l-.234.135M296.097 196.09l10.956-6.325M311.743 205.739a.477.477 0 0 0 .235.056.48.48 0 0 0 .234-.056M296.097 196.707l15.646 9.033-.234-.136M312.212 205.74l10.955-6.326M296.097 196.707l.235.135M323.168 199.414c.062-.036.097-.085.097-.136M323.167 199.414l-.234.136M311.626 205.326v.346M312.212 205.394v.346M323.264 198.933v.346M323.167 199.069v.345M296.865 196.17l10.326-5.962M296.865 196.17l14.204 8.2M316.295 201.797c0-.205.288-.372.644-.372.355 0 .643.167.643.372s-.288.371-.643.371c-.356 0-.644-.166-.644-.371M322.56 199.644c-.03-.017-.03-.074 0-.127.03-.052.08-.08.11-.063.03.018.03.074 0 .127-.03.052-.08.08-.11.063M307.191 190.208l14.204 8.2-10.326 5.963M253.99 265.905l-4.635 2.677 22.714 13.114v24.373M249.355 292.955l22.714 13.114M249.355 268.582v24.373M277.53 278.543l-5.461 3.153M249.355 268.582l22.714 37.487M249.355 292.955l22.714-11.26M272.069 306.07l5.552-3.207M277.621 280.525v25.67l3.189 1.84M280.81 282.365v25.67M277.621 280.525l3.189 1.84 1.85-1.068M277.621 280.525l1.737-1M280.81 308.035l6.983-4.032M282.841 286.976l11.851 26.902M282.402 287.23l-1.55 1.014 11.707 26.575 2.133-.94M282.402 287.23l5.45-3.146M294.692 313.878l16.417-9.478M306.59 294.144l4.519 10.256" fill="none" stroke="#646464" stroke-width="1.1" stroke-linecap="round" stroke-linejoin="round"/><path d="M320.64 164.772l-48.33 27.904v6.598l69.31 37.21M310.125 233.442l-37.816 21.833M272.31 261.873l69.31 37.21M272.31 261.873v-6.598M384.422 261.612l4.074 2.188M375.815 256.992l2.319 1.245M71.464 300.949l48.975-28.275M71.464 300.949l-3.436-1.983M115.415 284.15v9.162l-3.952 2.282M111.463 286.43v9.164M111.463 286.43l3.952-2.28M75.64 265.673l4.175-2.41M71.464 272.905v99.229M71.464 272.905v4.822M72.203 263.688l4.175-2.41M68.028 270.921v4.822M75.64 265.673c-1.107.639-2.17 1.76-2.952 3.116-.783 1.357-1.223 2.837-1.223 4.116M72.203 263.688c-1.107.64-2.17 1.76-2.952 3.117-.783 1.356-1.223 2.837-1.223 4.116M68.028 270.921v99.228M37.483 243.643l4.175-2.411M37.483 243.642c-1.107.64-2.17 1.761-2.952 3.117-.784 1.357-1.223 2.837-1.223 4.116M33.307 250.875v4.822M37.483 243.643l34.72 20.045M33.307 250.875l34.72 20.046M120.44 339.036v4.822M112.087 353.501l4.177-2.411M116.264 351.09c1.107-.64 2.17-1.76 2.953-3.117.783-1.357 1.223-2.837 1.223-4.116M75.64 374.544l40.624-23.454M120.44 244.629c0-1.279-.44-2.251-1.223-2.703-.784-.452-1.846-.347-2.953.292M37.483 243.643l18.291-10.56M75.64 265.673l40.624-23.455M112.087 244.63l4.177-2.412M120.44 244.63v99.228M120.44 244.63v4.821M108.651 242.645l4.176-2.41M72.203 263.688l40.624-23.454M103.86 235.057l8.967 5.177M115.78 239.942c-.783-.453-1.845-.347-2.953.292" fill="none" stroke="#646464" stroke-width="1.1" stroke-linecap="round" stroke-linejoin="round"/><path d="M103.86 233.06l11.92 6.882 3.437 1.984M33.307 345.281v4.822M71.465 372.133c0 1.279.44 2.251 1.223 2.703.783.452 1.845.347 2.952-.292M33.307 250.875v99.228M68.028 370.149c0 1.278.44 2.25 1.223 2.703M69.25 372.853l3.437 1.983M33.308 350.103c0 1.279.44 2.251 1.223 2.703M34.53 352.806l34.72 20.047M74.297 289.777v4.212M74.297 289.777l5.2-3.001M74.297 289.777l2.392 1.382M74.297 293.989l2.392 1.38M79.496 286.776l2.392 1.38M76.689 291.16l5.2-3.003M76.689 295.37l.721-.474M76.689 291.16v4.21M81.888 288.157v.89M76.689 292.048l17.542-10.128M76.689 292.048l1.442.832M76.689 294.48l1.442.832 17.541-10.127M78.13 292.88l17.542-10.127M78.13 295.312v-2.432M94.231 281.92l1.441.833M95.672 285.185v-2.432M55.774 223.538v25.826l16.89 9.751M72.664 233.29v25.825M55.774 223.538l16.89 9.752 31.196-18.01M55.774 223.538l31.195-18.01M72.664 259.115l31.196-18.01M103.86 215.28v25.825M86.969 205.528l16.89 9.752M97.412 219.002v25.825" fill="none" stroke="#646464" stroke-width="1.1" stroke-linecap="round" stroke-linejoin="round"/><path d="M97.412 219.002l-1.624-.937-24.747 14.288M95.788 218.065l6.429-3.712M71.04 232.353v25.825M98.237 220.376v2.85l4.891-2.824M103.128 217.551v2.851M98.237 220.376l4.891-2.825M98.46 225.895v9.527l4.385-2.531M102.845 223.364v9.527" fill="none" stroke="#646464" stroke-width="1.1" stroke-linecap="round" stroke-linejoin="round"/><path d="M100.296 233.174c-.185-.107-.185-.452 0-.771.184-.32.483-.493.668-.386.184.106.184.452 0 .771-.185.32-.484.492-.668.386M98.98 231.453c-.185-.106-.185-.451 0-.77.184-.32.483-.493.668-.387.184.107.184.452 0 .772-.185.32-.484.492-.668.385" fill="none" stroke="#646464" stroke-width="1.1" stroke-linecap="round" stroke-linejoin="round"/><path d="M98.98 231.453c-.185-.106-.185-.451 0-.77.184-.32.483-.493.668-.387.184.107.184.452 0 .772-.185.32-.484.492-.668.385M100.359 230.658c-.185-.107-.185-.452 0-.772.184-.32.483-.492.668-.386.184.107.184.452 0 .772-.185.32-.484.492-.668.385M101.738 229.861c-.185-.106-.185-.451 0-.77.184-.32.483-.493.668-.387.184.107.184.452 0 .772-.185.32-.484.492-.668.385M98.98 229.992c-.185-.106-.185-.451 0-.77.184-.32.483-.493.668-.386.184.106.184.451 0 .77-.185.32-.484.493-.668.387M100.359 229.196c-.185-.106-.185-.451 0-.77.184-.32.483-.493.668-.386.184.106.184.451 0 .77-.185.32-.484.493-.668.387M101.738 228.4c-.185-.106-.185-.451 0-.77.184-.32.483-.493.668-.386.184.106.184.451 0 .77-.185.32-.484.493-.668.387M100.359 227.736c-.185-.107-.185-.452 0-.771.184-.32.483-.493.668-.386.184.106.184.452 0 .771-.185.32-.484.492-.668.386M100.359 226.19c-.185-.106-.185-.451 0-.77.184-.32.483-.493.668-.386.184.106.184.452 0 .771-.185.32-.484.492-.668.386M98.46 225.895l4.385-2.531M98.344 239.511v1.74l4.654-2.687M102.998 236.824v1.74M98.344 239.511l4.654-2.687M74.297 303.824v4.211M74.297 303.824l5.2-3.001M74.297 303.824l2.392 1.382M74.297 308.035l2.392 1.381M79.496 300.823l2.392 1.38M76.689 305.206l5.2-3.002M76.689 309.416l.721-.473M76.689 305.206v4.21M81.888 302.204v.89M76.689 306.095l17.542-10.128M76.689 306.095l1.442.832M76.689 308.527l1.442.832 17.541-10.128M78.13 306.927L95.673 296.8M78.13 309.359v-2.432M94.231 295.967l1.441.833M95.672 299.231V296.8M150.58 283.328v31.284l25.991 15.007M176.571 298.334v31.285M150.58 283.328l25.991 15.006 26.137-15.09M188.55 275.069l14.158 8.175M150.58 283.328l14.234-8.218M202.708 283.244v31.284M176.571 329.619l26.137-15.091M176.571 313.976l26.137-15.09M201.55 299.555v-14.304M177.73 313.307v-14.304l23.82-13.752M201.55 299.555l-12.388-7.152M177.73 311.969l22.66-13.083M187.33 313.307v2.82M191.95 310.64v2.82M187.33 313.307l4.62-2.666M187.33 316.127l4.62-2.668-1.295-.746v-1.325M190.655 312.713l-3.324 1.92" fill="none" stroke="#646464" stroke-width="1.1" stroke-linecap="round" stroke-linejoin="round"/><path d="M169.765 282.28c-.052.2-.078.401-.078.603 0 1.46 1.37 2.804 3.58 3.512M173.364 286.426c1.01.311 2.136.474 3.28.474 3.843 0 6.958-1.798 6.958-4.017 0-.202-.026-.403-.079-.603M181.273 277.471l1.854 2.748" fill="none" stroke="#646464" stroke-width="1.1" stroke-linecap="round" stroke-linejoin="round"/><path d="M170.161 280.218c-.313.465-.474.96-.474 1.459 0 1.46 1.37 2.804 3.58 3.512M173.364 285.22c1.01.31 2.136.474 3.28.474 3.843 0 6.958-1.799 6.958-4.017 0-.5-.16-.994-.474-1.458M159.718 266.247a5.877 5.877 0 0 0-.246 1.676c0 5.476 7.688 9.915 17.173 9.915 9.484 0 17.173-4.44 17.173-9.915a5.87 5.87 0 0 0-.248-1.676M166.675 248.588c0-3.18 4.463-5.757 9.97-5.757 5.506 0 9.97 2.577 9.97 5.756 0 3.18-4.464 5.756-9.97 5.756-5.507 0-9.97-2.577-9.97-5.756M172.016 277.471l-1.855 2.748M159.718 266.247l7.189-18.895M186.614 248.588l6.956 17.66" fill="none" stroke="#646464" stroke-width="1.1" stroke-linecap="round" stroke-linejoin="round"/></svg>