<svg xmlns="http://www.w3.org/2000/svg" width="1100" height="600"><defs><clipPath id="a"><path d="M16 16h1159v742H16z"/></clipPath><clipPath id="b"><path d="M16 16h1159v742H16z"/></clipPath></defs><g stroke-width="1.36"><g clip-path="url(#a)" transform="matrix(.80863 0 0 -.80863 227.319 612.938)"><g stroke-width="11.336" fill="none" stroke="#646464" stroke-linecap="round" stroke-linejoin="round"><path d="M613.276 708.85V528.63l9.956-5.748M623.232 703.1V522.882M633.19 528.63l-9.958-5.748M633.19 708.85V528.63M765.181 615.03V446.676l9.958-5.75M775.139 609.28V440.928M785.095 446.676l-9.956-5.75M785.095 615.03V446.676M840.314 658.409V636.9M840.314 490.055l9.958-5.75M850.272 652.66V484.306M860.23 490.055l-9.958-5.75M860.23 658.409V490.055M688.409 752.227v-29.2M698.365 746.48v-47.814M708.323 752.227V693.43M633.19 564.448l131.991-70.86M633.19 641.862l131.991-70.86M633.19 574.368l131.991-70.86M633.19 651.782l131.991-70.86M845.293 522.997v33.616l-4.979 2.874M840.314 520.123v-30.068M845.293 600.412v33.615l-4.979 2.874-55.219-31.88M840.314 597.538v-38.051M633.19 708.85l-9.958-5.75M613.276 708.85l9.956-5.75M623.232 714.598l9.958-5.748M623.232 714.598l-9.956-5.748M708.323 752.227l-9.958-5.748M688.409 752.227l9.956-5.748M698.365 757.976l9.958-5.749M698.365 757.976l-9.956-5.749M785.095 615.03l-9.956-5.75M765.181 615.03l9.958-5.75M775.139 620.78l9.956-5.75M775.139 620.78l-9.958-5.75M860.23 658.409l-9.958-5.75M840.314 658.409l9.958-5.75M850.272 664.157l9.958-5.748M850.272 664.157l-9.958-5.748M663.595 625.538l-30.405-17.554M658.435 628.308l-25.245-14.575M698.365 723.028l-65.175-37.63M693.388 725.902l-60.198-34.755M693.388 725.902l4.977-2.874M635.893 653.344v12.375l59.769 34.507M635.893 665.72l129.288-69.41M695.662 700.226l131.992-70.86M635.893 653.344l129.288-69.41M633.19 651.782l2.703 1.562M633.19 574.368l2.703 1.561v12.376l18.625 10.753M635.893 588.305l129.288-69.41M635.893 575.93l129.288-69.41M661.543 659.934l10.962-6.33M672.506 653.605c2.11-1.217 4.97-1.902 7.952-1.902 2.983 0 5.844.685 7.953 1.902M658.256 664.758a3.857 3.857 0 0 1-.007-.232c0-1.722 1.185-3.374 3.294-4.591M715.46 669.222c2.11 1.218 3.295 2.87 3.295 4.592M688.41 653.604l27.05 15.618M662.075 668.654l10.963-6.33M688.942 662.324l27.05 15.618M705.029 693.454l10.963-6.33M673.038 662.326c2.11-1.218 4.97-1.902 7.952-1.902 2.983 0 5.844.684 7.953 1.901" stroke-width="1.36032"/><path d="M662.075 677.837c-2.109-1.217-3.294-2.869-3.294-4.591s1.185-3.374 3.294-4.591M715.993 677.942c2.109 1.218 3.294 2.87 3.294 4.592 0 1.722-1.185 3.374-3.294 4.591M705.03 693.455c-2.11 1.217-4.97 1.901-7.952 1.901-2.983 0-5.844-.684-7.953-1.901M662.075 677.837l27.05 15.617M658.78 673.246l-.524-8.49M719.286 682.534l-.532-8.72M657.277 585.586l10.962-6.33M668.24 579.257c2.11-1.218 4.97-1.902 7.953-1.902 2.982 0 5.843.684 7.952 1.901M653.99 590.408a3.907 3.907 0 0 1-.007-.23c0-1.723 1.185-3.374 3.294-4.592M684.144 579.256l27.05 15.618M657.809 594.306l10.963-6.33M684.676 587.976l23.556 13.6M668.772 587.977c2.11-1.218 4.97-1.902 7.952-1.902 2.983 0 5.844.684 7.953 1.902M657.809 603.488c-2.109-1.217-3.294-2.869-3.294-4.59 0-1.723 1.185-3.374 3.294-4.592M657.809 603.488l22.578 13.036M711.194 594.874c1.622.936 2.71 2.136 3.116 3.439M654.515 598.897l-.525-8.489M845.293 634.027l-60.198-34.755M802.49 528.482V453.4l-4.978 2.874M797.512 531.356v-75.082M802.49 453.4l4.978 2.874M807.468 531.356v-75.082M830.099 544.423V469.34l-4.978 2.875M825.121 546.842v-5.614M830.099 469.34l4.979 2.874M835.078 547.297v-75.083M807.468 493.816l22.63 13.065" stroke-width="1.36032"/><path d="M807.468 496.73l22.63 13.066-4.977 2.875M807.468 502.48l17.653 10.191M807.468 508.094l22.63 13.066M807.468 511.01l22.63 13.065-4.977 2.875M807.468 516.758l17.653 10.192M807.468 522.372l22.63 13.067M807.468 525.288l22.63 13.066-4.977 2.874M807.468 531.036l17.653 10.192M807.468 479.537l22.63 13.065M807.468 482.452l22.63 13.066M807.468 488.2l17.653 10.192M807.468 465.258l22.63 13.066M807.468 468.173l22.63 13.067M807.468 473.922l17.653 10.192M825.121 532.564v-5.614M825.121 518.286v-5.615M825.121 504.007v-5.615M830.099 495.518l-4.978 2.874M830.099 481.24l-4.978 2.874M825.121 489.728v-5.614M825.121 475.45v-3.236M802.49 603.565v-75.083M797.512 606.44v-75.084M807.468 606.44v-75.084M830.099 619.506v-75.083M825.121 622.38v-9.758M835.078 622.38v-75.083M802.49 603.565l-4.978 2.875M802.49 603.565l4.978 2.875M830.099 619.506l-4.978 2.874M830.099 619.506l4.979 2.874M797.512 606.44l4.977 2.874M825.121 622.38l4.978 2.875M807.468 606.44l-4.979 2.874M835.078 622.38l-4.98 2.875M825.121 603.958v-5.615M825.121 589.679v-5.615M825.121 575.4v-5.615M825.121 561.121v-5.615M807.468 536.65l22.63 13.068M807.468 539.567l22.63 13.065-4.977 2.874M807.468 545.315l17.653 10.191M807.468 550.93l22.63 13.065M807.468 553.844l22.63 13.067-4.977 2.874M807.468 559.594l17.653 10.191M807.468 565.208l22.63 13.066M807.468 568.123l22.63 13.067-4.977 2.874M807.468 573.872l17.653 10.192M807.468 579.487l22.63 13.066M807.468 582.402l22.63 13.066-4.977 2.875M807.468 588.151l17.653 10.192M807.468 593.766l22.63 13.066M807.468 596.68l22.63 13.066-4.977 2.876M807.468 602.43l17.653 10.192M845.293 600.412l-10.215-5.898M797.512 572.825l-12.417-7.169M793.302 570.395l4.21-2.26M797.512 534.774l-12.417-7.168M845.293 556.613l-10.215-5.898M840.314 559.487l-5.236-3.023M797.512 529.026l-12.417-7.169M825.121 544.966l-17.653-10.192M797.512 495.41l-12.417-7.168M845.293 522.997l-10.215-5.898M524.972 573.577V534.89l32.142-18.558M557.114 555.02v-38.689M524.972 573.577l32.142-18.557 32.322 18.662M571.927 583.792l17.51-10.11M524.972 573.577l17.602 10.163M589.436 573.682v-38.688M557.114 516.331l32.322 18.663M557.114 535.676l32.322 18.662M588.004 553.51v17.689M558.547 536.503v17.69l29.457 17.006M588.004 553.51l-15.32 8.845M558.547 538.158l28.024 16.18M570.42 536.503v-3.487M576.132 539.8v-3.485M570.42 536.503l5.712 3.298M570.42 533.016l5.712 3.299-1.6.923v1.639M574.531 537.238l-4.111-2.374M348.504 531.926v-67.862l56.256-32.48M404.76 499.447v-67.862M348.504 531.926l56.256-32.479 110.717 63.922M409.081 496.952V434.08M404.76 431.585l4.321 2.495M484.687 508.294l26.469-15.282M511.156 555.886v-62.874M515.477 563.369v-67.863M511.156 493.012l4.32 2.494M488.718 578.818l26.759-15.45M409.081 496.952l102.075 58.934M348.504 531.926l27.646 15.962" stroke-width="1.36032"/><path d="M457.432 577.321v-25.185l5.668 3.272M488.718 595.385v-25.186M457.432 577.321l31.286 18.064M440.116 587.32l17.316-9.999M471.402 605.382l17.316-9.997M439.936 592.834l2.47 1.426M445.68 589.584l12.926-7.463M467.962 602.45l12.927-7.465M462.847 571.471v-13.495M483.304 583.282v-13.496M462.847 571.471l20.457 11.81M462.847 557.976l20.457 11.81M473.075 575.657l-1.327-.766M474.402 576.424l-1.327-.767M471.748 574.891v-1.533M474.402 576.424v-1.533M459.356 571.084c-.315.181-.315.772 0 1.318.316.546.827.84 1.142.659.315-.182.315-.773 0-1.318-.315-.546-.826-.842-1.142-.66M471.748 573.358l2.654 1.533M458.606 582.121l22.283 12.864M435.19 611.216l10.49-21.632M457.471 624.082l10.49-21.633M445.68 589.584l22.282 12.865M447.046 588.796l22.282 12.864M435.19 611.216l-1.397.807 10.49-21.633M456.074 624.887l1.397-.805M442.112 613.328c.227-.547.575-.962 1.02-1.22.724-.418 1.673-.398 2.69.057M444.283 590.39l1.397-.806M452.465 617.482c-.005-.836-.5-1.645-1.407-2.294M442.51 612.646c.58-.09 1.235.02 1.917.326M445.823 612.164l5.234 3.023M444.426 612.97l5.234 3.024M446.65 590.146l1.366-.79M466.99 601.888l1.366-.789M462.847 557.976l19.524-11.273v-2.42M482.371 546.703l20.457 11.81" stroke-width="1.36032"/><path d="M462.847 555.556l19.524-11.273 20.457 11.81M483.304 569.786l19.524-11.272M485.653 568.43l3.065 1.77M462.847 557.976v-2.42M502.828 558.514v-2.42M439.937 592.835c-1.181-.736-1.838-1.701-1.838-2.704 0-1.054.726-2.066 2.017-2.811M466.99 601.888v-1.577M440.116 587.32l4.866-2.81M440.116 562.133l17.316-9.997M438.1 564.944c0-1.054.725-2.065 2.016-2.81M440.116 562.133l4.866-2.81M471.403 605.383c-1.292.746-3.043 1.164-4.87 1.164-.184 0-.368-.004-.552-.012M438.098 564.944v25.186M471.402 605.382l4.866-2.81M452.465 617.482v3.709M451.068 621.996l5.006 2.89M451.07 618.288c-.006-.836-.502-1.645-1.409-2.294M452.465 621.19l-1.397.806M451.068 618.288v3.708M441.806 615.037l-1.396.807-6.617-3.821M441.806 615.037l-1.61-.93M452.465 621.19l5.006 2.892M440.196 614.107l-5.006-2.89M441.806 615.037l.305-1.71M728.233 626.6a.594.594 0 0 1 .29-.07c.109 0 .213.025.29.07M708.884 637.769l19.35-11.171-.291.168M728.813 626.598l13.548 7.823M742.362 634.422c.077.044.12.104.12.167 0 .063-.043.123-.12.167M708.884 637.769l.29-.167M742.36 634.42l-.288-.166M723.013 645.928a.598.598 0 0 1-.29.068.594.594 0 0 1-.29-.069M723.013 645.926l19.348-11.17M723.013 645.926l.29-.166M722.432 645.926l-.289-.166M708.884 638.104l13.548 7.822M728.233 626.172a.59.59 0 0 1 .29-.07c.109 0 .213.025.29.07M708.884 637.342l19.35-11.171-.291.168M728.813 626.17l13.548 7.824M708.884 637.342l.29-.167M742.362 633.994c.077.044.12.105.12.167M742.36 633.994l-.288-.168M728.088 626.682v-.427M728.813 626.598v-.427M742.48 634.589v-.429M742.36 634.42v-.426M709.834 638.005l12.77 7.373M709.834 638.005l17.565-10.141M733.862 631.046c0 .255.357.46.796.46.44 0 .796-.205.796-.46 0-.253-.356-.459-.796-.459-.44 0-.795.206-.795.46M741.61 633.71c-.038.02-.038.09 0 .156.037.064.098.1.135.078.038-.022.038-.092 0-.157-.037-.064-.098-.1-.135-.078M456.245 524.183c2.757-3.728 9.1-6.147 16.122-6.147 9.682 0 17.53 4.531 17.53 10.121 0 4.054-4.19 7.717-10.647 9.308M722.604 645.378l17.566-10.141-12.77-7.373M455.927 524l7.884-30.06M463.812 493.94c0-2.728 3.83-4.94 8.555-4.94 4.726 0 8.556 2.212 8.556 4.94M489.896 528.156l-8.973-34.217M656.812 551.766l-5.733-3.31 28.09-16.218v-30.141M651.08 518.315l28.089-16.218M651.08 548.456v-30.141M685.924 536.137l-6.755-3.899M651.08 548.456l28.089-46.36M651.08 518.315l28.089 13.923M679.169 502.097l6.866 3.965M686.035 533.687v-31.745l3.943-2.276M689.978 531.41v-31.744M686.035 533.687l3.943-2.277 2.289 1.322M686.035 533.687l2.148 1.237M689.978 499.666l8.637 4.986M692.491 525.708l14.656-33.269M691.948 525.395l-1.918-1.254 14.478-32.865 2.639 1.163M691.948 525.395l6.739 3.89M707.147 492.44l20.301 11.72M721.861 516.844l5.587-12.683" stroke-width="1.36032"/><path d="M739.236 676.834l-59.77-34.508v-8.16l85.715-46.016M378.19 523.634v44.878M378.19 523.634l56.086 32.381v44.879M434.276 556.015l-27.176-15.69" stroke-width="1.36032"/><path d="M378.19 568.512l56.086 32.382-27.176-15.69M431.567 595.175v-37.872l-50.668-29.254M407.305 582.426c.395-.227 1.035.142 1.43.826.394.683.394 1.422 0 1.65-.395.228-1.035-.142-1.43-.825-.394-.684-.394-1.423 0-1.65" stroke-width="1.36032"/><path d="M407.57 582.886c.25-.143.651.09.9.519.248.43.248.894 0 1.037-.249.144-.65-.089-.899-.518-.248-.43-.248-.895 0-1.038M431.567 595.175l-50.668-29.254V528.05M378.19 523.634l-2.04 1.178v44.878M378.19 568.512l-2.04 1.178M434.276 600.894l-2.04 1.178M376.15 569.69l56.086 32.382-27.176-15.69M402.692 537.781c.005-2.094-.714-4.522-1.998-6.747-1.28-2.216-3.015-4.048-4.825-5.093M416.6 537.952c-1.811-1.045-3.546-1.217-4.826-.478-1.275.736-1.994 2.317-1.999 4.396M400.693 536.627c-.308-1.52-.919-3.098-1.77-4.57-1.279-2.217-3.015-4.049-4.824-5.094" stroke-width="1.36032"/><path d="M416.598 537.952l-20.73-12.011-1.77 1.021M414.828 538.974c-1.377-.795-2.722-1.09-3.857-.847" stroke-width="1.36032"/><path d="M416.598 537.952l-1.77 1.022 9.91-5.723M394.098 526.962l9.91-5.722M424.739 533.251l-20.73-12.01M404.009 521.24v-2.122M394.098 524.84l9.91-5.722M394.098 526.962v-2.123M424.739 531.128l-20.73-12.01M424.739 533.251v-2.123M424.739 533.251l-18.505-1.305-2.225-10.706M439.15 540.628l10.89 6.285M443.003 537.736a1.18 1.18 0 0 1 .58-.14c.217 0 .425.05.579.14M439.15 540.628c-.153-.09-.24-.21-.24-.335 0-.126.087-.246.24-.335M451.201 546.913a1.184 1.184 0 0 1-.58.14c-.217 0-.426-.05-.58-.14M451.201 546.913l3.738-2.157M451.201 546.913l.58-.335M455.053 544.021c.154.089.24.21.24.335 0 .125-.086.246-.24.335M450.04 546.913l-.579-.335M455.053 544.02l-.58-.335M444.162 537.734l10.31 5.951M439.15 539.958l3.272-1.889M454.94 544.756l.112-.066M443.003 537.026a1.18 1.18 0 0 1 .58-.139c.217 0 .425.05.579.14M455.053 543.31l-.58-.334M438.91 539.584c0-.126.087-.246.24-.335M444.162 537.025l10.31 5.951M455.053 543.312c.154.089.24.21.24.335M439.15 539.249l3.272-1.889M444.162 537.734v-.709M455.018 544l.035-.69M455.293 544.355v-.71M438.91 540.293v-.71M442.782 537.332c-.068-.04-.18.025-.248.143-.069.12-.069.247 0 .287.069.04.18-.025.248-.143.069-.119.069-.247 0-.287M439.15 539.958v-.71M440.736 538.739l.71-.41M440.736 538.739v-.2l.71-.41M441.445 538.33v-.2M442.422 538.07l.58-.336M442.422 537.36l.58-.335M443.002 537.734v-.709M452.627 545.436l-.507.293M453.134 545.144l-.507.292M453.134 545.144l.722.237M452.335 545.792c0 .071.1.129.222.129s.222-.058.222-.128c0-.071-.1-.128-.222-.128s-.222.057-.222.128M452.12 545.729l.311.474M726.232 591.912l-46.766-27M679.466 556.752l85.715-46.016M679.466 556.752v8.16M500.752 438.772l-3.226-1.864M497.526 440.634l-3.226-1.862M500.752 438.772v3.649l-33.948-19.6M500.752 438.772l-33.948-19.601M470.03 421.033V381.86M466.804 419.17v-39.173M463.578 421.033V381.86M466.804 422.821v-3.65M432.857 438.772v3.649l33.947-19.6M432.857 438.772l33.947-19.601M466.804 422.821v-3.65M480.302 454.228l13.998-8.081M463.578 460.16l-30.721-17.74M463.578 424.684v47.226M497.526 491.51l-33.948-19.6M466.804 422.821v47.226" stroke-width="1.36032"/><path d="M500.752 442.42v47.227l-33.948-19.6M500.752 489.647l-3.226 1.863M470.03 424.684l-3.226-1.863M470.03 424.684v47.226M497.526 440.558v47.226M500.752 442.42l-3.226-1.862M497.526 487.784l-3.226 1.863M494.3 442.42v19.89M497.526 440.558l-3.226 1.863M497.526 464.172l-27.496-15.875M470.03 471.91l-3.226 1.862M466.804 470.047l-3.226 1.863M500.752 438.772v-39.176M497.526 436.908v-39.174M494.3 435.046v-35.45M500.752 399.596l-3.226-1.862-3.226 1.862M439.308 435.046v-35.45M436.082 436.908v-39.174M432.857 438.772v-39.176M439.308 399.596l-3.226-1.862-3.225 1.862M470.03 381.86l-3.226-1.863-3.226 1.862M548.698 574.873a2.946 2.946 0 0 1-.097-.745c0-1.805 1.695-3.468 4.428-4.344M553.148 569.747c1.249-.386 2.642-.587 4.057-.587 4.752 0 8.604 2.224 8.604 4.968 0 .25-.032.499-.097.746M434.276 581.447l3.822 2.207M562.928 580.82l2.294-3.398" stroke-width="1.36032"/><path d="M549.187 577.423c-.387-.575-.586-1.187-.586-1.804 0-1.804 1.695-3.467 4.428-4.343M553.148 571.238c1.249-.385 2.642-.586 4.057-.586 4.752 0 8.604 2.224 8.604 4.967 0 .617-.199 1.229-.587 1.804M536.273 594.7a7.268 7.268 0 0 1-.305-2.071c0-6.772 9.508-12.262 21.237-12.262 11.73 0 21.237 5.49 21.237 12.262 0 .694-.102 1.388-.305 2.072M544.876 616.54c0 3.932 5.52 7.119 12.329 7.119 6.81 0 12.33-3.187 12.33-7.119 0-3.931-5.52-7.118-12.33-7.118-6.81 0-12.33 3.187-12.33 7.118M551.48 580.82l-2.293-3.398M536.273 594.7l8.89 23.367M529.075 309.46c7.071-6.443 15.72-12.26 25.676-17.273M541.294 351.782c0 32.989 46.319 59.731 103.457 59.731 57.137 0 103.457-26.742 103.457-59.73 0-32.99-46.32-59.732-103.457-59.732-57.138 0-103.457 26.743-103.457 59.731" stroke-width="1.36032"/><path d="M576.29 351.782c0 21.83 30.651 39.526 68.46 39.526 37.81 0 68.461-17.696 68.461-39.526 0-21.83-30.65-39.525-68.46-39.525-37.81 0-68.46 17.696-68.46 39.525" stroke-width="1.36032"/><path d="M608.611 351.782c0 11.524 16.18 20.865 36.14 20.865 19.959 0 36.139-9.341 36.139-20.865 0-11.523-16.18-20.865-36.14-20.865-19.959 0-36.139 9.342-36.139 20.865" stroke-width="1.36032"/><path d="M630.13 351.782c0 4.663 6.546 8.442 14.62 8.442 8.076 0 14.622-3.78 14.622-8.442 0-4.662-6.546-8.441-14.621-8.441s-14.622 3.78-14.622 8.441M569.534 616.54l8.602-21.84M358.676 438.146l-3.225-1.862M355.45 440.009l-3.226-1.863M358.676 438.146v3.65l-33.948-19.6M358.676 438.146l-33.948-19.6M327.954 420.41v-39.176M324.728 418.547v-39.175M321.503 420.41v-39.176M324.728 422.196v-3.65M290.78 438.146v3.65l33.948-19.6M290.78 438.146l33.948-19.6M324.728 422.196v-3.65M303.73 449.273l-6.497-3.751M290.78 441.797v47.226M324.728 508.622l-33.948-19.6M294.006 439.934v47.226M327.954 465.54v41.22l-33.948-19.6M327.954 506.76l-3.226 1.862M327.954 424.06l-3.226-1.864M297.233 441.797v47.226M324.728 467.402v37.496M358.676 441.797l-3.225-1.863M324.728 504.898l-3.225 1.862M321.503 465.874v13.548M324.728 481.284l-27.495-15.875M297.233 489.023l-3.227 1.862M294.006 487.16l-3.226 1.863M358.676 438.146v-39.175M355.45 436.284v-39.175M352.224 434.422v-35.45M358.676 398.971l-3.225-1.862-3.227 1.862M297.233 434.422v-35.45M294.006 436.284v-39.175M290.78 438.146v-39.175M297.233 398.971l-3.227-1.862-3.226 1.862M327.954 381.234l-3.226-1.862-3.225 1.862M338.894 453.217l19.782-11.42M294.006 439.934l3.227 1.863M303.73 444.32l14.454-8.347M338.894 447.93l-20.71-11.957v-2.823M303.73 441.496l14.454-8.346M338.894 445.108l-20.71-11.958M303.73 444.32v-2.824M338.894 447.93v-2.822M303.73 447.143l14.454-8.346M338.894 450.754l-20.71-11.957v-2.824M303.73 444.32l14.454-8.347M338.894 447.93l-20.71-11.957M303.73 447.143v-2.824M338.894 450.754v-2.824M303.73 449.966l14.454-8.346M338.894 453.577l-20.71-11.957v-2.823M303.73 447.143l14.454-8.346M338.894 450.754l-20.71-11.957M303.73 449.966v-2.823M338.894 453.577v-2.823M303.73 452.789l14.454-8.345" stroke-width="1.36032"/><path d="M338.894 456.4l-20.71-11.956v-2.824M303.73 449.966l14.454-8.346M338.894 453.577l-20.71-11.957M303.73 452.789v-2.823M338.894 456.4v-2.823M324.44 467.57l-20.71-11.958 14.454-8.344M338.894 459.224l-20.71-11.956M324.44 467.57l14.454-8.346M318.184 447.268v-2.824M303.73 452.789l14.454-8.345M338.894 456.4l-20.71-11.956M303.73 455.612v-2.823M338.894 459.224v-2.823" stroke-width="1.36032"/><path d="M321.395 461.928l7.027-4.057-5.638-3.255" stroke-width="1.36032"/><path d="M321.395 461.928l-5.638-3.254 7.027-4.058M208.792 363.094l60.566 34.966M208.792 363.094l-4.25 2.452M263.144 383.87v-11.332l-4.886-2.822M258.258 381.048v-11.332M258.258 381.048l4.886 2.821M213.956 406.718l5.164 2.981M208.792 397.775V275.062M208.792 397.775v-5.963M209.706 409.172l5.164 2.981M204.542 400.228v-5.963M213.956 406.718c-1.369-.79-2.682-2.176-3.65-3.854-.97-1.677-1.513-3.508-1.513-5.09M209.706 409.172c-1.37-.79-2.683-2.176-3.65-3.854-.97-1.677-1.513-3.508-1.513-5.09M204.542 400.228V277.516M166.769 433.962l5.163 2.982M166.769 433.963c-1.37-.791-2.683-2.178-3.651-3.855-.969-1.677-1.513-3.508-1.513-5.09M161.604 425.018v-5.962M166.769 433.962l42.937-24.79M161.604 425.018l42.938-24.79M269.358 315.992v-5.962M259.03 298.104l5.164 2.982M264.194 301.086c1.37.791 2.684 2.178 3.652 3.855s1.512 3.508 1.512 5.09M213.956 272.08l50.238 29.006M269.358 432.743c0 1.58-.544 2.783-1.512 3.343-.968.559-2.282.429-3.651-.362M166.769 433.962l22.62 13.06M213.956 406.718l50.238 29.006M259.03 432.742l5.164 2.982M269.358 432.742V310.03M269.358 432.742v-5.963M254.78 435.196l5.164 2.982M209.706 409.172l50.238 29.006M248.855 444.58l11.089-6.402M263.596 438.539c-.969.56-2.282.43-3.652-.361" stroke-width="1.36032"/><path d="M248.855 447.05l14.74-8.511 4.251-2.454M161.604 308.27v-5.964M208.793 275.063c0-1.582.544-2.784 1.512-3.343.969-.56 2.282-.43 3.652.361M161.604 425.018V302.306M204.542 277.517c0-1.582.545-2.784 1.513-3.343M206.054 274.172l4.25-2.452M161.605 302.306c0-1.58.544-2.783 1.513-3.343M163.117 298.963l42.937-24.79M212.296 376.91V371.7M212.296 376.91l6.43 3.71M212.296 376.91l2.958-1.71M212.296 371.701l2.958-1.707M218.725 380.62l2.958-1.707M215.254 375.2l6.43 3.713M215.254 369.994l.891.585M215.254 375.2v-5.206M221.683 378.913v-1.1M215.254 374.101l21.693 12.525M215.254 374.101l1.783-1.03M215.254 371.093l1.783-1.029 21.692 12.525M217.037 373.072l21.692 12.524M217.037 370.064v3.008M236.947 386.626l1.782-1.03M238.73 382.589v3.007M189.389 458.825v-31.938l20.887-12.059M210.276 446.765v-31.937M189.389 458.825l20.887-12.06 38.579 22.273M189.389 458.825l38.577 22.273M210.276 414.828l38.579 22.273M248.855 469.038v-31.937M227.966 481.098l20.889-12.06M240.88 464.435v-31.937" stroke-width="1.36032"/><path d="M240.88 464.435l-2.007 1.159-30.605-17.67M238.873 465.594l7.95 4.59M208.268 447.924v-31.937M241.9 462.736v-3.525l6.05 3.492M247.95 466.229v-3.526M241.9 462.736l6.05 3.493M242.177 455.91v-11.782l5.423 3.131M247.6 459.04v-11.78" stroke-width="1.36032"/><path d="M244.447 446.909c-.228.132-.228.559 0 .954.228.395.598.608.826.476.228-.131.228-.558 0-.953-.228-.395-.598-.609-.826-.477M242.82 449.036c-.228.132-.228.56 0 .954.228.395.598.609.826.477.228-.132.228-.559 0-.954-.228-.395-.598-.608-.826-.476" stroke-width="1.36032"/><path d="M242.82 449.036c-.228.132-.228.56 0 .954.228.395.598.609.826.477.228-.132.228-.559 0-.954-.228-.395-.598-.608-.826-.476M244.525 450.02c-.228.133-.228.56 0 .955.228.395.598.608.826.477.228-.132.228-.56 0-.954-.228-.395-.598-.609-.826-.477M246.23 451.006c-.228.131-.228.558 0 .953.228.395.598.609.826.477.228-.132.228-.559 0-.954-.228-.395-.598-.608-.826-.477M242.82 450.844c-.228.13-.228.558 0 .953.228.395.598.608.826.477.228-.132.228-.559 0-.954-.228-.395-.598-.609-.826-.477M244.525 451.828c-.228.131-.228.558 0 .953.228.395.598.609.826.477.228-.132.228-.559 0-.954-.228-.395-.598-.608-.826-.477M246.23 452.812c-.228.131-.228.558 0 .954.228.395.598.608.826.476.228-.131.228-.558 0-.953-.228-.395-.598-.609-.826-.477M244.525 453.634c-.228.132-.228.559 0 .954.228.395.598.608.826.477.228-.132.228-.56 0-.954-.228-.395-.598-.609-.826-.477M244.525 455.545c-.228.131-.228.558 0 .953.228.396.598.609.826.477.228-.131.228-.558 0-.953-.228-.395-.598-.609-.826-.477M242.177 455.91l5.423 3.13M242.034 439.072v-2.152l5.755 3.323M247.79 442.394v-2.151M242.034 439.072l5.755 3.322M212.296 359.538v-5.208M212.296 359.538l6.43 3.712M212.296 359.538l2.958-1.709M212.296 354.33l2.958-1.708M218.725 363.25l2.958-1.708M215.254 357.83l6.43 3.712M215.254 352.622l.891.586M215.254 357.83v-5.208M221.683 361.542v-1.1M215.254 356.73l21.693 12.524M215.254 356.73l1.783-1.03M215.254 353.722l1.783-1.029 21.692 12.525M217.037 355.7l21.692 12.525M217.037 352.693v3.007M236.947 369.254l1.782-1.03M238.73 365.218v3.007M818.112 557.075l5.039-2.705M807.468 562.79l2.868-1.54M883.09 571.51V400.63l86.434-49.902M969.524 521.606V350.728M883.09 571.51l86.434-49.904M969.524 350.728l59.87 34.566M1029.395 556.172V385.294M969.524 521.606l59.87 34.566M883.09 571.51l59.87 34.566 18.077-10.437M926.308 546.558V375.679M931.64 449.692l4.08-2.356M931.64 466.388l4.08-2.355v-16.697M931.64 466.388v-16.696M916.895 458.206l4.08-2.356" stroke-width="1.36032"/><path d="M916.895 474.902l4.08-2.355V455.85" stroke-width="1.36032"/><path d="M916.895 474.902v-16.696l2.429 1.401V473.5M919.324 459.607l1.65-.953M931.64 449.692l2.43 1.402v13.892M934.07 451.094l1.65-.952M936.858 587.345l-20.71-11.957 14.454-8.346M951.312 579l-20.71-11.958M936.858 587.345L951.312 579M930.602 567.042v-2.822M916.147 572.564l14.455-8.344M951.312 576.176l-20.71-11.956M916.147 575.388v-2.824M951.312 579v-2.824" stroke-width="1.36032"/><path d="M933.812 581.704l7.028-4.058-5.637-3.254M963.977 597.756c-8.874-5.155-11.89-16.528-6.734-25.402 5.135-8.841 16.448-11.873 25.316-6.784" stroke-width="1.36032"/><path d="M982.517 565.546c8.887 5.13 11.933 16.496 6.801 25.383a18.582 18.582 0 0 1-14.448 9.219M971.576 610.079c0 .525.739.952 1.65.952.91 0 1.649-.427 1.649-.952 0-.526-.738-.953-1.65-.953-.91 0-1.649.427-1.649.953M933.812 581.704l-5.637-3.255 7.028-4.057M971.575 610.078v-9.858" stroke-width="1.36032"/><path d="M971.576 600.22c0-.525.739-.952 1.65-.952.91 0 1.649.427 1.649.953M991.342 585.774c1.956 9.565-.133 17.359-5.48 20.446-2.998 1.73-6.825 1.863-10.987.38" stroke-width="1.36032"/><path d="M991.764 580.355c4.654 12.243 3.231 23.386-3.483 27.263-3.602 2.08-8.382 1.84-13.463-.675M971.581 600.148a18.581 18.581 0 0 1-7.604-2.393M964.045 553.92c0-2.954 4.148-5.35 9.266-5.35 5.117 0 9.265 2.396 9.265 5.35M974.874 610.078v-9.858M975.119 563.192l7.457-9.272M977.544 560.178c2.094 1.702 4.111 3.723 5.983 5.995M977.204 560.6a44.826 44.826 0 0 1 3.96 4.247M971.626 563.18l-7.58-9.26M991.462 578.072l37.933-21.9M434.027 283.944V103.726l9.956-5.75M443.983 278.196V97.976M453.94 103.726l-9.957-5.75M453.94 283.944V103.726M585.932 190.126V21.772l9.958-5.75M595.89 184.376V16.022M605.848 21.772l-9.958-5.75M605.848 190.126V21.772M661.067 233.503v-21.506M661.067 65.15l9.956-5.749M671.023 227.755V59.401M680.98 65.15l-9.957-5.749M680.98 233.503V65.15M509.16 327.323v-29.2M519.118 321.574V273.76M529.074 327.323v-58.798M453.94 139.543l131.992-70.86M453.94 216.958l131.992-70.86M453.94 149.464l131.992-70.86M453.94 226.878l131.992-70.86M666.044 98.093v33.615l-4.977 2.874M661.067 95.218V65.149M666.044 175.507v33.616l-4.977 2.874-55.22-31.88M661.067 172.632v-38.05M453.94 283.944l-9.957-5.748M434.027 283.944l9.956-5.748M443.983 289.693l9.958-5.749M443.983 289.693l-9.956-5.749M529.074 327.323l-9.956-5.75M509.16 327.323l9.958-5.75M519.118 333.072l9.956-5.75M519.118 333.072l-9.958-5.75M605.848 190.126l-9.958-5.75M585.932 190.126l9.958-5.75M595.89 195.874l9.958-5.748M595.89 195.874l-9.958-5.748M680.98 233.503l-9.957-5.748M661.067 233.503l9.956-5.748M671.023 239.252l9.958-5.749M671.023 239.252l-9.956-5.749M484.346 200.634l-30.405-17.555M479.186 203.404l-25.245-14.576M519.118 298.123l-65.177-37.63M514.139 300.997l-60.198-34.755M514.139 300.997l4.979-2.874M456.644 228.44v12.374l59.77 34.508M456.644 240.814l129.288-69.408M516.414 275.322l131.992-70.86M456.644 228.44l129.288-69.41M453.94 226.878l2.704 1.561M453.94 149.464l2.704 1.56V163.4l18.626 10.754M456.644 163.4l129.288-69.409M456.644 151.025l129.288-69.41M482.294 235.03l10.964-6.33M493.258 228.7c2.109-1.217 4.97-1.901 7.952-1.901 2.983 0 5.843.684 7.952 1.901M479.008 239.852a4.13 4.13 0 0 1-.007-.231c0-1.722 1.185-3.374 3.294-4.591M536.213 244.318c2.108 1.217 3.293 2.869 3.293 4.591M509.161 228.7l27.05 15.618M482.826 243.749l10.963-6.329M509.694 237.42l27.05 15.617M525.781 268.55l10.962-6.33M493.79 237.42c2.109-1.217 4.97-1.901 7.952-1.901 2.983 0 5.843.684 7.952 1.902" stroke-width="1.36032"/><path d="M482.827 252.932c-2.11-1.217-3.294-2.869-3.294-4.59 0-1.723 1.185-3.374 3.294-4.592M536.744 253.038c2.11 1.218 3.294 2.87 3.294 4.591 0 1.722-1.185 3.374-3.294 4.591M525.781 268.55c-2.109 1.217-4.97 1.902-7.952 1.902-2.983 0-5.843-.685-7.952-1.902M482.826 252.932l27.05 15.617M479.532 248.34l-.524-8.488M540.037 257.628l-.531-8.72M478.028 160.68l10.964-6.329M488.992 154.351c2.109-1.217 4.97-1.901 7.952-1.901 2.983 0 5.843.684 7.952 1.902M474.742 165.504a4.268 4.268 0 0 1-.007-.232c0-1.722 1.185-3.373 3.294-4.591M504.896 154.351l27.05 15.617M478.56 169.4l10.963-6.328M505.428 163.072l23.555 13.6M489.523 163.072c2.11-1.218 4.97-1.902 7.953-1.902 2.983 0 5.843.684 7.952 1.902M478.561 178.584c-2.11-1.218-3.294-2.87-3.294-4.592 0-1.722 1.185-3.373 3.294-4.59M478.56 178.583l22.58 13.035M531.947 169.97c1.62.935 2.708 2.135 3.115 3.438M475.266 173.992l-.524-8.49M666.044 209.123l-60.196-34.756M623.242 103.578V28.494l-4.98 2.875M618.263 106.452V31.369M623.242 28.494l4.978 2.875M628.22 106.452V31.369M650.851 119.518V44.435l-4.979 2.874M645.872 121.938v-5.615M650.851 44.435l4.979 2.874M655.83 122.393V47.309M628.22 68.91l22.631 13.067" stroke-width="1.36032"/><path d="M628.22 71.826l22.631 13.066-4.979 2.874M628.22 77.574l17.652 10.192M628.22 83.189l22.631 13.067M628.22 86.105l22.631 13.065-4.979 2.874M628.22 91.853l17.652 10.191M628.22 97.468l22.631 13.065M628.22 100.382l22.631 13.067-4.979 2.874M628.22 106.132l17.652 10.191M628.22 54.632l22.631 13.066M628.22 57.547l22.631 13.066M628.22 63.296l17.652 10.192M628.22 40.354l22.631 13.065M628.22 43.268l22.631 13.066M628.22 49.018l17.652 10.191M645.872 107.66v-5.616M645.872 93.38v-5.614M645.872 79.102v-5.614M650.851 70.613l-4.979 2.875M650.851 56.334l-4.979 2.875M645.872 64.824v-5.615M645.872 50.545V47.31M623.242 178.66v-75.082M618.263 181.535v-75.083M628.22 181.535v-75.083M650.851 194.602v-75.084M645.872 197.476v-9.76M655.83 197.476v-75.083M623.242 178.66l-4.98 2.875M623.242 178.66l4.978 2.875M650.851 194.602l-4.979 2.874M650.851 194.602l4.979 2.874M618.263 181.535l4.979 2.875M645.872 197.476l4.98 2.874M628.22 181.535l-4.978 2.875M655.83 197.476l-4.979 2.874M645.872 179.052v-5.615M645.872 164.773v-5.613M645.872 150.496v-5.615M645.872 136.217v-5.615M628.22 111.746l22.631 13.066M628.22 114.661l22.631 13.067-4.979 2.874M628.22 120.41l17.652 10.192M628.22 126.025l22.631 13.066M628.22 128.94l22.631 13.066-4.979 2.875M628.22 134.69l17.652 10.19M628.22 140.304l22.631 13.066M628.22 143.219l22.631 13.065-4.979 2.876M628.22 148.968l17.652 10.192M628.22 154.582l22.631 13.066M628.22 157.498l22.631 13.065-4.979 2.874M628.22 163.246l17.652 10.191M628.22 168.86l22.631 13.067M628.22 171.776l22.631 13.066-4.979 2.874M628.22 177.524l17.652 10.192M666.044 175.507l-10.214-5.898M618.263 147.92l-12.415-7.168M614.053 145.49l4.21-2.26M618.263 109.87l-12.415-7.168M666.044 131.708l-10.214-5.898M661.067 134.582l-5.237-3.024M618.263 104.12l-12.415-7.167M645.872 120.061L628.22 109.87M618.263 70.505l-12.415-7.168M666.044 98.093l-10.214-5.898M559.987 251.93l-59.768-34.508v-8.161l85.713-46.015M546.983 167.008l-46.764-27M500.219 131.846l85.713-46.015M500.219 131.846v8.162M638.863 132.17l5.04-2.706M628.22 137.885l2.868-1.54M371.034 190.39l32.237 18.612M291.784 247.688l2.19-12.808M326.212 253.492l-22.186 1.264M371.034 190.39v-3.504l32.237 18.612M291.784 244.184l2.19-12.807M403.27 209.002v-3.504M293.975 234.88v-3.503M291.784 247.688l-.574 3.125M304.026 254.756l-5.41.332M291.172 251.222v-3.504M291.21 250.813a2.28 2.28 0 0 0-.037.41c0 2.147 3.014 3.887 6.732 3.887.237 0 .474-.007.71-.021M291.784 244.184l-.612 3.534M350.437 198.778l-35.489-17.722M347.146 200.677l-35.49-17.72M359.213 155.612l-3.292 1.901M314.948 181.056l-3.292 1.9M359.213 155.612l2.327 1.344M326.05 210.466l-2.222 3.674M324.403 209.644l-3.866 6.397M375.331 164.918l-3.291 1.901M375.331 164.918l2.327 1.343-15.604 25.81M375.331 164.918l-18.098 29.936M372.04 166.82l-18.099 29.934M327.696 207.744l-1.646 2.722M326.05 206.922l-1.647 2.722M330.107 208.948l-1.446 2.39M338.46 205.68l-.012.02M333.841 194.034l-7.791 12.888M355.921 157.513l-20.433 33.798M335.488 194.856l-7.792 12.888M359.213 155.612l-22.08 36.521M337.897 196.06l-7.79 12.888M361.54 156.956l-21.996 36.38M371.034 186.886l-77.06 44.49M371.034 190.39l-77.06 44.49M403.27 209.002l-77.058 44.49M352.902 207.556l-24.83 14.335M352.902 207.556l9.691 5.595M354.113 216.481l-18.622 10.751M354.113 216.481l7.27 4.197-1.819 1.048M334.82 231.817l.671-4.585-7.418-5.341M361.382 220.678l1.211-7.527M354.113 216.481l-1.211-8.925M337.308 228.28l-1.817-1.048M355.93 217.53l-5.682 3.28M355.93 217.53v5.23M359.564 219.629v5.23M337.308 228.28v5.232M355.93 222.76l-18.622 10.752M359.564 224.858l-18.621 10.751M350.248 220.81v3.417M340.943 235.61l-3.635-2.098M359.564 224.858l-3.633-2.098M350.248 224.227l-11.016 6.36M347.57 225.774c-.569-.42-1.44-.664-2.362-.664-1.658 0-3.002.776-3.002 1.733 0 .533.424 1.036 1.15 1.364" stroke-width="1.36032"/><path d="M348.14 225.445c-.305-.794-1.524-1.359-2.932-1.359-1.658 0-3.002.776-3.002 1.734M342.205 225.82v.96M328.073 221.89l-3.431 7.578M334.82 231.817l-10.178-2.35M337.308 231.697l-2.489.12M339.232 227.17v3.417M339.232 227.17l-1.924 1.11M342.19 228.878l-2.958-1.707M578.584 241.945l23.34 13.476v-26.006M600.492 235.25v17.69M580.07 241.148l20.422 11.792M561.186 256.613a2.918 2.918 0 0 1-.098-.746c0-1.804 1.696-3.467 4.429-4.343M565.637 251.486c1.247-.385 2.64-.586 4.056-.586 4.752 0 8.604 2.224 8.604 4.967 0 .25-.032.5-.097.746M600.492 235.25l-15.32 8.844M575.417 262.56l2.293-3.398" stroke-width="1.36032"/><path d="M561.676 259.163c-.389-.575-.588-1.187-.588-1.804 0-1.804 1.696-3.467 4.429-4.343M565.637 252.978c1.247-.385 2.64-.586 4.056-.586 4.752 0 8.604 2.224 8.604 4.967 0 .617-.199 1.229-.587 1.804M548.761 276.442a7.26 7.26 0 0 1-.306-2.074c0-6.771 9.509-12.261 21.238-12.261s21.237 5.49 21.237 12.261c0 .695-.102 1.388-.305 2.073M557.363 298.28c0 3.931 5.52 7.118 12.33 7.118 6.81 0 12.33-3.187 12.33-7.118 0-3.931-5.52-7.119-12.33-7.119-6.81 0-12.33 3.188-12.33 7.119M563.968 262.56l-2.294-3.398M548.76 276.44l8.89 23.367M582.022 298.28l8.602-21.84M545.273 259.829l9.79 5.65M584.414 265.531l17.51-10.11M594.46 233.423l4.598 2.654" stroke-width="1.36032"/><path d="M589.439 279.451c17.425-4.441 36.264-6.735 55.312-6.735 75.634 0 136.947 35.4 136.947 79.066 0 43.668-61.313 79.067-136.947 79.067s-136.948-35.4-136.948-79.067c0-7.476 1.837-14.914 5.455-22.093M595.945 232.625l5.98 3.452" stroke-width="1.36032"/></g></g></g></svg>