<svg xmlns="http://www.w3.org/2000/svg" width="630" height="145" viewBox="0 0 590.625 135.938"><g aria-label="&gt; com." style="line-height:1.25" font-weight="400" font-size="164.535" font-family="sans-serif" letter-spacing="0" word-spacing="0" stroke-width="4.113"><g font-family="Rubik"><path d="M87.387 68.169q0 3.198-1.603 4.997-1.403 1.6-4.21 3.399L6.415 127.34q-.802.4-1.403.6h-.802q-1.804 0-3.006-1.2Q0 125.543 0 123.744V96.356q0-3.399 2.205-5.398 2.204-1.999 4.209-3.398l35.275-23.59L6.414 40.382q-2.005-1.399-4.21-3.398Q0 34.983 0 31.585V4.198q0-1.8 1.203-2.999Q2.405 0 4.209 0q.4 0 .802.2.601 0 1.403.4l75.16 50.776q2.807 1.8 4.21 3.599 1.603 1.599 1.603 4.798z" style="-inkscape-font-specification:Rubik" fill="#f60"/><path d="M156.208 74.966q-.4 2.998-.4 6.996t.4 6.997q.601 7.197 5.412 11.595 4.81 4.398 12.827 4.398 6.614 0 10.022-1.8 3.607-1.998 5.812-5.397 1.002-1.6 2.205-2.799 1.403-1.2 3.608-1.2h26.256q2.204 0 3.808 1.6 1.804 1.6 1.603 3.798-.2 3.199-2.605 9.396-2.405 6.197-8.418 12.394-6.013 5.998-16.235 10.596-10.222 4.398-26.056 4.398-11.224 0-21.045-3.199-9.62-3.199-17.036-9.196-7.216-5.997-11.625-14.393-4.21-8.596-4.61-19.191-.2-2.999-.2-7.997 0-4.997.2-7.996.4-10.595 4.61-18.991 4.41-8.596 11.625-14.594 7.416-5.997 17.036-9.195 9.821-3.199 21.045-3.199 15.834 0 26.056 4.598 10.222 4.398 16.235 10.595 6.013 5.997 8.418 12.195 2.405 6.197 2.605 9.395.2 2.2-1.603 3.798-1.604 1.6-3.808 1.6h-26.256q-2.205 0-3.608-1.2-1.203-1.2-2.205-2.798-2.205-3.399-5.812-5.198-3.408-2-10.022-2-8.017 0-12.827 4.399-4.81 4.398-5.412 11.595zM349.534 74.366q.2 2.998.2 7.796 0 4.598-.2 7.597-.4 9.595-4.41 17.991-4.008 8.397-11.023 14.794-7.015 6.197-17.036 9.795-9.821 3.599-22.047 3.599-12.227 0-22.248-3.599-9.821-3.598-16.836-9.795-7.015-6.397-11.024-14.794-4.008-8.396-4.409-17.991-.2-2.999-.2-7.597 0-4.798.2-7.796.2-9.596 4.209-17.992 4.009-8.396 11.024-14.593 7.215-6.397 17.036-9.996 10.021-3.798 22.248-3.798 12.226 0 22.047 3.798 10.021 3.599 17.036 9.996 7.216 6.197 11.024 14.593 4.008 8.396 4.41 17.992zm-72.956 14.393q.601 7.597 5.412 11.995 5.01 4.198 13.028 4.198 8.017 0 12.827-4.198 5.01-4.398 5.612-11.995.401-2.998.401-6.797 0-3.798-.4-6.797-.602-7.596-5.613-11.794-4.81-4.398-12.827-4.398T281.99 63.37q-4.81 4.198-5.412 11.794-.4 3-.4 6.797 0 3.799.4 6.797zM532.573 128.54q0 2.2-1.604 3.8-1.603 1.598-3.808 1.598H502.91q-2.204 0-3.808-1.599-1.603-1.6-1.603-3.798V77.364q0-9.995-3.808-14.193-3.608-4.198-10.824-4.198-7.015 0-10.823 4.198-3.608 4.198-3.608 14.193v51.177q0 2.199-1.603 3.798-1.603 1.6-3.808 1.6h-24.252q-2.205 0-3.808-1.6-1.604-1.6-1.604-3.798V77.364q0-9.995-3.808-14.193-3.607-4.198-10.823-4.198-7.015 0-10.823 4.198-3.608 3.998-3.608 13.594v51.776q0 2.199-1.603 3.798-1.604 1.6-3.808 1.6h-25.254q-2.205 0-3.808-1.6-1.604-1.6-1.604-3.798V35.384q0-2.2 1.604-3.799 1.603-1.599 3.808-1.599h24.252q2.204 0 3.808 1.6 1.603 1.599 1.603 3.798v4.598q4.41-5.598 10.623-8.796 6.414-3.199 14.832-3.199 10.221 0 18.439 3.798 8.418 3.799 13.63 11.795 5.812-7.597 14.03-11.595 8.417-3.998 18.038-3.998 8.618 0 15.834 2.799 7.416 2.599 12.627 8.196 5.411 5.598 8.217 14.194 3.007 8.596 3.007 20.39z" style="-inkscape-font-specification:Rubik" fill="#483737"/><path d="M590.625 128.54q0 2.2-1.603 3.8-1.604 1.598-3.809 1.598h-26.256q-2.204 0-3.808-1.599-1.603-1.6-1.603-3.798v-26.188q0-2.199 1.603-3.798 1.604-1.6 3.808-1.6h26.256q2.205 0 3.809 1.6 1.603 1.599 1.603 3.798z" style="-inkscape-font-specification:Rubik" fill="#59f"/></g><text style="line-height:1.25" x="445.84" y="304.589" font-size="37.5" stroke-width="3.856" transform="translate(24.375 -886.425)"/></g></svg>